<?xml version="1.0" encoding="UTF-8"?>
<svg version="1.1" xmlns="http://www.w3.org/2000/svg" width="2400" height="2709">
<path d="M0 0 C0.90800021 -0.0216751 1.81600043 -0.04335021 2.7515158 -0.06568214 C26.86987181 -0.6228527 50.98119053 -0.61240389 75.10378285 -0.42013635 C89.50691389 -0.30771294 103.90667231 -0.30896451 118.31002045 -0.38158417 C119.3494682 -0.3866561 120.38891595 -0.39172802 121.45986211 -0.39695365 C125.68402373 -0.41758274 129.90818361 -0.43852322 134.13234089 -0.46002294 C173.42617529 -0.65768663 212.71311063 -0.53572277 252.00619185 -0.26510883 C286.56266544 -0.02923974 321.10638056 -0.09472303 355.66210938 -0.41113281 C394.88526229 -0.76939114 434.10115443 -0.91978462 473.32587314 -0.76435256 C477.54413879 -0.74820069 481.76240614 -0.73257835 485.98067474 -0.71721649 C487.53755313 -0.71129942 487.53755313 -0.71129942 489.1258836 -0.7052628 C503.47922626 -0.6540195 517.82726039 -0.72193662 532.1796969 -0.88499661 C556.24105478 -1.15527658 580.28635976 -1.15240165 604.34375 -0.5859375 C605.25231674 -0.56480498 606.16088348 -0.54367246 607.09698255 -0.52189956 C680.13703994 1.25626229 736.65175085 22.53562611 797.93165207 61.48874283 C807.98010542 67.86989366 818.42032077 73.02020701 829.23930183 77.95361039 C833.99503148 80.16264835 838.67885837 82.51613576 843.36694336 84.86450195 C844.9908175 85.67446719 844.9908175 85.67446719 846.64749718 86.50079536 C847.51537676 86.93608496 848.38325634 87.37137455 849.2774353 87.81985474 C850.28528454 88.3250275 851.29313377 88.83020027 852.3315239 89.3506813 C853.37422062 89.87336468 854.41691734 90.39604805 855.49121094 90.93457031 C857.74288058 92.06136802 859.99464331 93.18797972 862.24649048 94.31442261 C867.04573586 96.71560988 871.84438359 99.11798476 876.64248657 101.52145386 C883.60407732 105.00861001 890.567022 108.49305606 897.53030574 111.97683012 C908.86791938 117.64915018 920.2047837 123.32296598 931.54101562 128.99804688 C932.21579858 129.33585226 932.89058153 129.67365764 933.58581245 130.02169955 C939.05819031 132.76125946 944.53053121 135.50089319 950.00287056 138.24053001 C954.78705267 140.6356483 959.57124955 143.03073705 964.35546875 145.42578125 C965.36637284 145.93185439 965.36637284 145.93185439 966.39769924 146.44815123 C977.69906653 152.10571569 989.0012427 157.76166244 1000.30397892 163.41649151 C1007.23658865 166.88501474 1014.16849312 170.35493972 1021.09943604 173.82679248 C1026.42625746 176.49497681 1031.75413766 179.16104019 1037.08237839 181.82638931 C1039.24359863 182.90792364 1041.40447803 183.99013943 1043.56496048 185.07314682 C1056.22971127 191.42120661 1068.94807702 197.6377637 1081.73940086 203.72677612 C1088.42070061 206.90863941 1095.06499397 210.16216045 1101.70141602 213.43652344 C1103.00873867 214.08043907 1104.31608723 214.72430211 1105.62345886 215.36811829 C1117.33799396 221.14025607 1129.03786649 226.94211227 1140.73343372 232.75257111 C1148.55097046 236.63583064 1156.37291963 240.50962299 1164.20629883 244.36083984 C1171.11077164 247.75537573 1178.00650938 251.16694074 1184.89235896 254.59910631 C1188.51490187 256.4040407 1192.14097893 258.20073381 1195.77768898 259.97697449 C1199.18925662 261.64362879 1202.58850593 263.33318506 1205.98011971 265.04006004 C1207.79732494 265.94742301 1209.62631168 266.8310744 1211.45571899 267.71357727 C1219.70315306 271.90406672 1225.164948 277.03983543 1230.94824219 284.21191406 C1231.74736936 285.18422218 1232.54649652 286.1565303 1233.36983967 287.15830231 C1234.83055893 288.94325272 1236.2848172 290.73350525 1237.73339844 292.52832031 C1239.90457045 295.15899963 1242.15065576 297.69133831 1244.44824219 300.21191406 C1247.4710664 303.53180893 1250.3733638 306.90955518 1253.19824219 310.39941406 C1258.41342734 316.83903399 1263.8615597 323.0664681 1269.30175781 329.31542969 C1273.37726743 334.00975927 1277.41008065 338.74090147 1281.45117188 343.46484375 C1282.98110977 345.2502703 1284.51495019 347.03227552 1286.04980469 348.81347656 C1290.64201354 354.14741471 1295.20469176 359.49233619 1299.63574219 364.96191406 C1303.1856954 369.33699154 1306.90388039 373.51740598 1310.69824219 377.68066406 C1313.81757095 381.18990892 1316.74573352 384.84353529 1319.69824219 388.49316406 C1321.88325788 391.13339136 1324.13995609 393.67921127 1326.44824219 396.21191406 C1329.4710664 399.53180893 1332.3733638 402.90955518 1335.19824219 406.39941406 C1340.41210656 412.83740312 1345.85865472 419.06354972 1351.29736328 425.31103516 C1358.19913304 433.25797088 1365.01511505 441.27869305 1371.80639648 449.32006836 C1377.15310669 455.64638695 1382.55171572 461.92809743 1387.94824219 468.21191406 C1394.25912532 475.56042474 1400.55628598 482.91931724 1406.80615234 490.31982422 C1412.15302326 496.64615771 1417.5516405 502.92800985 1422.94824219 509.21191406 C1429.25912532 516.56042474 1435.55628598 523.91931724 1441.80615234 531.31982422 C1447.15302326 537.64615771 1452.5516405 543.92800985 1457.94824219 550.21191406 C1464.2577717 557.55884856 1470.55506649 564.91494833 1476.80175781 572.31542969 C1480.62948835 576.8461007 1484.48763256 581.35023209 1488.36230469 585.84082031 C1489.29365856 586.92341969 1490.20794975 588.02088599 1491.10640409 589.1309406 C1492.9550784 591.31434016 1492.9550784 591.31434016 1495.40515614 593.32519666 C1502.0947199 599.74478547 1503.8802966 605.14894595 1504.20518583 614.38002425 C1504.29606782 619.00879098 1504.26034878 623.63090961 1504.21503353 628.26005268 C1504.22637974 630.84812849 1504.24210316 633.43618816 1504.2618008 636.02421388 C1504.2976257 641.66345505 1504.29642911 647.30174259 1504.27089816 652.94102583 C1504.23286025 661.38304826 1504.25262476 669.82427045 1504.28347277 678.26628717 C1504.33435032 692.6549948 1504.33775075 707.04336464 1504.31525421 721.43212891 C1504.29261879 736.01276246 1504.29166515 750.59315651 1504.31713295 765.17378807 C1504.31872612 766.09485572 1504.32031929 767.01592337 1504.32196073 767.96490216 C1504.32851857 771.71629913 1504.33522659 775.46769579 1504.34212623 779.21909214 C1504.41209545 817.30107373 1504.41762985 855.38287573 1504.39805413 893.46490423 C1504.39536974 898.72708796 1504.39278135 903.98927172 1504.39029193 909.25145555 C1504.38954895 910.81924049 1504.38954895 910.81924049 1504.38879095 912.41869785 C1504.37825483 935.57909944 1504.38770243 958.73948002 1504.40135102 981.89987836 C1504.40321767 985.06940228 1504.40504035 988.23892621 1504.40684942 991.40845016 C1504.41170472 999.90481015 1504.41660411 1008.40117011 1504.42158821 1016.89753002 C1504.45615033 1076.21211411 1504.47063776 1135.52667829 1504.44311428 1194.84126759 C1504.44234153 1196.51850628 1504.44234153 1196.51850628 1504.44155317 1198.22962858 C1504.43578993 1210.69839854 1504.42972087 1223.16716834 1504.42353176 1235.63593809 C1504.42297317 1236.76169268 1504.42241458 1237.88744728 1504.42183907 1239.04731565 C1504.41957836 1243.5999597 1504.41731758 1248.15260374 1504.41503654 1252.70524778 C1504.37900431 1324.71806611 1504.40253272 1396.73062221 1504.47827148 1468.7434082 C1504.49732271 1486.88918165 1504.51620838 1505.03495521 1504.53407192 1523.18072987 C1504.53517368 1524.29801862 1504.53627544 1525.41530737 1504.53741059 1526.56645335 C1504.57114614 1560.99796402 1504.58884506 1595.42945278 1504.58959293 1629.86098003 C1504.58963008 1631.48230487 1504.58963008 1631.48230487 1504.58966797 1633.13638374 C1504.59004035 1656.86341999 1504.58638862 1680.59045429 1504.57907147 1704.31748937 C1504.57647801 1712.80723204 1504.57413032 1721.29697477 1504.57188031 1729.78671754 C1504.57131485 1731.89876589 1504.57073312 1734.01081424 1504.57013506 1736.12286258 C1504.56069679 1769.7844036 1504.58779886 1803.44578957 1504.63254752 1837.10729818 C1504.67851553 1871.94906158 1504.67618136 1906.79052555 1504.61889207 1941.6322761 C1504.61292711 1945.37346274 1504.60716985 1949.11464965 1504.60157585 1952.85583687 C1504.59948829 1954.23306948 1504.59948829 1954.23306948 1504.59735855 1955.63812498 C1504.57648979 1970.17852164 1504.59918217 1984.71851015 1504.63997245 1999.25885082 C1504.67915873 2013.55529598 1504.67193676 2027.85109361 1504.61529743 2042.14748708 C1504.58346905 2050.52984602 1504.58707909 2058.91037085 1504.64326896 2067.29261225 C1504.68101029 2073.51646624 1504.65092518 2079.73826444 1504.59447514 2085.96193817 C1504.58225757 2088.46347236 1504.59182191 2090.96523181 1504.62582033 2093.4665648 C1504.89762053 2114.9463965 1504.89762053 2114.9463965 1496.72933251 2123.85570544 C1495.07258209 2125.50517691 1493.38045361 2127.08640732 1491.63457187 2128.64098357 C1488.76919695 2131.31027469 1486.32296527 2134.32990198 1483.82324219 2137.33691406 C1482.83258906 2138.49708017 1481.84059143 2139.65610088 1480.84667969 2140.81347656 C1477.58099381 2144.63762309 1474.33478232 2148.47811218 1471.09008789 2152.32006836 C1465.24123614 2159.24052937 1459.33107656 2166.10845953 1453.42773438 2172.98242188 C1448.08138113 2179.20894645 1442.74346389 2185.44180796 1437.44824219 2191.71191406 C1431.14915813 2199.17070004 1424.78829448 2206.57606641 1418.42773438 2213.98242188 C1413.08138113 2220.20894645 1407.74346389 2226.44180796 1402.44824219 2232.71191406 C1396.14915813 2240.17070004 1389.78829448 2247.57606641 1383.42773438 2254.98242188 C1378.08138113 2261.20894645 1372.74346389 2267.44180796 1367.44824219 2273.71191406 C1361.14915813 2281.17070004 1354.78829448 2288.57606641 1348.42773438 2295.98242188 C1343.08138113 2302.20894645 1337.74346389 2308.44180796 1332.44824219 2314.71191406 C1326.14915813 2322.17070004 1319.78829448 2329.57606641 1313.42773438 2336.98242188 C1308.08138113 2343.20894645 1302.74346389 2349.44180796 1297.44824219 2355.71191406 C1291.14915813 2363.17070004 1284.78829448 2370.57606641 1278.42773438 2377.98242188 C1273.08138113 2384.20894645 1267.74346389 2390.44180796 1262.44824219 2396.71191406 C1258.65294275 2401.20595256 1254.84033336 2405.68455619 1251.01074219 2410.14941406 C1250.51405029 2410.72860596 1250.0173584 2411.30779785 1249.50561523 2411.90454102 C1246.953138 2414.87947448 1244.39754237 2417.85168486 1241.83886719 2420.82128906 C1241.07352661 2421.71098389 1241.07352661 2421.71098389 1240.29272461 2422.61865234 C1239.27840083 2423.79769261 1238.26295344 2424.97576725 1237.24633789 2426.15283203 C1234.93033903 2428.84624445 1232.65523717 2431.55503511 1230.47558594 2434.36035156 C1229.7240625 2435.32199219 1228.97253906 2436.28363281 1228.19824219 2437.27441406 C1227.56402344 2438.11101563 1226.92980469 2438.94761719 1226.27636719 2439.80957031 C1224.25404023 2441.89636743 1222.69035318 2443.08984436 1220.24785388 2444.5649454 C1216.37401729 2446.94038397 1212.59214998 2449.42358457 1208.82633018 2451.96575642 C1207.42270009 2452.90862217 1206.01878865 2453.85106916 1204.61464119 2454.79316425 C1203.49990752 2455.54118775 1203.49990752 2455.54118775 1202.36265397 2456.30432284 C1133.46598013 2502.45395759 1062.52190086 2545.10420378 306.40552257 2745.5251532 C303.32326201 2745.52441407 300.24101717 2745.52661792 297.15875828 2745.52976191 C196.8985266 2745.62349997 96.56134674 2741.79172695 -577.86914062 2470.06225586 C-578.83953318 2469.43008219 -579.80992573 2468.79790853 -580.80972412 2468.14657809 C-586.28707734 2464.57456528 -591.74913529 2460.98099213 -597.18898956 2457.35210337 C-598.79793395 2456.28012226 -600.40971054 2455.21237637 -602.02467509 2454.14948641 C-611.33079577 2448.00887883 -618.99379541 2441.94581518 -626.05175781 2433.21191406 C-626.80510635 2432.29691767 -627.55845488 2431.38192128 -628.33463216 2430.43919772 C-629.75697149 2428.70314458 -631.17253525 2426.96152843 -632.58300781 2425.21582031 C-637.07598617 2419.74888937 -641.75921844 2414.44515615 -646.40527344 2409.10839844 C-650.48348311 2404.41095883 -654.51948349 2399.67707903 -658.56347656 2394.95019531 C-660.0684783 2393.19238488 -661.57543484 2391.43626961 -663.08300781 2389.68066406 C-668.38230207 2383.50824393 -673.66073151 2377.31930335 -678.90966797 2371.10400391 C-682.25381966 2367.14725628 -685.61642993 2363.20673907 -688.98925781 2359.27441406 C-689.48594971 2358.69522217 -689.9826416 2358.11603027 -690.49438477 2357.51928711 C-693.046862 2354.54435365 -695.60245763 2351.57214326 -698.16113281 2348.60253906 C-702.75011692 2343.27070772 -707.31053616 2337.92861736 -711.73925781 2332.46191406 C-715.29443685 2328.08039611 -719.01945318 2323.89480725 -722.81738281 2319.72363281 C-725.05310314 2317.21040174 -727.18553463 2314.63879927 -729.30175781 2312.02441406 C-734.51694297 2305.58479413 -739.96507533 2299.35736003 -745.40527344 2293.10839844 C-749.48078306 2288.41406885 -753.51359628 2283.68292665 -757.5546875 2278.95898438 C-759.0846254 2277.17355782 -760.61846582 2275.39155261 -762.15332031 2273.61035156 C-766.74552917 2268.27641342 -771.30820739 2262.93149193 -775.73925781 2257.46191406 C-779.29443685 2253.08039611 -783.01945318 2248.89480725 -786.81738281 2244.72363281 C-789.05310314 2242.21040174 -791.18553463 2239.63879927 -793.30175781 2237.02441406 C-798.51562219 2230.58642501 -803.96217035 2224.3602784 -809.40087891 2218.11279297 C-816.30264867 2210.16585725 -823.11863067 2202.14513507 -829.90991211 2194.10375977 C-835.25662232 2187.77744117 -840.65523134 2181.49573069 -846.05175781 2175.21191406 C-852.36264095 2167.86340338 -858.65980161 2160.50451089 -864.90966797 2153.10400391 C-871.34063026 2145.49499056 -877.84118161 2137.94531468 -884.33691406 2130.39160156 C-885.1443103 2129.45175415 -885.1443103 2129.45175415 -885.96801758 2128.49291992 C-886.99250838 2127.30039179 -888.01769016 2126.10845677 -889.04370117 2124.91723633 C-889.51042236 2124.37381592 -889.97714355 2123.83039551 -890.45800781 2123.27050781 C-890.86341797 2122.7992749 -891.26882813 2122.32804199 -891.68652344 2121.8425293 C-892.36231445 2121.03537476 -892.36231445 2121.03537476 -893.05175781 2120.21191406 C-893.72936087 2119.56569374 -894.40696393 2118.91947341 -895.10510042 2118.25367066 C-897.92669199 2113.84478247 -897.60793061 2110.04765449 -897.56351048 2104.91319335 C-897.5736015 2103.33144172 -897.5736015 2103.33144172 -897.58389637 2101.71773553 C-897.60169193 2098.15331691 -897.59081177 2094.58954978 -897.58026218 2091.02511024 C-897.5871604 2088.44520991 -897.59580648 2085.86531375 -897.60605046 2083.28542453 C-897.62558618 2077.64257478 -897.63015749 2071.99986361 -897.62511469 2066.35698457 C-897.61762663 2057.90926156 -897.63301941 2049.46168669 -897.65288985 2041.01398926 C-897.68605123 2026.61803792 -897.69999735 2012.22212409 -897.70353699 1997.82613754 C-897.70717025 1983.23133562 -897.71935586 1968.63657905 -897.74200249 1954.04179382 C-897.7434235 1953.12092702 -897.74484452 1952.20006021 -897.74630859 1951.25128836 C-897.7521168 1947.50089345 -897.75797443 1943.75049863 -897.76389793 1940.0001039 C-897.83394329 1895.57048815 -897.86402284 1851.14087692 -897.88709023 1806.71121601 C-897.89861145 1784.59149928 -897.91513849 1762.47178749 -897.9325136 1740.3520747 C-897.98816741 1669.41694131 -898.03552594 1598.48180725 -898.05300521 1527.5466532 C-898.05412141 1523.02361696 -898.0552652 1518.50058072 -898.05640765 1513.97754448 C-898.05726583 1510.57788771 -898.05812037 1507.17823093 -898.05897391 1503.77857416 C-898.06154453 1493.54596809 -898.06412821 1483.31336202 -898.06675331 1473.08075596 C-898.06733581 1470.80172251 -898.06791392 1468.52268907 -898.06848765 1466.24365562 C-898.08692666 1393.04538033 -898.15454623 1319.84728468 -898.2569773 1246.64908098 C-898.33054017 1194.06020021 -898.39852148 1141.47135385 -898.4191885 1088.88242149 C-898.41961598 1087.80106844 -898.42004346 1086.71971538 -898.42048389 1085.60559404 C-898.42972557 1061.86789986 -898.43524482 1038.13020616 -898.43729719 1014.39251031 C-898.43807456 1005.89874794 -898.43917158 997.40498561 -898.44044218 988.91122329 C-898.4407579 986.79814415 -898.44105971 984.68506501 -898.44134756 982.57198587 C-898.44612441 948.89069584 -898.49028184 915.20960038 -898.55448117 881.52837558 C-898.6188929 847.60490685 -898.6419401 813.68167257 -898.60814478 779.75815192 C-898.60348016 775.07078325 -898.59927014 770.38341426 -898.59533119 765.69604492 C-898.59454144 764.77718756 -898.59375169 763.8583302 -898.592938 762.91162868 C-898.58162092 748.35994034 -898.61398063 733.8086899 -898.66452685 719.25709875 C-898.71331867 704.94940192 -898.71576294 690.64232017 -898.66886806 676.33461021 C-898.64276253 667.94544624 -898.65217356 659.55814513 -898.71426114 651.1691599 C-898.75638472 644.94025873 -898.73064928 638.71336621 -898.6785428 632.48457924 C-898.66808339 629.98095392 -898.67942651 627.47711854 -898.71522398 624.97372729 C-899.00249146 603.47572755 -899.00249146 603.47572755 -890.84170812 594.57471311 C-889.18560232 592.92629902 -887.49391097 591.34638644 -885.74868775 589.79287495 C-882.83764024 587.0807699 -880.34660359 584.01296373 -877.80175781 580.96191406 C-876.81210992 579.80460467 -875.82138923 578.64821088 -874.82910156 577.49316406 C-872.2974468 574.51740508 -869.82416138 571.49735832 -867.36425781 568.46191406 C-863.80907877 564.08039611 -860.08406244 559.89480725 -856.28613281 555.72363281 C-854.05041248 553.21040174 -851.91798099 550.63879927 -849.80175781 548.02441406 C-844.58657266 541.58479413 -839.1384403 535.35736003 -833.69824219 529.10839844 C-831.11538398 526.13336247 -828.5511535 523.14250323 -825.98925781 520.14941406 C-825.4990918 519.57674805 -825.00892578 519.00408203 -824.50390625 518.4140625 C-823.51586922 517.25950968 -822.52791333 516.1048874 -821.54003906 514.95019531 C-820.03503732 513.19238488 -818.52808079 511.43626961 -817.02050781 509.68066406 C-812.17825598 504.04058989 -807.34800768 498.3911844 -802.55175781 492.71191406 C-796.25267375 485.25312808 -789.8918101 477.84776172 -783.53125 470.44140625 C-778.18489676 464.21488167 -772.84697951 457.98202016 -767.55175781 451.71191406 C-761.25267375 444.25312808 -754.8918101 436.84776172 -748.53125 429.44140625 C-743.18489676 423.21488167 -737.84697951 416.98202016 -732.55175781 410.71191406 C-728.75645837 406.21787557 -724.94384898 401.73927194 -721.11425781 397.27441406 C-720.61756592 396.69522217 -720.12087402 396.11603027 -719.60913086 395.51928711 C-717.05665363 392.54435365 -714.501058 389.57214326 -711.94238281 386.60253906 C-707.35339871 381.27070772 -702.79297947 375.92861736 -698.36425781 370.46191406 C-694.80907877 366.08039611 -691.08406244 361.89480725 -687.28613281 357.72363281 C-685.05041248 355.21040174 -682.91798099 352.63879927 -680.80175781 350.02441406 C-675.58657266 343.58479413 -670.1384403 337.35736003 -664.69824219 331.10839844 C-662.11538398 328.13336247 -659.5511535 325.14250323 -656.98925781 322.14941406 C-656.4990918 321.57674805 -656.00892578 321.00408203 -655.50390625 320.4140625 C-654.51586922 319.25950968 -653.52791333 318.1048874 -652.54003906 316.95019531 C-651.03503732 315.19238488 -649.52808079 313.43626961 -648.02050781 311.68066406 C-643.635395 306.57304835 -639.25211363 301.46428834 -634.91137695 296.31884766 C-634.00434084 295.24682185 -633.09335305 294.17812718 -632.1784668 293.11279297 C-629.81215854 290.34909263 -627.53960931 287.55471557 -625.36425781 284.63769531 C-620.30928656 278.02816453 -615.45955884 273.38353205 -607.9609375 269.69799805 C-606.74086061 269.07710249 -606.74086061 269.07710249 -605.49613571 268.4436636 C-602.68803085 267.01941602 -599.86993343 265.61611899 -597.05175781 264.21191406 C-594.8899304 263.12101705 -592.72870247 262.02893147 -590.56799316 260.93582153 C-583.73298123 257.48460129 -576.88566292 254.05833908 -570.03577518 250.63676 C-566.57066562 248.90549596 -563.10655498 247.17223496 -559.64227295 245.4393158 C-553.8270104 242.53078151 -548.01091907 239.62390992 -542.19433594 236.71801758 C-535.53635931 233.3917444 -528.87982321 230.06260248 -522.22403455 226.73195368 C-516.44319437 223.83923989 -510.66155154 220.94813502 -504.87927508 218.05829328 C-501.45506921 216.34695707 -498.03111102 214.63513119 -494.60788727 212.92183113 C-491.38118953 211.30700147 -488.1534647 209.69424129 -484.92504501 208.08285713 C-483.22451497 207.23353277 -481.52492789 206.38232112 -479.82540894 205.53097534 C-472.63462797 201.94496207 -465.39944793 198.46311648 -458.14447021 195.00926208 C-446.19292077 189.3131225 -434.34419997 183.42211666 -422.50878906 177.48925781 C-420.25711942 176.36246011 -418.00535669 175.2358484 -415.75350952 174.10940552 C-410.95426414 171.70821825 -406.15561641 169.30584336 -401.35751343 166.90237427 C-394.39592268 163.41521812 -387.432978 159.93077206 -380.46969426 156.446998 C-369.13208062 150.77467794 -357.7952163 145.10086214 -346.45898438 139.42578125 C-345.78420142 139.08797587 -345.10941847 138.75017049 -344.41418755 138.40212858 C-339.62669064 136.00543102 -334.83922104 133.6086789 -330.05175781 131.21191406 C-324.58270115 128.47392066 -319.1136321 125.735952 -313.64453125 122.99804688 C-312.97059519 122.66066478 -312.29665913 122.32328269 -311.60230076 121.97567689 C-300.30093347 116.31811244 -288.9987573 110.66216568 -277.69602108 105.00733662 C-270.76341135 101.53881338 -263.83150688 98.06888841 -256.90056396 94.59703565 C-251.57374254 91.92885131 -246.24586234 89.26278793 -240.91762161 86.59743881 C-238.75640137 85.51590449 -236.59552197 84.43368869 -234.43503952 83.3506813 C-233.42719028 82.84550854 -232.41934105 82.34033577 -231.38095093 81.81985474 C-230.51307135 81.38456514 -229.64519176 80.94927555 -228.7510128 80.50079536 C-227.66843004 79.96081854 -226.58584728 79.42084171 -225.47045898 78.86450195 C-224.63700758 78.44701662 -223.80355618 78.02953128 -222.94484867 77.59939487 C-218.19761347 75.23251926 -213.43968872 72.90965114 -208.61469436 70.70510364 C-197.20116453 65.46663709 -186.62730876 59.64465163 -176.12662172 52.77273417 C-119.62887798 15.86427813 -67.00472638 1.58408325 0 0 Z " fill="#2D72B7" transform="translate(897.0517578125,-7.2119140625)"/>
<path d="M0 0 C0 892.65 0 1785.3 0 2705 C-21.82628816 2694.66123192 -21.82628816 2694.66123192 -29.3997736 2690.87839699 C-30.29327824 2690.43401917 -31.18678289 2689.98964134 -32.10736343 2689.53179753 C-35.0333975 2688.07598638 -37.95812439 2686.61757053 -40.88282776 2685.15908813 C-43.02867269 2684.09069077 -45.17459287 2683.02244453 -47.3205809 2681.95433462 C-52.55570866 2679.34810949 -57.78994935 2676.74010959 -63.02376942 2674.13125948 C-67.3761522 2671.96183634 -71.7289739 2669.793296 -76.08205986 2667.62528419 C-124.18548164 2643.66765581 -172.27183625 2619.67575523 -220.35303915 2595.67357094 C-227.30112796 2592.20509584 -234.24930281 2588.73679311 -241.19750977 2585.26855469 C-241.96515585 2584.88537476 -242.73280194 2584.50219483 -243.52371002 2584.10740338 C-268.4437714 2571.6683956 -293.3720893 2559.24604375 -318.30489472 2546.8326025 C-343.97546743 2534.05174525 -369.6381729 2521.25523133 -395.29089827 2508.43858681 C-398.91411743 2506.62835584 -402.53742308 2504.81829805 -406.16077995 2503.00834274 C-406.87379416 2502.65216692 -407.58680838 2502.29599111 -408.32142908 2501.92902208 C-419.78146397 2496.20488922 -431.24959945 2490.49717344 -442.72084659 2484.79554951 C-454.24665734 2479.06634842 -465.76357499 2473.31958876 -477.27168883 2467.55492045 C-484.10303483 2464.13360529 -490.94070894 2460.72575449 -497.78830038 2457.33706667 C-502.90625173 2454.80247798 -508.01132071 2452.2428044 -513.11184894 2449.67336254 C-515.17253124 2448.64014436 -517.23728189 2447.61499113 -519.30646569 2446.59890564 C-530.56963253 2441.06207851 -539.38818599 2436.24177637 -547 2426 C-548.43259772 2424.2459846 -549.86954642 2422.495506 -551.3125 2420.75 C-552.0446875 2419.84378906 -552.776875 2418.93757813 -553.53125 2418.00390625 C-558.02422836 2412.5369753 -562.70746063 2407.23324209 -567.35351562 2401.89648438 C-571.4317253 2397.19904477 -575.46772568 2392.46516497 -579.51171875 2387.73828125 C-581.01672049 2385.98047082 -582.52367703 2384.22435554 -584.03125 2382.46875 C-589.33054426 2376.29632987 -594.6089737 2370.10738929 -599.85791016 2363.89208984 C-603.20206184 2359.93534221 -606.56467211 2355.99482501 -609.9375 2352.0625 C-610.43419189 2351.48330811 -610.93088379 2350.90411621 -611.44262695 2350.30737305 C-613.99510418 2347.33243959 -616.55069982 2344.3602292 -619.109375 2341.390625 C-623.6983591 2336.05879366 -628.25877834 2330.71670329 -632.6875 2325.25 C-636.24267904 2320.86848205 -639.96769537 2316.68289319 -643.765625 2312.51171875 C-646.00134533 2309.99848768 -648.13377682 2307.42688521 -650.25 2304.8125 C-655.46518515 2298.37288007 -660.91331752 2292.14544597 -666.35351562 2285.89648438 C-670.42902525 2281.20215479 -674.46183847 2276.47101259 -678.50292969 2271.74707031 C-680.03286759 2269.96164376 -681.56670801 2268.17963855 -683.1015625 2266.3984375 C-687.69377135 2261.06449936 -692.25644957 2255.71957787 -696.6875 2250.25 C-700.24267904 2245.86848205 -703.96769537 2241.68289319 -707.765625 2237.51171875 C-710.00134533 2234.99848768 -712.13377682 2232.42688521 -714.25 2229.8125 C-719.46386438 2223.37451094 -724.91041253 2217.14836434 -730.34912109 2210.90087891 C-737.25089085 2202.95394318 -744.06687286 2194.93322101 -750.8581543 2186.8918457 C-756.20486451 2180.56552711 -761.60347353 2174.28381663 -767 2168 C-773.31088314 2160.65148932 -779.6080438 2153.29259683 -785.85791016 2145.89208984 C-792.28887245 2138.2830765 -798.7894238 2130.73340062 -805.28515625 2123.1796875 C-806.09255249 2122.23984009 -806.09255249 2122.23984009 -806.91625977 2121.28100586 C-807.94075056 2120.08847772 -808.96593235 2118.89654271 -809.99194336 2117.70532227 C-810.45866455 2117.16190186 -810.92538574 2116.61848145 -811.40625 2116.05859375 C-811.81166016 2115.58736084 -812.21707031 2115.11612793 -812.63476562 2114.63061523 C-813.31055664 2113.82346069 -813.31055664 2113.82346069 -814 2113 C-814.67760306 2112.35377968 -815.35520612 2111.70755935 -816.05334261 2111.04175659 C-818.87493418 2106.63286841 -818.5561728 2102.83574043 -818.51175267 2097.70127928 C-818.52184368 2096.11952766 -818.52184368 2096.11952766 -818.53213856 2094.50582146 C-818.54993412 2090.94140285 -818.53905396 2087.37763572 -818.52850437 2083.81319618 C-818.53540259 2081.23329585 -818.54404866 2078.65339969 -818.55429265 2076.07351047 C-818.57382837 2070.43066072 -818.57839968 2064.78794955 -818.57335687 2059.14507051 C-818.56586882 2050.69734749 -818.5812616 2042.24977263 -818.60113203 2033.8020752 C-818.63429341 2019.40612386 -818.64823954 2005.01021002 -818.65177917 1990.61422348 C-818.65541244 1976.01942156 -818.66759805 1961.42466498 -818.69024467 1946.82987976 C-818.69166569 1945.90901296 -818.6930867 1944.98814615 -818.69455078 1944.03937429 C-818.70035899 1940.28897939 -818.70621662 1936.53858456 -818.71214012 1932.78818984 C-818.78218548 1888.35857409 -818.81226503 1843.92896285 -818.83533242 1799.49930195 C-818.84685364 1777.37958522 -818.86338068 1755.25987343 -818.88075578 1733.14016064 C-818.9364096 1662.20502724 -818.98376812 1591.26989319 -819.0012474 1520.33473914 C-819.00236359 1515.81170289 -819.00350739 1511.28866666 -819.00464983 1506.76563042 C-819.00550802 1503.36597365 -819.00636256 1499.96631687 -819.0072161 1496.5666601 C-819.00978672 1486.33405402 -819.0123704 1476.10144796 -819.0149955 1465.8688419 C-819.01557799 1463.58980845 -819.0161561 1461.310775 -819.01672983 1459.03174155 C-819.03516884 1385.83346627 -819.10278842 1312.63537062 -819.20521949 1239.43716692 C-819.27878236 1186.84828615 -819.34676367 1134.25943979 -819.36743069 1081.67050743 C-819.36785817 1080.58915437 -819.36828564 1079.50780131 -819.36872608 1078.39367998 C-819.37796776 1054.6559858 -819.383487 1030.9182921 -819.38553938 1007.18059625 C-819.38631674 998.68683388 -819.38741376 990.19307154 -819.38868437 981.69930923 C-819.38900009 979.58623009 -819.3893019 977.47315095 -819.38958974 975.3600718 C-819.3943666 941.67878177 -819.43852403 907.99768632 -819.50272336 874.31646152 C-819.56713509 840.39299279 -819.59018229 806.46975851 -819.55638697 772.54623786 C-819.55172235 767.85886918 -819.54751233 763.1715002 -819.54357338 758.48413086 C-819.54278363 757.5652735 -819.54199388 756.64641614 -819.54118019 755.69971461 C-819.5298631 741.14802628 -819.56222282 726.59677584 -819.61276903 712.04518469 C-819.66156086 697.73748786 -819.66400512 683.43040611 -819.61711024 669.12269615 C-819.59100471 660.73353217 -819.60041574 652.34623106 -819.66250332 643.95724584 C-819.70462691 637.72834467 -819.67889147 631.50145215 -819.62678499 625.27266518 C-819.61632557 622.76903986 -819.62766869 620.26520447 -819.66346617 617.76181323 C-819.95073365 596.26381349 -819.95073365 596.26381349 -811.78995031 587.36279905 C-810.13384451 585.71438496 -808.44215315 584.13447238 -806.69692994 582.58096089 C-803.78588242 579.86885583 -801.29484578 576.80104967 -798.75 573.75 C-797.76035211 572.59269061 -796.76963142 571.43629682 -795.77734375 570.28125 C-793.24568899 567.30549102 -790.77240356 564.28544426 -788.3125 561.25 C-784.75732096 556.86848205 -781.03230463 552.68289319 -777.234375 548.51171875 C-774.99865467 545.99848768 -772.86622318 543.42688521 -770.75 540.8125 C-765.53481485 534.37288007 -760.08668248 528.14544597 -754.64648438 521.89648438 C-752.06362617 518.92144841 -749.49939568 515.93058917 -746.9375 512.9375 C-746.44733398 512.36483398 -745.95716797 511.79216797 -745.45214844 511.20214844 C-744.4641114 510.04759562 -743.47615552 508.89297334 -742.48828125 507.73828125 C-740.98327951 505.98047082 -739.47632297 504.22435554 -737.96875 502.46875 C-733.12649817 496.82867582 -728.29624986 491.17927033 -723.5 485.5 C-717.20091594 478.04121402 -710.84005229 470.63584766 -704.47949219 463.22949219 C-699.13313895 457.00296761 -693.7952217 450.7701061 -688.5 444.5 C-682.20091594 437.04121402 -675.84005229 429.63584766 -669.47949219 422.22949219 C-664.13313895 416.00296761 -658.7952217 409.7701061 -653.5 403.5 C-649.70470056 399.00596151 -645.89209117 394.52735788 -642.0625 390.0625 C-641.56580811 389.48330811 -641.06911621 388.90411621 -640.55737305 388.30737305 C-638.00489582 385.33243959 -635.44930018 382.3602292 -632.890625 379.390625 C-628.3016409 374.05879366 -623.74122166 368.71670329 -619.3125 363.25 C-615.75732096 358.86848205 -612.03230463 354.68289319 -608.234375 350.51171875 C-605.99865467 347.99848768 -603.86622318 345.42688521 -601.75 342.8125 C-596.53481485 336.37288007 -591.08668248 330.14544597 -585.64648438 323.89648438 C-583.06362617 320.92144841 -580.49939568 317.93058917 -577.9375 314.9375 C-577.44733398 314.36483398 -576.95716797 313.79216797 -576.45214844 313.20214844 C-575.4641114 312.04759562 -574.47615552 310.89297334 -573.48828125 309.73828125 C-571.98327951 307.98047082 -570.47632297 306.22435554 -568.96875 304.46875 C-564.58363719 299.36113429 -560.20035582 294.25237428 -555.85961914 289.10693359 C-554.95258303 288.03490779 -554.04159524 286.96621312 -553.12670898 285.90087891 C-550.76040073 283.13717857 -548.4878515 280.3428015 -546.3125 277.42578125 C-541.25752875 270.81625047 -536.40780103 266.17161799 -528.90917969 262.48608398 C-527.6891028 261.86518843 -527.6891028 261.86518843 -526.4443779 261.23174953 C-523.63627304 259.80750196 -520.81817562 258.40420493 -518 257 C-515.83817259 255.90910299 -513.67694465 254.81701741 -511.51623535 253.72390747 C-504.68122342 250.27268722 -497.83390511 246.84642502 -490.98401737 243.42484593 C-487.5189078 241.69358189 -484.05479717 239.9603209 -480.59051514 238.22740173 C-474.77525259 235.31886744 -468.95916125 232.41199586 -463.14257812 229.50610352 C-456.4846015 226.17983034 -449.8280654 222.85068841 -443.17227674 219.52003962 C-437.39143656 216.62732583 -431.60979372 213.73622096 -425.82751727 210.84637922 C-422.4033114 209.13504301 -418.97935321 207.42321712 -415.55612946 205.70991707 C-412.32943172 204.09508741 -409.10170689 202.48232722 -405.8732872 200.87094307 C-404.17275716 200.0216187 -402.47317008 199.17040706 -400.77365112 198.31906128 C-393.58287016 194.73304801 -386.34769012 191.25120241 -379.0927124 187.79734802 C-367.14116296 182.10120843 -355.29244215 176.2102026 -343.45703125 170.27734375 C-341.20536161 169.15054604 -338.95359888 168.02393434 -336.70175171 166.89749146 C-331.90250633 164.49630419 -327.1038586 162.0939293 -322.30575562 159.69046021 C-315.34416486 156.20330405 -308.38122019 152.718858 -301.41793644 149.23508394 C-290.08032281 143.56276388 -278.74345849 137.88894808 -267.40722656 132.21386719 C-266.73244361 131.87606181 -266.05766066 131.53825642 -265.36242974 131.19021451 C-260.57493283 128.79351696 -255.78746323 126.39676484 -251 124 C-245.53094334 121.2620066 -240.06187429 118.52403794 -234.59277344 115.78613281 C-233.91883738 115.44875072 -233.24490132 115.11136863 -232.55054295 114.76376283 C-221.24917566 109.10619837 -209.94699949 103.45025162 -198.64426327 97.79542255 C-191.71165354 94.32689932 -184.77974907 90.85697435 -177.84880614 87.38512158 C-172.52198472 84.71693725 -167.19410453 82.05087387 -161.8658638 79.38552475 C-159.70464356 78.30399042 -157.54376416 77.22177463 -155.38328171 76.13876724 C-143.60469707 70.23488798 -131.78713549 64.4295744 -119.89095289 58.76606148 C-112.99715791 55.48356734 -106.14272187 52.13662313 -99.32299805 48.70239258 C-98.24995926 48.1643399 -97.17692047 47.62628723 -96.07136536 47.07192993 C-93.79971584 45.93259516 -91.52852569 44.79234403 -89.2577877 43.65119362 C-85.66501919 41.84594283 -82.0707666 40.04367935 -78.47602844 38.24235535 C-68.27664183 33.13075017 -58.07982996 28.01402101 -47.88452148 22.89428711 C-42.20660845 20.04307538 -36.5272716 17.19472015 -30.84638435 14.34943885 C-27.85644597 12.85173965 -24.86756419 11.35201414 -21.8800106 9.84955788 C-18.57503625 8.1875292 -15.26767624 6.530345 -11.9597168 4.87426758 C-10.48183182 4.12875389 -10.48183182 4.12875389 -8.97409058 3.36817932 C-8.07902298 2.92129761 -7.18395538 2.47441589 -6.26176453 2.01399231 C-5.48230311 1.6226904 -4.7028417 1.23138849 -3.89976025 0.82822895 C-2 0 -2 0 0 0 Z " fill="#1E5A97" transform="translate(818,0)"/>
<path d="M0 0 C4.01736927 1.33912309 7.34057391 2.54642172 11.04649353 4.40635681 C12.01437302 4.88964447 12.9822525 5.37293213 13.97946167 5.87086487 C15.02514313 6.3980864 16.07082458 6.92530792 17.14819336 7.46850586 C18.26304611 8.02658936 19.37789886 8.58467285 20.52653503 9.15966797 C22.94677947 10.37192021 25.36624327 11.58559816 27.78449821 12.80180168 C31.63280851 14.73717069 35.48400482 16.66674796 39.33558655 18.59559631 C45.45418051 21.66058255 51.57089827 24.72929178 57.68679768 27.79965073 C68.5670839 33.26185765 79.44945275 38.71990727 90.33409792 44.17342287 C94.13558106 46.0782885 97.93592938 47.98539183 101.73528278 49.89450157 C103.55095272 50.80646059 105.36712185 51.71741711 107.18348694 52.62799072 C109.36199121 53.72016102 111.53978811 54.81374463 113.71655273 55.90937805 C120.72583772 59.41924967 127.78512879 62.81255523 134.86280823 66.18190002 C146.82928368 71.88482337 158.69290431 77.78245187 170.54296875 83.72265625 C172.79463839 84.84945396 175.04640112 85.97606566 177.29824829 87.10250854 C182.09749367 89.50369581 186.8961414 91.9060707 191.69424438 94.30953979 C198.65583514 97.79669595 205.61877981 101.281142 212.58206356 104.76491606 C223.91967719 110.43723612 235.25654151 116.11105192 246.59277344 121.78613281 C247.26755639 122.12393819 247.94233934 122.46174358 248.63757026 122.80978549 C254.10994812 125.5493454 259.58228902 128.28897913 265.05462837 131.02861595 C269.83881048 133.42373423 274.62300737 135.81882299 279.40722656 138.21386719 C280.08116262 138.55124928 280.75509868 138.88863137 281.44945705 139.23623717 C292.75082434 144.89380163 304.05300051 150.54974838 315.35573673 156.20457745 C322.28834646 159.67310068 329.22025093 163.14302565 336.15119386 166.61487842 C341.47801528 169.28306275 346.80589547 171.94912613 352.1341362 174.61447525 C354.29535644 175.69600958 356.45623584 176.77822537 358.61671829 177.86123276 C371.28146908 184.20929255 383.99983483 190.42584964 396.79115868 196.51486206 C403.47245842 199.69672535 410.11675178 202.95024639 416.75317383 206.22460938 C418.06049648 206.86852501 419.36784504 207.51238804 420.67521667 208.15620422 C432.38975177 213.92834201 444.0896243 219.73019821 455.78519154 225.54065704 C463.60272827 229.42391657 471.42467744 233.29770892 479.25805664 237.14892578 C486.16252946 240.54346166 493.05826719 243.95502668 499.94411677 247.38719225 C503.56665968 249.19212664 507.19273675 250.98881974 510.82944679 252.76506042 C514.24101443 254.43171473 517.64026374 256.12127099 521.03187752 257.82814598 C522.84908276 258.73550895 524.67806949 259.61916034 526.50747681 260.50166321 C534.75491087 264.69215266 540.21670581 269.82792136 546 277 C546.79912717 277.97230812 547.59825434 278.94461624 548.42159748 279.94638824 C549.88231674 281.73133865 551.33657501 283.52159118 552.78515625 285.31640625 C554.95632827 287.94708557 557.20241357 290.47942424 559.5 293 C562.52282421 296.31989486 565.42512161 299.69764112 568.25 303.1875 C573.46518515 309.62711993 578.91331752 315.85455403 584.35351562 322.10351562 C588.42902525 326.79784521 592.46183847 331.52898741 596.50292969 336.25292969 C598.03286759 338.03835624 599.56670801 339.82036145 601.1015625 341.6015625 C605.69377135 346.93550064 610.25644957 352.28042213 614.6875 357.75 C618.23745321 362.12507747 621.95563821 366.30549192 625.75 370.46875 C628.86932876 373.97799486 631.79749133 377.63162123 634.75 381.28125 C636.93501569 383.92147729 639.19171391 386.4672972 641.5 389 C644.52282421 392.31989486 647.42512161 395.69764112 650.25 399.1875 C655.46386438 405.62548906 660.91041253 411.85163566 666.34912109 418.09912109 C673.25089085 426.04605682 680.06687286 434.06677899 686.8581543 442.1081543 C692.20486451 448.43447289 697.60347353 454.71618337 703 461 C709.31088314 468.34851068 715.6080438 475.70740317 721.85791016 483.10791016 C727.20478107 489.43424365 732.60339832 495.71609579 738 502 C744.31088314 509.34851068 750.6080438 516.70740317 756.85791016 524.10791016 C762.20478107 530.43424365 767.60339832 536.71609579 773 543 C779.30952951 550.34693449 785.6068243 557.70303427 791.85351562 565.10351562 C795.68124617 569.63418664 799.53939037 574.13831803 803.4140625 578.62890625 C804.34541638 579.71150563 805.25970756 580.80897193 806.1581619 581.91902654 C808.00683621 584.10242609 808.00683621 584.10242609 810.45691395 586.1132826 C817.14647771 592.53287141 818.93205442 597.93703189 819.25694364 607.16811019 C819.34782564 611.79687691 819.3121066 616.41899555 819.26679134 621.04813862 C819.27813755 623.63621443 819.29386097 626.22427409 819.31355861 628.81229982 C819.34938351 634.45154098 819.34818692 640.08982852 819.32265597 645.72911177 C819.28461807 654.1711342 819.30438257 662.61235638 819.33523058 671.05437311 C819.38610813 685.44308074 819.38950856 699.83145058 819.36701202 714.22021484 C819.34437661 728.80084839 819.34342297 743.38124245 819.36889076 757.96187401 C819.37048393 758.88294166 819.3720771 759.80400931 819.37371854 760.7529881 C819.38027638 764.50438506 819.38698441 768.25578172 819.39388404 772.00717808 C819.46385326 810.08915967 819.46938766 848.17096167 819.44981195 886.25299017 C819.44712755 891.51517389 819.44453917 896.77735766 819.44204974 902.03954148 C819.44155442 903.08473144 819.4410591 904.12992141 819.44054876 905.20678379 C819.43001265 928.36718538 819.43946025 951.52756596 819.45310883 974.6879643 C819.45497549 977.85748822 819.45679816 981.02701215 819.45860724 984.1965361 C819.46346253 992.69289608 819.46836192 1001.18925604 819.47334602 1009.68561595 C819.50790815 1069.00020004 819.52239558 1128.31476423 819.49487209 1187.62935352 C819.49435693 1188.74751265 819.49384176 1189.86567178 819.49331098 1191.01771452 C819.48754774 1203.48648447 819.48147868 1215.95525427 819.47528958 1228.42402402 C819.47473099 1229.54977862 819.4741724 1230.67553322 819.47359688 1231.83540159 C819.47133618 1236.38804563 819.46907539 1240.94068968 819.46679435 1245.49333371 C819.43076212 1317.50615204 819.45429054 1389.51870814 819.5300293 1461.53149414 C819.54908053 1479.67726758 819.56796619 1497.82304115 819.58582973 1515.9688158 C819.58693149 1517.08610455 819.58803325 1518.20339331 819.5891684 1519.35453929 C819.62290395 1553.78604996 819.64060287 1588.21753872 819.64135075 1622.64906597 C819.64138789 1624.27039081 819.64138789 1624.27039081 819.64142578 1625.92446968 C819.64179816 1649.65150593 819.63814643 1673.37854023 819.63082929 1697.1055753 C819.62823582 1705.59531797 819.62588813 1714.08506071 819.62363812 1722.57480348 C819.62307266 1724.68685183 819.62249093 1726.79890018 819.62189288 1728.91094852 C819.61245461 1762.57248954 819.63955667 1796.23387551 819.68430534 1829.89538412 C819.73027335 1864.73714751 819.72793917 1899.57861149 819.67064988 1934.42036203 C819.66468492 1938.16154868 819.65892766 1941.90273559 819.65333366 1945.64392281 C819.65194195 1946.56207788 819.65055024 1947.48023296 819.64911636 1948.42621092 C819.6282476 1962.96660758 819.65093999 1977.50659608 819.69173027 1992.04693675 C819.73091654 2006.34338191 819.72369457 2020.63917955 819.66705524 2034.93557301 C819.63522686 2043.31793196 819.6388369 2051.69845679 819.69502678 2060.08069819 C819.7327681 2066.30455217 819.70268299 2072.52635038 819.64623295 2078.75002411 C819.63401539 2081.2515583 819.64357973 2083.75331775 819.67757814 2086.25465074 C819.94937834 2107.73448243 819.94937834 2107.73448243 811.78109032 2116.64379138 C810.12433991 2118.29326285 808.43221142 2119.87449326 806.68632968 2121.42906951 C803.82095476 2124.09836062 801.37472308 2127.11798792 798.875 2130.125 C797.88434687 2131.28516611 796.89234924 2132.44418682 795.8984375 2133.6015625 C792.63275162 2137.42570902 789.38654013 2141.26619812 786.1418457 2145.1081543 C780.29299395 2152.02861531 774.38283437 2158.89654547 768.47949219 2165.77050781 C763.13313895 2171.99703239 757.7952217 2178.2298939 752.5 2184.5 C746.20091594 2191.95878598 739.84005229 2199.36415234 733.47949219 2206.77050781 C728.13313895 2212.99703239 722.7952217 2219.2298939 717.5 2225.5 C711.20091594 2232.95878598 704.84005229 2240.36415234 698.47949219 2247.77050781 C693.13313895 2253.99703239 687.7952217 2260.2298939 682.5 2266.5 C676.20091594 2273.95878598 669.84005229 2281.36415234 663.47949219 2288.77050781 C658.13313895 2294.99703239 652.7952217 2301.2298939 647.5 2307.5 C641.20091594 2314.95878598 634.84005229 2322.36415234 628.47949219 2329.77050781 C623.13313895 2335.99703239 617.7952217 2342.2298939 612.5 2348.5 C606.20091594 2355.95878598 599.84005229 2363.36415234 593.47949219 2370.77050781 C588.13313895 2376.99703239 582.7952217 2383.2298939 577.5 2389.5 C573.70470056 2393.99403849 569.89209117 2398.47264212 566.0625 2402.9375 C565.56580811 2403.51669189 565.06911621 2404.09588379 564.55737305 2404.69262695 C562.00489582 2407.66756041 559.44930018 2410.6397708 556.890625 2413.609375 C556.38039795 2414.20250488 555.8701709 2414.79563477 555.34448242 2415.40673828 C554.33015864 2416.58577855 553.31471125 2417.76385318 552.2980957 2418.94091797 C549.98209684 2421.63433039 547.70699499 2424.34312105 545.52734375 2427.1484375 C544.77582031 2428.11007813 544.02429687 2429.07171875 543.25 2430.0625 C542.61578125 2430.89910156 541.9815625 2431.73570312 541.328125 2432.59765625 C535.96542588 2438.1313139 528.57122062 2441.35930022 521.74120426 2444.75384235 C520.83743505 2445.2070306 519.93366584 2445.66021885 519.00250968 2446.12714007 C515.97817066 2447.64245396 512.9510182 2449.15205759 509.92384338 2450.66169739 C507.73133727 2451.75874472 505.53900633 2452.85614222 503.34683555 2453.95385951 C498.58269598 2456.33846641 493.81732545 2458.72058671 489.0508461 2461.10051155 C481.96327324 2464.63938253 474.87800193 2468.18284269 467.79318104 2471.72721923 C455.87404191 2477.68992434 443.95301918 2483.64885434 432.0308857 2489.60556984 C420.22757518 2495.5029181 408.42500764 2501.40174878 396.62345695 2507.30261803 C395.8893882 2507.66965623 395.15531945 2508.03669442 394.39900619 2508.41485499 C391.41930035 2509.90472837 388.43959946 2511.39461162 385.4599053 2512.88450835 C357.5142232 2526.85780234 329.56637349 2540.8267557 301.61743246 2554.79352993 C276.76897907 2567.21093938 251.92200885 2579.63131132 227.07641602 2592.05444336 C225.48001152 2592.85266581 223.88360701 2593.65088825 222.28720248 2594.44911066 C221.49798022 2594.84373197 220.70875796 2595.23835328 219.89561988 2595.6449328 C215.92304572 2597.63127028 211.95046951 2599.61760367 207.97789097 2601.60393238 C207.19421343 2601.99577951 206.41053589 2602.38762663 205.60311054 2602.79134792 C184.85490237 2613.1656344 164.10571464 2623.53796129 143.35619205 2633.90961856 C142.61857737 2634.27831576 141.8809627 2634.64701296 141.12099606 2635.02688281 C138.15472079 2636.50957631 135.1884455 2637.99226977 132.22216502 2639.47495285 C121.88719788 2644.64085441 111.55256254 2649.8074192 101.21813979 2654.97440972 C87.90873764 2661.62881281 74.59866151 2668.28186476 61.28740645 2674.93256066 C54.24166933 2678.45286419 47.19648223 2681.97426309 40.15207395 2685.497225 C34.90705995 2688.1201402 29.66100997 2690.74097822 24.41453468 2693.36096939 C22.28117716 2694.42673568 20.14816275 2695.49318911 18.01551015 2696.5603653 C15.13722051 2698.0005309 12.2577346 2699.43827472 9.37790775 2700.87536335 C8.53251846 2701.29908565 7.68712917 2701.72280796 6.81612203 2702.15937033 C1.11415498 2705 1.11415498 2705 0 2705 C0 1812.35 0 919.7 0 0 Z " fill="#5193CE" transform="translate(1582,0)"/>
<path d="M0 0 C0.33 0 0.66 0 1 0 C1 715.44 1 1430.88 1 2168 C-6.9864206 2160.0135794 -14.48168762 2151.75834744 -21.56640625 2142.96875 C-26.04200563 2137.50894979 -30.71834734 2132.22073691 -35.35351562 2126.89648438 C-39.42902525 2122.20215479 -43.46183847 2117.47101259 -47.50292969 2112.74707031 C-49.03286759 2110.96164376 -50.56670801 2109.17963855 -52.1015625 2107.3984375 C-56.69377135 2102.06449936 -61.25644957 2096.71957787 -65.6875 2091.25 C-69.24267904 2086.86848205 -72.96769537 2082.68289319 -76.765625 2078.51171875 C-79.00134533 2075.99848768 -81.13377682 2073.42688521 -83.25 2070.8125 C-88.46386438 2064.37451094 -93.91041253 2058.14836434 -99.34912109 2051.90087891 C-106.25089085 2043.95394318 -113.06687286 2035.93322101 -119.8581543 2027.8918457 C-125.20486451 2021.56552711 -130.60347353 2015.28381663 -136 2009 C-142.31088314 2001.65148932 -148.6080438 1994.29259683 -154.85791016 1986.89208984 C-158.20206184 1982.93534221 -161.56467211 1978.99482501 -164.9375 1975.0625 C-165.68253784 1974.19371216 -165.68253784 1974.19371216 -166.44262695 1973.30737305 C-168.99510418 1970.33243959 -171.55069982 1967.3602292 -174.109375 1964.390625 C-178.6983591 1959.05879366 -183.25877834 1953.71670329 -187.6875 1948.25 C-191.24267904 1943.86848205 -194.96769537 1939.68289319 -198.765625 1935.51171875 C-201.00134533 1932.99848768 -203.13377682 1930.42688521 -205.25 1927.8125 C-210.46518515 1921.37288007 -215.91331752 1915.14544597 -221.35351562 1908.89648438 C-225.42902525 1904.20215479 -229.46183847 1899.47101259 -233.50292969 1894.74707031 C-235.03286759 1892.96164376 -236.56670801 1891.17963855 -238.1015625 1889.3984375 C-242.69377135 1884.06449936 -247.25644957 1878.71957787 -251.6875 1873.25 C-255.23395116 1868.87923857 -258.94863592 1864.70298081 -262.73828125 1860.54296875 C-265.86050569 1857.03248843 -268.81445478 1853.3959968 -271.76171875 1849.73828125 C-273.7912455 1847.13814392 -273.7912455 1847.13814392 -275.50435814 1845.57213683 C-279.69251806 1841.39436943 -280.70077268 1838.27601769 -280.8011118 1832.41487257 C-280.78759429 1831.43741578 -280.77407679 1830.45995899 -280.76014966 1829.45288229 C-280.76943318 1828.39582504 -280.77871669 1827.33876778 -280.78828153 1826.24967849 C-280.81218299 1822.68832023 -280.79319825 1819.1284723 -280.77460003 1815.56710052 C-280.78297931 1812.98486476 -280.79398302 1810.40263641 -280.8073813 1807.82042181 C-280.83236609 1802.17861885 -280.83497705 1796.53714489 -280.82312324 1790.89530414 C-280.80547887 1782.44921617 -280.82229413 1774.00343677 -280.84583155 1765.55737568 C-280.88490959 1751.16350176 -280.89531952 1736.76973287 -280.89019012 1722.37581253 C-280.88507403 1707.78505967 -280.89287093 1693.19440005 -280.91646004 1678.6036644 C-280.91793844 1677.68274021 -280.91941683 1676.76181602 -280.92094003 1675.81298504 C-280.9269981 1672.06230383 -280.9331392 1668.31162276 -280.93938809 1664.56094186 C-281.00451315 1625.41191533 -281.02688075 1586.26293617 -281.03408369 1547.11386138 C-281.03486637 1542.89838365 -281.03566396 1538.68290593 -281.03647399 1534.46742821 C-281.03676961 1532.89834501 -281.03676961 1532.89834501 -281.0370712 1531.29756316 C-281.04160873 1508.12734614 -281.05652402 1484.95713941 -281.07319468 1461.78692839 C-281.0800315 1452.24915482 -281.08662263 1442.71138107 -281.09324533 1433.17360735 C-281.09434523 1431.59288463 -281.09434523 1431.59288463 -281.09546736 1429.98022812 C-281.13739395 1369.58058958 -281.165744 1309.18095714 -281.16634655 1248.78130341 C-281.16637806 1246.52034954 -281.16641013 1244.25939568 -281.16644275 1241.99844182 C-281.16657696 1231.79019949 -281.16662966 1221.58195716 -281.16666557 1211.37371483 C-281.16668268 1206.82151156 -281.16670698 1202.26930829 -281.16673238 1197.71710502 C-281.16674283 1195.43864336 -281.16674914 1193.16018171 -281.16675134 1190.88172005 C-281.16684479 1118.83544758 -281.21783834 1046.78937553 -281.31030273 974.74316406 C-281.33358832 956.5921917 -281.35666333 938.44121913 -281.37858105 920.29024506 C-281.37993072 919.17264642 -281.38128039 918.05504778 -281.38267096 916.90358251 C-281.42401479 882.46212431 -281.44946349 848.02068249 -281.45873737 813.57920074 C-281.45903061 812.49798193 -281.45932385 811.41676311 -281.45962598 810.30278008 C-281.46591121 786.56813098 -281.46837346 762.83348282 -281.46730268 739.09883295 C-281.46695643 730.60621907 -281.46690521 722.11360519 -281.46700229 713.62099131 C-281.46702428 711.50820668 -281.46703157 709.39542205 -281.46702412 707.28263743 C-281.46706231 673.60699145 -281.50553477 639.93152646 -281.56325069 606.25593419 C-281.62109989 572.33941899 -281.63712789 538.42314751 -281.59602453 504.5066003 C-281.59034763 499.82024864 -281.58512059 495.13389657 -281.58016014 490.4475441 C-281.57916974 489.52888739 -281.57817933 488.61023068 -281.57715892 487.66373589 C-281.56265791 473.11527489 -281.5917952 458.56724185 -281.63908944 444.01886427 C-281.68467942 429.71438069 -281.68390158 415.41052296 -281.63375858 401.10604782 C-281.6057454 392.7188296 -281.61322281 384.33346458 -281.67334447 375.94640469 C-281.71400731 369.7189438 -281.68682199 363.4935072 -281.63326764 357.26618253 C-281.62222217 354.76315543 -281.63297238 352.25991322 -281.66817016 349.75710924 C-281.95028185 328.26430727 -281.95028185 328.26430727 -273.78960115 319.36314821 C-272.13356564 317.71468044 -270.44195184 316.13466969 -268.69683992 314.58105091 C-265.78595307 311.86879724 -263.29486281 308.80102167 -260.75 305.75 C-259.76035119 304.5926914 -258.76963038 303.43629771 -257.77734375 302.28125 C-255.24568899 299.30549102 -252.77240356 296.28544426 -250.3125 293.25 C-246.75732096 288.86848205 -243.03230463 284.68289319 -239.234375 280.51171875 C-236.99865467 277.99848768 -234.86622318 275.42688521 -232.75 272.8125 C-227.53481485 266.37288007 -222.08668248 260.14544597 -216.64648438 253.89648438 C-214.06362617 250.92144841 -211.49939568 247.93058917 -208.9375 244.9375 C-208.44733398 244.36483398 -207.95716797 243.79216797 -207.45214844 243.20214844 C-206.4641114 242.04759562 -205.47615552 240.89297334 -204.48828125 239.73828125 C-202.98327951 237.98047082 -201.47632297 236.22435554 -199.96875 234.46875 C-195.12649817 228.82867582 -190.29624986 223.17927033 -185.5 217.5 C-179.20091594 210.04121402 -172.84005229 202.63584766 -166.47949219 195.22949219 C-161.13313895 189.00296761 -155.7952217 182.7701061 -150.5 176.5 C-144.20091594 169.04121402 -137.84005229 161.63584766 -131.47949219 154.22949219 C-126.13313895 148.00296761 -120.7952217 141.7701061 -115.5 135.5 C-111.70470056 131.00596151 -107.89209117 126.52735788 -104.0625 122.0625 C-103.56580811 121.48330811 -103.06911621 120.90411621 -102.55737305 120.30737305 C-100.00489582 117.33243959 -97.44930018 114.3602292 -94.890625 111.390625 C-90.3016409 106.05879366 -85.74122166 100.71670329 -81.3125 95.25 C-77.75732096 90.86848205 -74.03230463 86.68289319 -70.234375 82.51171875 C-67.99865467 79.99848768 -65.86622318 77.42688521 -63.75 74.8125 C-58.53481485 68.37288007 -53.08668248 62.14544597 -47.64648438 55.89648438 C-45.06362617 52.92144841 -42.49939568 49.93058917 -39.9375 46.9375 C-39.44733398 46.36483398 -38.95716797 45.79216797 -38.45214844 45.20214844 C-37.4641114 44.04759562 -36.47615552 42.89297334 -35.48828125 41.73828125 C-33.98327951 39.98047082 -32.47632297 38.22435554 -30.96875 36.46875 C-26.10735626 30.8065089 -21.25680794 25.13562799 -16.4375 19.4375 C-15.9947876 18.91446289 -15.5520752 18.39142578 -15.09594727 17.85253906 C-12.68987374 15.00744575 -10.29227134 12.15554735 -7.90234375 9.296875 C-7.39582275 8.69302979 -6.88930176 8.08918457 -6.36743164 7.46704102 C-5.3889259 6.30029338 -4.4127641 5.13157507 -3.43920898 3.96069336 C-2.31464647 2.6218098 -1.16031038 1.30802517 0 0 Z " fill="#19466E" transform="translate(280,268)"/>
<path d="M0 0 C7.73444823 7.73444823 14.91733383 15.80706564 21.78515625 24.31640625 C23.95632827 26.94708557 26.20241357 29.47942424 28.5 32 C31.52282421 35.31989486 34.42512161 38.69764112 37.25 42.1875 C42.46386438 48.62548906 47.91041253 54.85163566 53.34912109 61.09912109 C60.25089085 69.04605682 67.06687286 77.06677899 73.8581543 85.1081543 C78.70405806 90.84191018 83.5932129 96.53831897 88.48388672 102.23388672 C91.48935434 105.73494192 94.49145815 109.23888345 97.49316406 112.74316406 C100.02685208 115.70051252 102.5634265 118.65529679 105.10546875 121.60546875 C109.69606553 126.93835322 114.25761398 132.28185945 118.6875 137.75 C122.24267904 142.13151795 125.96769537 146.31710681 129.765625 150.48828125 C132.00134533 153.00151232 134.13377682 155.57311479 136.25 158.1875 C141.46518515 164.62711993 146.91331752 170.85455403 152.35351562 177.10351562 C156.4317253 181.80095523 160.46772568 186.53483503 164.51171875 191.26171875 C166.01672049 193.01952918 167.52367703 194.77564446 169.03125 196.53125 C174.33054426 202.70367013 179.6089737 208.89261071 184.85791016 215.10791016 C190.20478107 221.43424365 195.60339832 227.71609579 201 234 C207.31088314 241.34851068 213.6080438 248.70740317 219.85791016 256.10791016 C225.20478107 262.43424365 230.60339832 268.71609579 236 275 C242.30952951 282.34693449 248.6068243 289.70303427 254.85351562 297.10351562 C258.68124617 301.63418664 262.53939037 306.13831803 266.4140625 310.62890625 C267.34541638 311.71150563 268.25970756 312.80897193 269.1581619 313.91902654 C271.00683621 316.10242609 271.00683621 316.10242609 273.45691395 318.1132826 C280.14647771 324.53287141 281.93205442 329.93703189 282.25694364 339.16811019 C282.34782564 343.79687691 282.3121066 348.41899555 282.26679134 353.04813862 C282.27813755 355.63621443 282.29386097 358.22427409 282.31355861 360.81229982 C282.34938351 366.45154098 282.34818692 372.08982852 282.32265597 377.72911177 C282.28461807 386.1711342 282.30438257 394.61235638 282.33523058 403.05437311 C282.38610813 417.44308074 282.38950856 431.83145058 282.36701202 446.22021484 C282.34437661 460.80084839 282.34342297 475.38124245 282.36889076 489.96187401 C282.37048393 490.88294166 282.3720771 491.80400931 282.37371854 492.7529881 C282.38027638 496.50438506 282.38698441 500.25578172 282.39388404 504.00717808 C282.46385326 542.08915967 282.46938766 580.17096167 282.44981195 618.25299017 C282.44712755 623.51517389 282.44453917 628.77735766 282.44204974 634.03954148 C282.44155442 635.08473144 282.4410591 636.12992141 282.44054876 637.20678379 C282.43001265 660.36718538 282.43946025 683.52756596 282.45310883 706.6879643 C282.45497549 709.85748822 282.45679816 713.02701215 282.45860724 716.1965361 C282.46346253 724.69289608 282.46836192 733.18925604 282.47334602 741.68561595 C282.50790815 801.00020004 282.52239558 860.31476423 282.49487209 919.62935352 C282.49435693 920.74751265 282.49384176 921.86567178 282.49331098 923.01771452 C282.48754774 935.48648447 282.48147868 947.95525427 282.47528958 960.42402402 C282.47473099 961.54977862 282.4741724 962.67553322 282.47359688 963.83540159 C282.47133618 968.38804563 282.46907539 972.94068968 282.46679435 977.49333371 C282.43076212 1049.50615204 282.45429054 1121.51870814 282.5300293 1193.53149414 C282.54908053 1211.67726758 282.56796619 1229.82304115 282.58582973 1247.9688158 C282.58748237 1249.64474893 282.58748237 1249.64474893 282.5891684 1251.35453929 C282.62290395 1285.78604996 282.64060287 1320.21753872 282.64135075 1354.64906597 C282.64137551 1355.72994919 282.64140027 1356.81083242 282.64142578 1357.92446968 C282.64179816 1381.65150593 282.63814643 1405.37854023 282.63082929 1429.1055753 C282.62823582 1437.59531797 282.62588813 1446.08506071 282.62363812 1454.57480348 C282.62307266 1456.68685183 282.62249093 1458.79890018 282.62189288 1460.91094852 C282.61245461 1494.57248954 282.63955667 1528.23387551 282.68430534 1561.89538412 C282.73027335 1596.73714751 282.72793917 1631.57861149 282.67064988 1666.42036203 C282.66468492 1670.16154868 282.65892766 1673.90273559 282.65333366 1677.64392281 C282.65194195 1678.56207788 282.65055024 1679.48023296 282.64911636 1680.42621092 C282.6282476 1694.96660758 282.65093999 1709.50659608 282.69173027 1724.04693675 C282.73091654 1738.34338191 282.72369457 1752.63917955 282.66705524 1766.93557301 C282.63522686 1775.31793196 282.6388369 1783.69845679 282.69502678 1792.08069819 C282.7327681 1798.30455217 282.70268299 1804.52635038 282.64623295 1810.75002411 C282.63401539 1813.2515583 282.64357973 1815.75331775 282.67757814 1818.25465074 C282.94937834 1839.73448243 282.94937834 1839.73448243 274.78109032 1848.64379138 C273.12433991 1850.29326285 271.43221142 1851.87449326 269.68632968 1853.42906951 C266.82095476 1856.09836062 264.37472308 1859.11798792 261.875 1862.125 C260.88434687 1863.28516611 259.89234924 1864.44418682 258.8984375 1865.6015625 C255.63275162 1869.42570902 252.38654013 1873.26619812 249.1418457 1877.1081543 C243.29299395 1884.02861531 237.38283437 1890.89654547 231.47949219 1897.77050781 C226.13313895 1903.99703239 220.7952217 1910.2298939 215.5 1916.5 C209.20091594 1923.95878598 202.84005229 1931.36415234 196.47949219 1938.77050781 C191.13313895 1944.99703239 185.7952217 1951.2298939 180.5 1957.5 C174.20091594 1964.95878598 167.84005229 1972.36415234 161.47949219 1979.77050781 C156.13313895 1985.99703239 150.7952217 1992.2298939 145.5 1998.5 C139.20091594 2005.95878598 132.84005229 2013.36415234 126.47949219 2020.77050781 C121.13313895 2026.99703239 115.7952217 2033.2298939 110.5 2039.5 C104.20091594 2046.95878598 97.84005229 2054.36415234 91.47949219 2061.77050781 C86.13313895 2067.99703239 80.7952217 2074.2298939 75.5 2080.5 C69.20091594 2087.95878598 62.84005229 2095.36415234 56.47949219 2102.77050781 C51.13313895 2108.99703239 45.7952217 2115.2298939 40.5 2121.5 C36.70470056 2125.99403849 32.89209117 2130.47264212 29.0625 2134.9375 C28.56580811 2135.51669189 28.06911621 2136.09588379 27.55737305 2136.69262695 C25.00489582 2139.66756041 22.44930018 2142.6397708 19.890625 2145.609375 C18.86436842 2146.80189842 17.83832441 2147.99460481 16.8125 2149.1875 C16.06939575 2150.05109131 16.06939575 2150.05109131 15.3112793 2150.93212891 C11.3587803 2155.54239404 7.52746611 2160.23935113 3.7421875 2164.98828125 C2 2167 2 2167 0 2168 C0 1452.56 0 737.12 0 0 Z " fill="#2D71B8" transform="translate(2119,268)"/>
</svg>
