<?xml version="1.0" encoding="UTF-8"?>
<svg version="1.1" xmlns="http://www.w3.org/2000/svg" width="300" height="225">
<path d="M0 0 C0.67804688 0.29632324 1.35609375 0.59264648 2.0546875 0.89794922 C2.65539062 1.19717285 3.25609375 1.49639648 3.875 1.8046875 C4.55046875 2.14113281 5.2259375 2.47757812 5.921875 2.82421875 C6.60765625 3.17097656 7.2934375 3.51773437 8 3.875 C8.68578125 4.21402344 9.3715625 4.55304687 10.078125 4.90234375 C11.43000799 5.58086517 12.77213976 6.27921645 14.10302734 6.99804688 C15.85304221 7.92237905 17.66383894 8.72909796 19.4765625 9.5234375 C22.48627768 12.47724466 22.41692042 13.33504189 22.5859375 17.421875 C22.54612295 19.53204597 22.47466 21.64180774 22.375 23.75 C22.33439453 25.36841797 22.33439453 25.36841797 22.29296875 27.01953125 C22.22229142 29.68171065 22.12368401 32.33984236 22 35 C22.87736816 34.7827124 23.75473633 34.5654248 24.65869141 34.34155273 C27.93292674 33.5365229 31.20935369 32.74200303 34.48779297 31.9543457 C35.90286411 31.61213579 37.31695296 31.26583596 38.72998047 30.9152832 C40.76802408 30.41044012 42.80921471 29.92069168 44.8515625 29.43359375 C46.07697754 29.13509521 47.30239258 28.83659668 48.56494141 28.52905273 C56.57751907 27.29499049 59.42760389 29.79311327 67 34 C67 67.33 67 100.66 67 135 C54.33734112 141.90690484 54.33734112 141.90690484 47 140 C46.02659668 139.77940918 45.05319336 139.55881836 44.05029297 139.33154297 C40.83174546 138.58066389 37.63638915 137.76830884 34.4375 136.9375 C30.663125 135.968125 26.88875 134.99875 23 134 C22.67 141.92 22.34 149.84 22 158 C18.41564679 159.90722361 14.82803953 161.80047617 11.22119141 163.6640625 C9.9973617 164.30106246 8.77722335 164.94520876 7.56103516 165.59667969 C5.80847345 166.53386314 4.04104347 167.44307228 2.2734375 168.3515625 C1.21560059 168.90666504 0.15776367 169.46176758 -0.93212891 170.03369141 C-6.35383313 171.74140311 -10.56854151 168.84179665 -15.3984375 166.3984375 C-16.27677246 165.95677246 -17.15510742 165.51510742 -18.06005859 165.06005859 C-19.15398926 164.50398926 -20.24791992 163.94791992 -21.375 163.375 C-26.634375 160.714375 -26.634375 160.714375 -32 158 C-32.33 150.08 -32.66 142.16 -33 134 C-34.94003906 134.51691406 -36.88007812 135.03382813 -38.87890625 135.56640625 C-40.77848143 136.06043496 -42.67808293 136.55436769 -44.57836914 137.0456543 C-45.88983213 137.38727693 -47.20009255 137.73355361 -48.5090332 138.0847168 C-50.39985819 138.59109774 -52.29562227 139.07891894 -54.19140625 139.56640625 C-55.32779541 139.86490479 -56.46418457 140.16340332 -57.63500977 140.47094727 C-65.92737157 141.77469449 -69.32121513 139.2659916 -77 135 C-77 101.67 -77 68.34 -77 34 C-64.36781766 27.10971872 -64.36781766 27.10971872 -57 29 C-55.99565918 29.22059082 -54.99131836 29.44118164 -53.95654297 29.66845703 C-50.60423754 30.42095473 -47.27160617 31.23330222 -43.9375 32.0625 C-42.78572266 32.34416016 -41.63394531 32.62582031 -40.44726562 32.91601562 C-37.63027551 33.60565221 -34.81496136 34.30212861 -32 35 C-32 27.08 -32 19.16 -32 11 C-28.41564679 9.09277639 -24.82803953 7.19952383 -21.22119141 5.3359375 C-19.9973617 4.69893754 -18.77722335 4.05479124 -17.56103516 3.40332031 C-15.80847345 2.46613686 -14.04104347 1.55692772 -12.2734375 0.6484375 C-11.21560059 0.09333496 -10.15776367 -0.46176758 -9.06787109 -1.03369141 C-5.2292463 -2.24276963 -3.61927779 -1.62331151 0 0 Z " fill="#8D3324" transform="translate(155,4)"/>
<path d="M0 0 C0.66 0.33 1.32 0.66 2 1 C1.01 1.33 0.02 1.66 -1 2 C-1 14.21 -1 26.42 -1 39 C3.29 39.66 7.58 40.32 12 41 C14.44511049 41.50620521 16.88545958 42.03824297 19.3125 42.625 C20.40175781 42.88539062 21.49101562 43.14578125 22.61328125 43.4140625 C23.40089844 43.60742188 24.18851562 43.80078125 25 44 C25 46.97 25 49.94 25 53 C16.0744 55.43425454 8.75497806 55.42617776 -1 56 C-1 68.21 -1 80.42 -1 93 C1.31 93 3.62 93 6 93 C8.19362439 93.26612875 10.38222194 93.57805584 12.5625 93.9375 C14.17318359 94.19853516 14.17318359 94.19853516 15.81640625 94.46484375 C16.86699219 94.64144531 17.91757813 94.81804687 19 95 C20.12277344 95.18691406 21.24554688 95.37382813 22.40234375 95.56640625 C23.25957031 95.70949219 24.11679688 95.85257812 25 96 C25 98.97 25 101.94 25 105 C28.20809499 105.64703604 31.41646179 106.29266861 34.625 106.9375 C35.52863281 107.11990234 36.43226563 107.30230469 37.36328125 107.49023438 C41.89899238 108.40068734 46.42937647 109.2787222 51 110 C51 113.96 51 117.92 51 122 C51.66 122.33 52.32 122.66 53 123 C52.67 131.25 52.34 139.5 52 148 C48.41564679 149.90722361 44.82803953 151.80047617 41.22119141 153.6640625 C39.9973617 154.30106246 38.77722335 154.94520876 37.56103516 155.59667969 C35.80847345 156.53386314 34.04104347 157.44307228 32.2734375 158.3515625 C31.21560059 158.90666504 30.15776367 159.46176758 29.06787109 160.03369141 C23.64616687 161.74140311 19.43145849 158.84179665 14.6015625 156.3984375 C13.72322754 155.95677246 12.84489258 155.51510742 11.93994141 155.06005859 C10.84601074 154.50398926 9.75208008 153.94791992 8.625 153.375 C3.365625 150.714375 3.365625 150.714375 -2 148 C-2.33 140.08 -2.66 132.16 -3 124 C-4.94003906 124.51691406 -6.88007812 125.03382813 -8.87890625 125.56640625 C-10.77848143 126.06043496 -12.67808293 126.55436769 -14.57836914 127.0456543 C-15.88983213 127.38727693 -17.20009255 127.73355361 -18.5090332 128.0847168 C-20.39985819 128.59109774 -22.29562227 129.07891894 -24.19140625 129.56640625 C-25.32779541 129.86490479 -26.46418457 130.16340332 -27.63500977 130.47094727 C-35.92737157 131.77469449 -39.32121513 129.2659916 -47 125 C-47 91.67 -47 58.34 -47 24 C-34.36781766 17.10971872 -34.36781766 17.10971872 -27 19 C-25.99565918 19.22059082 -24.99131836 19.44118164 -23.95654297 19.66845703 C-20.60423754 20.42095473 -17.27160617 21.23330222 -13.9375 22.0625 C-12.78572266 22.34416016 -11.63394531 22.62582031 -10.44726562 22.91601562 C-7.63027551 23.60565221 -4.81496136 24.30212861 -2 25 C-2 17.08 -2 9.16 -2 1 C-1.34 0.67 -0.68 0.34 0 0 Z " fill="#E05646" transform="translate(125,14)"/>
<path d="M0 0 C0 33.33 0 66.66 0 101 C-12.63175829 107.89004998 -12.63175829 107.89004998 -20 106 C-21.5159375 105.7215625 -21.5159375 105.7215625 -23.0625 105.4375 C-23.701875 105.293125 -24.34125 105.14875 -25 105 C-25 104.67 -25 104.34 -25 104 C-23.14375 103.9690625 -23.14375 103.9690625 -21.25 103.9375 C-20.55390625 103.92589844 -19.8578125 103.91429687 -19.140625 103.90234375 C-17 104 -17 104 -13 105 C-13.33 69.36 -13.66 33.72 -14 -3 C-15.98 -2.67 -17.96 -2.34 -20 -2 C-22.67810075 -1.88803927 -25.31732686 -1.95374701 -28 -2 C-17.18763232 -7.79758176 -10.65388634 -5.91882574 0 0 Z " fill="#E46556" transform="translate(222,38)"/>
<path d="M0 0 C1.051875 0.19078125 2.10375 0.3815625 3.1875 0.578125 C5.75142851 1.04429382 8.31342979 1.52104196 10.875 2 C10.875 5.96 10.875 9.92 10.875 14 C11.535 14.33 12.195 14.66 12.875 15 C12.545 23.25 12.215 31.5 11.875 40 C8.2523694 41.90315664 4.6267328 43.79560453 0.98632812 45.6640625 C-0.25037583 46.30252876 -1.48414685 46.94670972 -2.71484375 47.59667969 C-4.48436469 48.52995928 -6.26551259 49.44108838 -8.046875 50.3515625 C-9.11518555 50.90666504 -10.18349609 51.46176758 -11.28417969 52.03369141 C-14.125 53 -14.125 53 -16.50488281 52.16552734 C-17.03952148 51.78090332 -17.57416016 51.3962793 -18.125 51 C-17.135 51 -16.145 51 -15.125 51 C-15.62 30.21 -15.62 30.21 -16.125 9 C-25.035 7.02 -25.035 7.02 -34.125 5 C-36.105 4.34 -38.085 3.68 -40.125 3 C-36.69255336 0.71170224 -34.09674837 0.1875953 -30.0625 -0.625 C-28.81339844 -0.88539062 -27.56429687 -1.14578125 -26.27734375 -1.4140625 C-17.30149553 -2.87888616 -8.86350074 -1.66895434 0 0 Z " fill="#E15A4A" transform="translate(165.125,122)"/>
<path d="M0 0 C0 35.97 0 71.94 0 109 C-6 109 -6 109 -13 105 C-13 71.67 -13 38.34 -13 4 C-6 0 -6 0 0 0 Z " fill="#974637" transform="translate(91,34)"/>
<path d="M0 0 C1.37709285 0.68591839 2.75206754 1.37610417 4.125 2.0703125 C4.81078125 2.40933594 5.4965625 2.74835937 6.203125 3.09765625 C7.55500799 3.77617767 8.89713976 4.47452895 10.22802734 5.19335938 C11.97804221 6.11769155 13.78883894 6.92441046 15.6015625 7.71875 C18.61127768 10.67255716 18.54192042 11.53035439 18.7109375 15.6171875 C18.67112295 17.72735847 18.59966 19.83712024 18.5 21.9453125 C18.45939453 23.56373047 18.45939453 23.56373047 18.41796875 25.21484375 C18.34729142 27.87702315 18.24868401 30.53515486 18.125 33.1953125 C20.765 32.8653125 23.405 32.5353125 26.125 32.1953125 C22.93737635 34.32039494 20.85987777 34.6973288 17.125 35.1953125 C17.125 38.8253125 17.125 42.4553125 17.125 46.1953125 C7.73529283 45.57756861 -1.37715462 44.44423519 -9.875 40.1953125 C-9.875 26.6653125 -9.875 13.1353125 -9.875 -0.8046875 C-13.835 1.1753125 -13.835 1.1753125 -17.875 3.1953125 C-19.195 2.8653125 -20.515 2.5353125 -21.875 2.1953125 C-20.01379837 1.1291873 -18.13529266 0.09323285 -16.25 -0.9296875 C-15.20585937 -1.50976562 -14.16171875 -2.08984375 -13.0859375 -2.6875 C-7.94291251 -4.47692232 -4.65229751 -2.19165321 0 0 Z " fill="#DC5444" transform="translate(158.875,5.8046875)"/>
<path d="M0 0 C1.1446875 0.1546875 1.1446875 0.1546875 2.3125 0.3125 C7.31990393 9.6773083 11.25716471 19.51126782 15.3125 29.3125 C15.6425 23.0425 15.9725 16.7725 16.3125 10.3125 C18.6225 10.3125 20.9325 10.3125 23.3125 10.3125 C24.69193401 10.13589426 26.06878291 9.93375454 27.4375 9.6875 C31.39253355 9.30475482 32.78782866 9.84388694 36.3125 11.3125 C36.910625 11.003125 37.50875 10.69375 38.125 10.375 C41.45800998 8.75610944 44.80961922 9.24077672 48.3125 10.3125 C49.91308594 11.51611328 49.91308594 11.51611328 51.3125 13.3125 C51.65307617 15.7644043 51.65307617 15.7644043 51.60546875 18.63671875 C51.59580078 19.66474609 51.58613281 20.69277344 51.57617188 21.75195312 C51.55103516 22.82380859 51.52589844 23.89566406 51.5 25 C51.47969727 26.62518555 51.47969727 26.62518555 51.45898438 28.28320312 C51.42360643 30.96013405 51.37424189 33.63606838 51.3125 36.3125 C49.3325 36.3125 47.3525 36.3125 45.3125 36.3125 C44.9825 30.0425 44.6525 23.7725 44.3125 17.3125 C42.9925 16.9825 41.6725 16.6525 40.3125 16.3125 C37.95891749 18.66608251 38.03378096 19.24218394 37.8984375 22.4453125 C37.85976562 23.25097656 37.82109375 24.05664062 37.78125 24.88671875 C37.73484375 26.14935547 37.73484375 26.14935547 37.6875 27.4375 C37.64882812 28.28699219 37.61015625 29.13648438 37.5703125 30.01171875 C37.47593506 32.11161684 37.39312414 34.21202891 37.3125 36.3125 C35.31295254 36.35504356 33.31208364 36.35330783 31.3125 36.3125 C29.76299732 34.76299732 30.09594807 33.21259406 29.99609375 31.05859375 C29.95419922 30.20458984 29.91230469 29.35058594 29.86914062 28.47070312 C29.82982422 27.57287109 29.79050781 26.67503906 29.75 25.75 C29.70681641 24.84830078 29.66363281 23.94660156 29.61914062 23.01757812 C29.51271858 20.78271515 29.41070012 18.54773692 29.3125 16.3125 C26.83983235 16.65694881 26.83983235 16.65694881 24.3125 17.3125 C22.6626993 20.61210141 22.92991639 24.30377884 22.75 27.9375 C22.68522461 29.14019531 22.68522461 29.14019531 22.61914062 30.3671875 C22.51298543 32.3487511 22.41223145 34.33060271 22.3125 36.3125 C18.0225 36.3125 13.7325 36.3125 9.3125 36.3125 C7.8275 31.3625 7.8275 31.3625 6.3125 26.3125 C2.0225 26.3125 -2.2675 26.3125 -6.6875 26.3125 C-7.0175 28.2925 -7.3475 30.2725 -7.6875 32.3125 C-8.75 34.6875 -8.75 34.6875 -9.6875 36.3125 C-11.9975 36.3125 -14.3075 36.3125 -16.6875 36.3125 C-14.67054867 29.24266539 -12.31658194 22.36427597 -9.6875 15.5 C-9.34460937 14.58541016 -9.00171875 13.67082031 -8.6484375 12.72851562 C-3.9738068 0.46207056 -3.9738068 0.46207056 0 0 Z M-0.6875 10.3125 C-2.97795014 15.12459901 -2.97795014 15.12459901 -3.6875 20.3125 C-1.3775 20.3125 0.9325 20.3125 3.3125 20.3125 C2.3225 17.0125 1.3325 13.7125 0.3125 10.3125 C-0.0175 10.3125 -0.3475 10.3125 -0.6875 10.3125 Z " fill="#3D3D3D" transform="translate(49.6875,171.6875)"/>
<path d="M0 0 C5.56512964 0.79501852 10.90673438 1.77695194 16.375 3 C17.19355469 3.17789063 18.01210937 3.35578125 18.85546875 3.5390625 C24.87723214 4.87723214 24.87723214 4.87723214 26 6 C26.08874135 9.10251201 26.11518455 12.1826812 26.09765625 15.28515625 C26.0962413 16.21597519 26.09482635 17.14679413 26.09336853 18.1058197 C26.08775172 21.09141191 26.0751964 24.07693029 26.0625 27.0625 C26.05748716 29.08137913 26.05292388 31.10025943 26.04882812 33.11914062 C26.03777683 38.07945572 26.02050095 43.03971532 26 48 C21.57836761 47.50608168 18.07162495 46.8459198 14.16015625 44.71484375 C13.40613525 44.31128662 12.65211426 43.90772949 11.87524414 43.49194336 C10.94703857 42.97897705 10.01883301 42.46601074 9.0625 41.9375 C6.071875 40.308125 3.08125 38.67875 0 37 C0 24.79 0 12.58 0 0 Z " fill="#8E3627" transform="translate(124,125)"/>
<path d="M0 0 C10 0 10 0 26 2 C26 14.21 26 26.42 26 39 C22.638125 39.495 19.27625 39.99 15.8125 40.5 C14.76167236 40.65662109 13.71084473 40.81324219 12.62817383 40.97460938 C11.78794678 41.09642578 10.94771973 41.21824219 10.08203125 41.34375 C9.22843018 41.46943359 8.3748291 41.59511719 7.49536133 41.72460938 C5 42 5 42 0 42 C0 28.14 0 14.28 0 0 Z " fill="#DF5242" transform="translate(150,68)"/>
<path d="M0 0 C2.1875 1.1875 2.1875 1.1875 4.1875 4.1875 C4.41455078 6.18041992 4.41455078 6.18041992 4.3828125 8.41796875 C4.37636719 9.22041016 4.36992188 10.02285156 4.36328125 10.84960938 C4.34652344 11.68298828 4.32976562 12.51636719 4.3125 13.375 C4.30347656 14.21998047 4.29445313 15.06496094 4.28515625 15.93554688 C4.26160703 18.01965243 4.22573647 20.10361217 4.1875 22.1875 C4.8475 22.1875 5.5075 22.1875 6.1875 22.1875 C6.435 21.44757813 6.6825 20.70765625 6.9375 19.9453125 C8.3063771 16.9252274 9.78146859 15.31815445 12.1875 13.0625 C14.57768244 10.80412909 16.34910745 8.94508882 18.1875 6.1875 C14.2275 5.8575 10.2675 5.5275 6.1875 5.1875 C6.1875 3.5375 6.1875 1.8875 6.1875 0.1875 C13.4475 0.1875 20.7075 0.1875 28.1875 0.1875 C28.1875 5.8125 28.1875 5.8125 25.5625 8.73828125 C24.75039062 9.66157227 24.75039062 9.66157227 23.921875 10.60351562 C23.06335938 11.54227539 23.06335938 11.54227539 22.1875 12.5 C21.32898438 13.46776367 21.32898438 13.46776367 20.453125 14.45507812 C19.04220755 16.04236025 17.61627492 17.61627282 16.1875 19.1875 C17.04214844 19.24808594 17.89679688 19.30867188 18.77734375 19.37109375 C19.88207031 19.45488281 20.98679688 19.53867188 22.125 19.625 C23.22714844 19.70621094 24.32929688 19.78742188 25.46484375 19.87109375 C28.1875 20.1875 28.1875 20.1875 29.1875 21.1875 C29.22813832 22.85367115 29.230221 24.52138095 29.1875 26.1875 C28.19830566 26.18226318 27.20911133 26.17702637 26.18994141 26.17163086 C22.52605084 26.15355477 18.86216423 26.14205842 15.19824219 26.13256836 C13.61132139 26.12753412 12.02440523 26.12070631 10.4375 26.11206055 C8.15884251 26.09995518 5.88024624 26.09426267 3.6015625 26.08984375 C2.89005035 26.08468246 2.17853821 26.07952118 1.44546509 26.07420349 C-2.30843556 26.01435242 -2.30843556 26.01435242 -5.8125 27.1875 C-12.81119622 27.87589635 -12.81119622 27.87589635 -16.8125 25.125 C-19.31889423 21.44373347 -19.52775283 19.55848953 -18.8125 15.1875 C-17.5 12.875 -17.5 12.875 -14.8125 11.1875 C-11.17436476 10.27142278 -7.53044875 9.67467949 -3.8125 9.1875 C-3.8125 8.1975 -3.8125 7.2075 -3.8125 6.1875 C-6.72884129 5.9372843 -6.72884129 5.9372843 -9.8125 6.1875 C-10.8025 7.6725 -10.8025 7.6725 -11.8125 9.1875 C-14.9375 9.375 -14.9375 9.375 -17.8125 9.1875 C-18.125 6.9375 -18.125 6.9375 -17.8125 4.1875 C-12.55524578 -0.92766627 -7.07349759 -2.04345486 0 0 Z M-11.8125 17.1875 C-12.1425 17.8475 -12.4725 18.5075 -12.8125 19.1875 C-12.4825 19.8475 -12.1525 20.5075 -11.8125 21.1875 C-7.0227679 21.42178313 -7.0227679 21.42178313 -2.8125 19.1875 C-2.8125 17.8675 -2.8125 16.5475 -2.8125 15.1875 C-6.62414166 15.1875 -8.46739648 15.56015234 -11.8125 17.1875 Z " fill="#303030" transform="translate(121.8125,181.8125)"/>
<path d="M0 0 C3.49627141 2.64352229 4.20661572 4.79452026 5.5625 8.9375 C5.5625 9.5975 5.5625 10.2575 5.5625 10.9375 C3.5825 11.2675 1.6025 11.5975 -0.4375 11.9375 C-0.9325 10.9475 -1.4275 9.9575 -1.9375 8.9375 C-4.02113237 5.79486434 -4.02113237 5.79486434 -6.484375 5.5390625 C-8.95019579 5.53264313 -8.95019579 5.53264313 -12.4375 5.9375 C-12.7675 7.5875 -13.0975 9.2375 -13.4375 10.9375 C-12.48488281 11.16824219 -11.53226563 11.39898437 -10.55078125 11.63671875 C-9.29652344 11.96285156 -8.04226562 12.28898438 -6.75 12.625 C-5.50863281 12.93824219 -4.26726562 13.25148437 -2.98828125 13.57421875 C0.96912147 15.09361759 2.89473354 16.67579667 5.5625 19.9375 C6.65559727 23.76334043 6.96952425 25.90796808 5.5 29.625 C2.53251457 33.16683745 -0.11074119 35.55738594 -4.8046875 36.32421875 C-10.85959683 36.59107646 -14.60093399 35.58960086 -19.4375 31.9375 C-21.4375 29.5 -21.4375 29.5 -22.4375 26.9375 C-22.125 24.125 -22.125 24.125 -21.4375 21.9375 C-19.1875 21.5625 -19.1875 21.5625 -16.4375 21.9375 C-15.880625 22.9275 -15.32375 23.9175 -14.75 24.9375 C-12.80592377 28.16767377 -12.80592377 28.16767377 -9.96484375 28.3359375 C-7.43254871 28.31456792 -4.9559703 28.19703702 -2.4375 27.9375 C-2.1075 26.2875 -1.7775 24.6375 -1.4375 22.9375 C-2.47390625 22.62296875 -3.5103125 22.3084375 -4.578125 21.984375 C-5.94812131 21.55273233 -7.31790186 21.1204044 -8.6875 20.6875 C-9.36941406 20.48253906 -10.05132812 20.27757812 -10.75390625 20.06640625 C-14.92505235 18.73001964 -17.73585111 17.42824436 -20.4375 13.9375 C-21.73096146 9.57206758 -21.83415137 7.71611195 -19.75 3.625 C-14.48423595 -2.49467174 -7.34830391 -2.27129394 0 0 Z " fill="#303030" transform="translate(235.4375,173.0625)"/>
<path d="M0 0 C2.38312703 1.89428046 3.6500559 3.30011179 5 6 C5.23192771 12.26204819 5.23192771 12.26204819 4.3125 15.1875 C4.209375 15.785625 4.10625 16.38375 4 17 C4.7425 17.8353125 4.7425 17.8353125 5.5 18.6875 C7.57484745 21.88622315 7.19563592 24.11804438 6.6484375 27.80859375 C5.64387253 31.20353922 3.76495992 32.89336387 1 35 C-3.51952327 36.50650776 -7.35959378 36.74563919 -11.75 34.75 C-14.06646862 32.94830218 -15.56806911 31.56240264 -17 29 C-17.1875 26.25 -17.1875 26.25 -17 24 C-14.1875 23.6875 -14.1875 23.6875 -11 24 C-9.96986723 25.64821244 -8.96885372 27.31503702 -8 29 C-5.45709375 29.58350505 -5.45709375 29.58350505 -3 29 C-2.34 28.34 -1.68 27.68 -1 27 C-1.32326553 23.40320934 -1.32326553 23.40320934 -2 20 C-4.31 19.67 -6.62 19.34 -9 19 C-9 17.35 -9 15.7 -9 14 C-6.69 13.01 -4.38 12.02 -2 11 C-2.33 9.35 -2.66 7.7 -3 6 C-5.37305578 5.58219121 -5.37305578 5.58219121 -8 6 C-9.8624438 8.40858714 -9.8624438 8.40858714 -11 11 C-13.97 10.505 -13.97 10.505 -17 10 C-16.58565093 5.16592748 -14.62206046 3.10462326 -11 0 C-7.16499319 -1.2783356 -3.85497292 -1.02592021 0 0 Z " fill="#2D2D2D" transform="translate(260,173)"/>
<path d="M0 0 C3.83037674 4.05569301 4.53003089 7.68454506 4.3828125 13.2578125 C3.81109848 17.67560265 1.60341303 21.49625635 -1.875 24.25 C-6.39452327 25.75650776 -10.23459378 25.99563919 -14.625 24 C-17.93669787 21.42423499 -19.54946761 19.22659717 -20.875 15.25 C-21.29952169 8.77604427 -20.59602995 4.68086385 -16.4375 -0.5625 C-11.52932369 -4.292714 -4.9385011 -3.00604415 0 0 Z M-13.875 6.25 C-14.34940869 8.65513863 -14.34940869 8.65513863 -14.25 11.25 C-14.25773438 12.11625 -14.26546875 12.9825 -14.2734375 13.875 C-13.80257752 16.68169477 -13.13734706 17.5721828 -10.875 19.25 C-8.375 19.75 -8.375 19.75 -5.875 19.25 C-3.61265294 17.5721828 -2.94742248 16.68169477 -2.4765625 13.875 C-2.48429687 13.00875 -2.49203125 12.1425 -2.5 11.25 C-2.49226563 10.38375 -2.48453125 9.5175 -2.4765625 8.625 C-2.94742248 5.81830523 -3.61265294 4.9278172 -5.875 3.25 C-9.77945933 2.6643311 -11.48221129 3.11886506 -13.875 6.25 Z " fill="#373737" transform="translate(170.875,183.75)"/>
<path d="M0 0 C2.64365079 1.87613927 2.95241281 2.85723843 4 6 C4.08106686 7.55421729 4.10756898 9.11167027 4.09765625 10.66796875 C4.09443359 11.56064453 4.09121094 12.45332031 4.08789062 13.37304688 C4.07951172 14.30181641 4.07113281 15.23058594 4.0625 16.1875 C4.05798828 17.12787109 4.05347656 18.06824219 4.04882812 19.03710938 C4.03704626 21.35813712 4.02059558 23.67903644 4 26 C2.02 26 0.04 26 -2 26 C-2.33 19.4 -2.66 12.8 -3 6 C-4.98 6 -6.96 6 -9 6 C-10.9756562 8.96348429 -11.26376859 9.68020373 -11.4140625 13.01171875 C-11.45273438 13.76904297 -11.49140625 14.52636719 -11.53125 15.30664062 C-11.5621875 16.09232422 -11.593125 16.87800781 -11.625 17.6875 C-11.66367188 18.48478516 -11.70234375 19.28207031 -11.7421875 20.10351562 C-11.83632494 22.06863475 -11.91924632 24.0342854 -12 26 C-13.98 26 -15.96 26 -18 26 C-18 17.42 -18 8.84 -18 0 C-15.69 0 -13.38 0 -11 0 C-7.08793541 -1.30402153 -3.98057307 -0.94735977 0 0 Z " fill="#2B2B2B" transform="translate(195,182)"/>
<path d="M0 0 C7.26 0 14.52 0 22 0 C22 5.62768616 22 5.62768616 19.48046875 8.48046875 C18.95259766 9.08697266 18.42472656 9.69347656 17.88085938 10.31835938 C17.32205078 10.93517578 16.76324219 11.55199219 16.1875 12.1875 C15.36668945 13.13012695 15.36668945 13.13012695 14.52929688 14.09179688 C12.10532523 16.83896474 10.07685396 18.94876403 7 21 C13.93 21.495 13.93 21.495 21 22 C21 22.66 21 23.32 21 24 C14.4 24 7.8 24 1 24 C0.67 22.68 0.34 21.36 0 20 C1.765625 17.5625 1.765625 17.5625 4.25 15 C7.06471107 12.05979226 9.54658988 9.27121349 12 6 C8.04 5.67 4.08 5.34 0 5 C0 3.35 0 1.7 0 0 Z " fill="#272727" transform="translate(128,182)"/>
<path d="M0 0 C0.95648438 0.19078125 1.91296875 0.3815625 2.8984375 0.578125 C5.22581492 1.04360048 7.55107444 1.51763952 9.875 2 C6.25368476 4.41421016 2.67934079 5.13414981 -1.5 6.0625 C-2.25539062 6.23587891 -3.01078125 6.40925781 -3.7890625 6.58789062 C-5.25808015 6.92304238 -6.72902487 7.24987587 -8.2019043 7.56762695 C-9.68342466 7.90071983 -11.14943779 8.30329812 -12.60546875 8.734375 C-16.58829878 9.15427026 -20.19881904 8.11793746 -24.0625 7.1875 C-24.84818359 7.00896484 -25.63386719 6.83042969 -26.44335938 6.64648438 C-30.75856268 5.64622386 -34.94487035 4.48283893 -39.125 3 C-35.69255336 0.71170224 -33.09674837 0.1875953 -29.0625 -0.625 C-27.81339844 -0.88539062 -26.56429687 -1.14578125 -25.27734375 -1.4140625 C-16.60253853 -2.83250469 -8.53796077 -1.77474465 0 0 Z " fill="#EEA9A2" transform="translate(164.125,122)"/>
<path d="M0 0 C1.24040039 0.28617188 1.24040039 0.28617188 2.50585938 0.578125 C4.52632366 1.04528437 6.54464547 1.52169374 8.5625 2 C8.5625 2.99 8.5625 3.98 8.5625 5 C-5.10151134 7.91313947 -16.90243006 9.51168998 -30.4375 5 C-30.1075 4.01 -29.7775 3.02 -29.4375 2 C-28.4475 2 -27.4575 2 -26.4375 2 C-26.4375 1.34 -26.4375 0.68 -26.4375 0 C-24.9186541 -0.34227513 -23.39727467 -0.67331214 -21.875 -1 C-21.02808594 -1.185625 -20.18117187 -1.37125 -19.30859375 -1.5625 C-12.49919395 -2.60012283 -6.598311 -1.57381149 0 0 Z " fill="#61201A" transform="translate(162.4375,49)"/>
<path d="M0 0 C0.66 0.33 1.32 0.66 2 1 C2 6.94 2 12.88 2 19 C2.99 19 3.98 19 5 19 C5 19.66 5 20.32 5 21 C11.6 21 18.2 21 25 21 C25 20.34 25 19.68 25 19 C20.05 19 15.1 19 10 19 C13 16 13 16 16.1015625 15.890625 C17.26429688 16.00921875 18.42703125 16.1278125 19.625 16.25 C20.79289062 16.35828125 21.96078125 16.4665625 23.1640625 16.578125 C26 17 26 17 27 18 C27.04063832 19.66617115 27.042721 21.33388095 27 23 C26.01080566 22.99476318 25.02161133 22.98952637 24.00244141 22.98413086 C20.33855084 22.96605477 16.67466423 22.95455842 13.01074219 22.94506836 C11.42382139 22.94003412 9.83690523 22.93320631 8.25 22.92456055 C5.97134251 22.91245518 3.69274624 22.90676267 1.4140625 22.90234375 C0.70255035 22.89718246 -0.00896179 22.89202118 -0.74203491 22.88670349 C-4.49593556 22.82685242 -4.49593556 22.82685242 -8 24 C-9.875 24.16796875 -9.875 24.16796875 -12 24.1875 C-13.051875 24.20876953 -13.051875 24.20876953 -14.125 24.23046875 C-16 24 -16 24 -18 22 C-14.7 22 -11.4 22 -8 22 C-8 21.34 -8 20.68 -8 20 C-9.65 20 -11.3 20 -13 20 C-13.33 19.34 -13.66 18.68 -14 18 C-11.36 17.34 -8.72 16.68 -6 16 C-5.67 14.35 -5.34 12.7 -5 11 C-4.67 11 -4.34 11 -4 11 C-3.82057837 14.94727588 -3.90649311 17.5980513 -6 21 C-5.34 21 -4.68 21 -4 21 C-4 20.34 -4 19.68 -4 19 C-3.34 19 -2.68 19 -2 19 C-2 19.99 -2 20.98 -2 22 C-1.01 21.67 -0.02 21.34 1 21 C0.67 20.34 0.34 19.68 0 19 C-0.08342159 17.55151418 -0.10732861 16.09929131 -0.09765625 14.6484375 C-0.09443359 13.79765625 -0.09121094 12.946875 -0.08789062 12.0703125 C-0.07951172 11.18085938 -0.07113281 10.29140625 -0.0625 9.375 C-0.05798828 8.4778125 -0.05347656 7.580625 -0.04882812 6.65625 C-0.03702591 4.43743352 -0.02056155 2.21874982 0 0 Z " fill="#5D5D5D" transform="translate(124,185)"/>
<path d="M0 0 C0 36.96 0 73.92 0 112 C-9 112 -9 112 -13 111 C-13 110.67 -13 110.34 -13 110 C-11.14375 109.9690625 -11.14375 109.9690625 -9.25 109.9375 C-8.55390625 109.92589844 -7.8578125 109.91429687 -7.140625 109.90234375 C-5 110 -5 110 -1 111 C-1.33 75.36 -1.66 39.72 -2 3 C-3.98 3.33 -5.96 3.66 -8 4 C-10.67810075 4.11196073 -13.31732686 4.04625299 -16 4 C-13.17486464 2.46837764 -10.57754511 1.54445124 -7.4375 0.875 C-6.67308594 0.70742188 -5.90867188 0.53984375 -5.12109375 0.3671875 C-3 0 -3 0 0 0 Z " fill="#CF5E50" transform="translate(210,32)"/>
<path d="M0 0 C3.0625 0.3125 3.0625 0.3125 4.7355957 1.49926758 C6.54433254 3.97093059 6.40589246 5.59448823 6.35546875 8.63671875 C6.34580078 9.66474609 6.33613281 10.69277344 6.32617188 11.75195312 C6.30103516 12.82380859 6.27589844 13.89566406 6.25 15 C6.23646484 16.08345703 6.22292969 17.16691406 6.20898438 18.28320312 C6.17360643 20.96013405 6.12424189 23.63606838 6.0625 26.3125 C4.4125 26.3125 2.7625 26.3125 1.0625 26.3125 C1.05839111 25.72758789 1.05428223 25.14267578 1.05004883 24.54003906 C1.01707339 21.87984434 0.94643093 19.22192845 0.875 16.5625 C0.86919922 15.64210937 0.86339844 14.72171875 0.85742188 13.7734375 C0.75714137 8.12924105 0.75714137 8.12924105 -2.48828125 3.671875 C-3.70064453 2.99898437 -3.70064453 2.99898437 -4.9375 2.3125 C-2.9375 0.3125 -2.9375 0.3125 0 0 Z " fill="#161616" transform="translate(94.9375,181.6875)"/>
<path d="M0 0 C1.17046875 0.03609375 2.3409375 0.0721875 3.546875 0.109375 C4.43890625 0.15578125 5.3309375 0.2021875 6.25 0.25 C6.25 0.91 6.25 1.57 6.25 2.25 C3.0864623 4.419283 -0.1624787 5.91749209 -3.75 7.25 C-3.42 8.57 -3.09 9.89 -2.75 11.25 C-1.1 11.58 0.55 11.91 2.25 12.25 C2.25 12.91 2.25 13.57 2.25 14.25 C0.45906809 14.33086147 -1.33289628 14.38912702 -3.125 14.4375 C-4.62160156 14.48970703 -4.62160156 14.48970703 -6.1484375 14.54296875 C-7.00695312 14.44628906 -7.86546875 14.34960938 -8.75 14.25 C-11.23038907 10.5294164 -11.21337203 8.65203429 -10.75 4.25 C-7.6287076 -0.05129319 -5.14729913 -0.20589197 0 0 Z " fill="#222222" transform="translate(113.75,192.75)"/>
<path d="M0 0 C0.99 0.66 1.98 1.32 3 2 C3.66 2 4.32 2 5 2 C4.84660156 2.81726563 4.69320312 3.63453125 4.53515625 4.4765625 C3.9322218 8.44624772 3.65842036 12.36946033 3.4375 16.375 C3.39431641 17.11105469 3.35113281 17.84710938 3.30664062 18.60546875 C3.20156201 20.40348068 3.10037907 22.20171958 3 24 C1.68 24 0.36 24 -1 24 C-1.06058594 22.89140625 -1.12117188 21.7828125 -1.18359375 20.640625 C-1.26802951 19.1770718 -1.35267599 17.71353075 -1.4375 16.25 C-1.47681641 15.52039063 -1.51613281 14.79078125 -1.55664062 14.0390625 C-1.76147098 10.5727027 -2.0852002 7.34666974 -3 4 C-4.98 4 -6.96 4 -9 4 C-8.625 2.0625 -8.625 2.0625 -8 0 C-5.08931154 -1.45534423 -3.1172005 -0.69977971 0 0 Z " fill="#090909" transform="translate(83,183)"/>
<path d="M0 0 C0.99 0 1.98 0 3 0 C3 0.99 3 1.98 3 3 C3.99 2.67 4.98 2.34 6 2 C5.76228882 2.84933105 5.76228882 2.84933105 5.51977539 3.71582031 C4.99214152 6.0345345 4.795844 8.17358397 4.68359375 10.546875 C4.64169922 11.39121094 4.59980469 12.23554688 4.55664062 13.10546875 C4.51732422 13.97816406 4.47800781 14.85085937 4.4375 15.75 C4.37272461 17.08224609 4.37272461 17.08224609 4.30664062 18.44140625 C4.20086385 20.62745963 4.09877454 22.81362089 4 25 C2.68 25 1.36 25 0 25 C0 16.75 0 8.5 0 0 Z " fill="#0B0B0B" transform="translate(178,183)"/>
<path d="M0 0 C0.33 0.66 0.66 1.32 1 2 C-1.01822917 1.67447917 -3.03645833 1.34895833 -5.0546875 1.0234375 C-5.69664062 1.01570312 -6.33859375 1.00796875 -7 1 C-7.66 1.66 -8.32 2.32 -9 3 C-7.02 3.66 -5.04 4.32 -3 5 C-5 6 -5 6 -7.5625 6.4375 C-8.7690625 6.7159375 -8.7690625 6.7159375 -10 7 C-11.6498007 10.29960141 -11.38258361 13.99127884 -11.5625 17.625 C-11.62727539 18.82769531 -11.62727539 18.82769531 -11.69335938 20.0546875 C-11.79951457 22.0362511 -11.90026855 24.01810271 -12 26 C-12.33 26 -12.66 26 -13 26 C-13.02903577 22.89585298 -13.0468107 19.79174091 -13.0625 16.6875 C-13.07087891 15.80642578 -13.07925781 14.92535156 -13.08789062 14.01757812 C-13.09111328 13.17001953 -13.09433594 12.32246094 -13.09765625 11.44921875 C-13.10289307 10.66893311 -13.10812988 9.88864746 -13.11352539 9.0847168 C-13 7 -13 7 -12 4 C-12.66 4 -13.32 4 -14 4 C-14 3.01 -14 2.02 -14 1 C-14.99 1 -15.98 1 -17 1 C-17 9.25 -17 17.5 -17 26 C-17.33 26 -17.66 26 -18 26 C-18 17.42 -18 8.84 -18 0 C-15.69 0 -13.38 0 -11 0 C-6.88825414 -1.37058195 -4.26339405 -0.75640862 0 0 Z " fill="#696969" transform="translate(195,182)"/>
<path d="M0 0 C2.31284456 0.14026283 4.62527591 0.28735558 6.9375 0.4375 C8.86916016 0.55931641 8.86916016 0.55931641 10.83984375 0.68359375 C14 1 14 1 15 2 C15 3.65 15 5.3 15 7 C7.41 7 -0.18 7 -8 7 C-7.67 5.68 -7.34 4.36 -7 3 C-7 3.66 -7 4.32 -7 5 C-0.4 5 6.2 5 13 5 C13 4.34 13 3.68 13 3 C8.05 3 3.1 3 -2 3 C-1.34 2.01 -0.68 1.02 0 0 Z " fill="#212121" transform="translate(136,201)"/>
<path d="M0 0 C3.72209925 0.58075308 6.49269162 1.61994281 9.75 3.5 C10.52859375 3.9434375 11.3071875 4.386875 12.109375 4.84375 C14 6 14 6 15 7 C15.08713831 8.70772358 15.10700007 10.41898649 15.09765625 12.12890625 C15.09443359 13.16337891 15.09121094 14.19785156 15.08789062 15.26367188 C15.07951172 16.35228516 15.07113281 17.44089844 15.0625 18.5625 C15.05798828 19.65498047 15.05347656 20.74746094 15.04882812 21.87304688 C15.03699826 24.58208495 15.02051543 27.29101599 15 30 C18.96 29.505 18.96 29.505 23 29 C20 31 20 31 13 32 C12.67 23.75 12.34 15.5 12 7 C8.04 5.02 4.08 3.04 0 1 C0 0.67 0 0.34 0 0 Z " fill="#E9A295" transform="translate(162,9)"/>
<path d="M0 0 C0.66 0 1.32 0 2 0 C2 0.99 2 1.98 2 3 C2.99 3 3.98 3 5 3 C5 3.99 5 4.98 5 6 C4.34 6 3.68 6 3 6 C3 11.94 3 17.88 3 24 C2.01 24 1.02 24 0 24 C0 16.08 0 8.16 0 0 Z " fill="#010101" transform="translate(68,183)"/>
<path d="M0 0 C7.75 0.875 7.75 0.875 10 2 C10.598125 1.690625 11.19625 1.38125 11.8125 1.0625 C14.3763939 -0.18281989 16.18541165 -0.15636602 19 0 C17.68 0.99 16.36 1.98 15 3 C15.81855469 3.44859375 16.63710937 3.8971875 17.48046875 4.359375 C20.77930704 7.81676211 20.5231842 9.83898191 20.43945312 14.4609375 C20.39755859 15.38132813 20.35566406 16.30171875 20.3125 17.25 C20.28994141 18.18585938 20.26738281 19.12171875 20.24414062 20.0859375 C20.18530595 22.39225674 20.10317146 24.69530838 20 27 C19.67 27 19.34 27 19 27 C18.505 17.595 18.505 17.595 18 8 C16.68 7.67 15.36 7.34 14 7 C13.01 7.66 12.02 8.32 11 9 C11.33 7.35 11.66 5.7 12 4 C11.01 4.33 10.02 4.66 9 5 C6.5625 3.6875 6.5625 3.6875 4 2 C2.67391178 1.31903578 1.34313399 0.64669414 0 0 Z " fill="#7E7E7E" transform="translate(76,181)"/>
<path d="M0 0 C0.33 0.66 0.66 1.32 1 2 C0.34773438 1.91878906 -0.30453125 1.83757812 -0.9765625 1.75390625 C-6.34165448 1.27244763 -6.34165448 1.27244763 -11 3.55859375 C-12.46835032 5.31284882 -13.7845509 7.0631868 -15 9 C-14.01 8.67 -13.02 8.34 -12 8 C-11.67 7.34 -11.34 6.68 -11 6 C-10.34 6.33 -9.68 6.66 -9 7 C-9.66 8.32 -10.32 9.64 -11 11 C-13.97 10.505 -13.97 10.505 -17 10 C-16.58565093 5.16592748 -14.62206046 3.10462326 -11 0 C-6.88825414 -1.37058195 -4.26339405 -0.75640862 0 0 Z " fill="#717171" transform="translate(260,173)"/>
<path d="M0 0 C1 2 1 2 0.44140625 3.9453125 C0.15136719 4.66460937 -0.13867188 5.38390625 -0.4375 6.125 C-0.72496094 6.84945312 -1.01242188 7.57390625 -1.30859375 8.3203125 C-1.53675781 8.87460938 -1.76492187 9.42890625 -2 10 C0.31 10 2.62 10 5 10 C4.649375 9.236875 4.29875 8.47375 3.9375 7.6875 C3 5 3 5 4 2 C7 8.625 7 8.625 7 12 C3.37 12 -0.26 12 -4 12 C-3.45660208 7.43545749 -2.20536179 4.0271824 0 0 Z " fill="#757575" transform="translate(48,182)"/>
<path d="M0 0 C2.25 -0.375 2.25 -0.375 5 0 C5.556875 0.969375 6.11375 1.93875 6.6875 2.9375 C8.63573574 6.18328259 8.63573574 6.18328259 11.47265625 6.62109375 C13.99141295 6.85135983 16.47124985 6.99034828 19 7 C17 9 17 9 13.6875 9.375 C9.45454323 8.94452982 7.96639625 7.96639625 5 5 C4.67 4.34 4.34 3.68 4 3 C1.97536745 2.34786708 1.97536745 2.34786708 0 2 C0.33 3.65 0.66 5.3 1 7 C0.34 6.34 -0.32 5.68 -1 5 C-0.625 2.375 -0.625 2.375 0 0 Z " fill="#747474" transform="translate(214,195)"/>
<path d="M0 0 C2.31284456 0.14026283 4.62527591 0.28735558 6.9375 0.4375 C8.86916016 0.55931641 8.86916016 0.55931641 10.83984375 0.68359375 C14 1 14 1 15 2 C15.04063832 3.66617115 15.042721 5.33388095 15 7 C14.67 5.68 14.34 4.36 14 3 C8.72 3 3.44 3 -2 3 C-1.34 2.01 -0.68 1.02 0 0 Z " fill="#8A8A8A" transform="translate(136,201)"/>
<path d="M0 0 C0.7425 0.2475 1.485 0.495 2.25 0.75 C-0.75 2.75 -0.75 2.75 -2.75 2.75 C-2.75 3.41 -2.75 4.07 -2.75 4.75 C-3.41 4.75 -4.07 4.75 -4.75 4.75 C-5.08 5.74 -5.41 6.73 -5.75 7.75 C-6.74 7.75 -7.73 7.75 -8.75 7.75 C-6.95252408 3.55588951 -4.99386899 -0.45398809 0 0 Z " fill="#050505" transform="translate(253.75,174.25)"/>
<path d="M0 0 C1.2065625 0.0309375 1.2065625 0.0309375 2.4375 0.0625 C2.1075 0.7225 1.7775 1.3825 1.4375 2.0625 C0.4475 2.0625 -0.5425 2.0625 -1.5625 2.0625 C-1.5625 2.7225 -1.5625 3.3825 -1.5625 4.0625 C0.0875 4.3925 1.7375 4.7225 3.4375 5.0625 C3.4375 5.3925 3.4375 5.7225 3.4375 6.0625 C1.1275 6.0625 -1.1825 6.0625 -3.5625 6.0625 C-3.605221 4.39638095 -3.60313832 2.72867115 -3.5625 1.0625 C-2.5625 0.0625 -2.5625 0.0625 0 0 Z " fill="#5E5E5E" transform="translate(254.5625,185.9375)"/>
<path d="M0 0 C-0.99 0.33 -1.98 0.66 -3 1 C-3.33 1.66 -3.66 2.32 -4 3 C-3.01 3.33 -2.02 3.66 -1 4 C-7.15234375 3.4140625 -7.15234375 3.4140625 -9 3 C-9.33 2.34 -9.66 1.68 -10 1 C-3.71428571 -1.42857143 -3.71428571 -1.42857143 0 0 Z " fill="#772920" transform="translate(136,51)"/>
<path d="M0 0 C0.33 0.66 0.66 1.32 1 2 C-2.96 1.67 -6.92 1.34 -11 1 C-6.78915963 -1.80722691 -4.88445782 -0.94537893 0 0 Z " fill="#747474" transform="translate(260,173)"/>
<path d="M0 0 C1.98 0 3.96 0 6 0 C5.67 0.66 5.34 1.32 5 2 C4.34 2 3.68 2 3 2 C3 3.98 3 5.96 3 8 C1.5 6.8125 1.5 6.8125 0 5 C-0.1875 2.3125 -0.1875 2.3125 0 0 Z " fill="#6E6E6E" transform="translate(243,197)"/>
<path d="M0 0 C2.0625 0.4375 2.0625 0.4375 4 1 C1.03 3.475 1.03 3.475 -2 6 C-1.125 1.125 -1.125 1.125 0 0 Z " fill="#3F3F3F" transform="translate(247,174)"/>
</svg>
