<?xml version="1.0" encoding="UTF-8"?>
<svg version="1.1" xmlns="http://www.w3.org/2000/svg" width="300" height="300">
<path d="M0 0 C1.09151367 0.52722656 2.18302734 1.05445313 3.30761719 1.59765625 C5.68903068 2.76411708 8.06568104 3.93747258 10.43847656 5.12109375 C15.92704937 7.84359684 21.33123241 10.44573316 27.1640625 12.375 C40.11516897 16.91276658 45.1944498 23.45602184 51.05859375 35.4375 C53.24696254 40.01068197 55.29500134 44.63261658 57.24609375 49.3125 C59.05840116 48.88948512 60.87064784 48.46620869 62.68261719 48.04174805 C64.23248619 47.67881439 65.78261973 47.31700863 67.33300781 46.95629883 C72.83402933 45.66903237 78.29143868 44.26116721 83.73046875 42.73046875 C88.40037363 41.95456841 92.12241227 43.55733325 96.29296875 45.5625 C97.21980469 46.0059375 98.14664063 46.449375 99.1015625 46.90625 C100.05675781 47.3703125 101.01195312 47.834375 101.99609375 48.3125 C102.96675781 48.7765625 103.93742188 49.240625 104.9375 49.71875 C112.09683499 53.16324124 112.09683499 53.16324124 113.24609375 54.3125 C118.89371201 99.47146982 113.49437908 133.66701276 89.6628418 172.52685547 C84.09635943 181.73542032 79.72284494 191.54290307 75.24609375 201.3125 C73.37766259 205.32569298 71.4757301 209.32236256 69.55859375 213.3125 C69.15060547 214.199375 68.74261719 215.08625 68.32226562 216 C65.28723144 222.24668598 61.76955665 226.14705907 56.24609375 230.3125 C55.54830811 230.84891113 54.85052246 231.38532227 54.1315918 231.93798828 C51.91771274 233.61087525 49.68037534 235.24660951 47.43359375 236.875 C45.75385163 238.10278986 44.07416575 239.33065666 42.39453125 240.55859375 C41.54213867 241.17976074 40.68974609 241.80092773 39.81152344 242.44091797 C35.71801656 245.42729251 31.63786408 248.43172186 27.55859375 251.4375 C26.77307129 252.0159668 25.98754883 252.59443359 25.17822266 253.19042969 C18.11445677 258.39777753 11.09051708 263.65719619 4.07861328 268.93408203 C1.1368993 271.14683411 -1.80860818 273.35452223 -4.75390625 275.5625 C-5.72328125 276.28953125 -6.69265625 277.0165625 -7.69140625 277.765625 C-8.37203125 278.27609375 -9.05265625 278.7865625 -9.75390625 279.3125 C-12.47203991 278.01864895 -14.90325162 276.5958776 -17.34375 274.8359375 C-18.03500977 274.33811768 -18.72626953 273.84029785 -19.43847656 273.32739258 C-20.18194336 272.78622803 -20.92541016 272.24506348 -21.69140625 271.6875 C-22.47483398 271.11990967 -23.25826172 270.55231934 -24.06542969 269.9675293 C-31.19705233 264.77317644 -38.20505813 259.42167697 -45.20581055 254.05297852 C-50.08044502 250.32256098 -54.98576955 246.65982048 -60.00390625 243.125 C-65.31150189 239.36209881 -70.59164392 235.56481776 -75.81640625 231.6875 C-76.53151367 231.17292236 -77.24662109 230.65834473 -77.98339844 230.12817383 C-78.66176758 229.61923584 -79.34013672 229.11029785 -80.0390625 228.5859375 C-80.635979 228.14685059 -81.23289551 227.70776367 -81.84790039 227.25537109 C-86.72030539 222.28872591 -89.73427865 215.6478595 -92.79296875 209.46484375 C-93.15539169 208.73990219 -93.51781464 208.01496063 -93.89122009 207.26805115 C-95.05800894 204.93077935 -96.21867497 202.59053297 -97.37890625 200.25 C-98.19378678 198.61337317 -99.0088108 196.97681778 -99.82397461 195.34033203 C-103.18188027 188.58804224 -106.52485766 181.82930612 -109.78125 175.02734375 C-110.21058838 174.13080078 -110.63992676 173.23425781 -111.08227539 172.31054688 C-111.9187936 170.53259402 -112.73647756 168.74567979 -113.53686523 166.95117188 C-115.70237111 162.18531291 -118.00932538 157.82443765 -121.01531982 153.52664185 C-141.32926451 124.18154275 -136.3567914 88.34275453 -134.75390625 54.3125 C-133.72620117 53.7654541 -132.69849609 53.2184082 -131.63964844 52.65478516 C-130.27668248 51.92873014 -128.91372732 51.20265485 -127.55078125 50.4765625 C-126.87515137 50.11699463 -126.19952148 49.75742676 -125.50341797 49.38696289 C-122.66572793 47.87479554 -119.83432493 46.35721141 -117.02392578 44.79467773 C-110.89058939 41.43298079 -106.29772845 42.53879963 -99.75390625 44.3125 C-98.13571182 44.73420714 -96.51719522 45.15467905 -94.8984375 45.57421875 C-92.30477251 46.24958628 -89.71373825 46.93142898 -87.12744141 47.63452148 C-86.33257324 47.85052002 -85.53770508 48.06651855 -84.71875 48.2890625 C-84.00323975 48.48580566 -83.28772949 48.68254883 -82.55053711 48.88525391 C-80.73740503 49.38961748 -80.73740503 49.38961748 -78.75390625 49.3125 C-78.47716064 48.75377197 -78.20041504 48.19504395 -77.9152832 47.61938477 C-76.63453057 45.03682238 -75.35048615 42.45590954 -74.06640625 39.875 C-73.63134766 38.99650391 -73.19628906 38.11800781 -72.74804688 37.21289062 C-72.31298828 36.33955078 -71.87792969 35.46621094 -71.4296875 34.56640625 C-71.03692627 33.77564697 -70.64416504 32.9848877 -70.23950195 32.17016602 C-69.74925537 31.22713623 -69.25900879 30.28410645 -68.75390625 29.3125 C-68.26898209 28.24208214 -68.26898209 28.24208214 -67.77426147 27.15003967 C-64.70285848 20.84859238 -61.51719882 18.30599513 -55.19140625 15.48828125 C-54.36366699 15.09352097 -53.53592773 14.69876068 -52.68310547 14.29203796 C-50.05120796 13.04407928 -47.40375609 11.83429335 -44.75390625 10.625 C-43.0066519 9.80389745 -41.26054533 8.98034784 -39.515625 8.15429688 C-36.14675285 6.5639049 -32.76821228 4.99799541 -29.37890625 3.45166016 C-26.49327413 2.13152196 -23.64259493 0.76855125 -20.81640625 -0.67431641 C-19.68203125 -1.2419873 -18.54765625 -1.8096582 -17.37890625 -2.39453125 C-15.94417969 -3.13860229 -15.94417969 -3.13860229 -14.48046875 -3.89770508 C-9.25537474 -5.41124189 -4.6637644 -2.27140222 0 0 Z " fill="#4A602B" transform="translate(160.75390625,12.6875)"/>
<path d="M0 0 C6.6 2.97 13.2 5.94 20 9 C24.27904297 10.66289062 24.27904297 10.66289062 28.64453125 12.359375 C46.60437253 19.60634731 56.44673811 26.45688148 64.3449707 44.49902344 C65.66306127 47.63121253 66.864918 50.79643811 68 54 C69.81230741 53.57698512 71.62455409 53.15370869 73.43652344 52.72924805 C74.98639244 52.36631439 76.53652598 52.00450863 78.08691406 51.64379883 C83.58793558 50.35653237 89.04534493 48.94866721 94.484375 47.41796875 C99.15427988 46.64206841 102.87631852 48.24483325 107.046875 50.25 C108.43712891 50.91515625 108.43712891 50.91515625 109.85546875 51.59375 C110.81066406 52.0578125 111.76585937 52.521875 112.75 53 C113.72066406 53.4640625 114.69132812 53.928125 115.69140625 54.40625 C122.85074124 57.85074124 122.85074124 57.85074124 124 59 C129.64761826 104.15896982 124.24828533 138.35451276 100.41674805 177.21435547 C94.85026568 186.42292032 90.47675119 196.23040307 86 206 C84.13156884 210.01319298 82.22963635 214.00986256 80.3125 218 C79.90451172 218.886875 79.49652344 219.77375 79.07617188 220.6875 C76.04113769 226.93418598 72.5234629 230.83455907 67 235 C66.30221436 235.53641113 65.60442871 236.07282227 64.88549805 236.62548828 C62.67161899 238.29837525 60.43428159 239.93410951 58.1875 241.5625 C56.50775788 242.79028986 54.828072 244.01815666 53.1484375 245.24609375 C52.29604492 245.86726074 51.44365234 246.48842773 50.56542969 247.12841797 C46.47192281 250.11479251 42.39177033 253.11922186 38.3125 256.125 C37.52697754 256.7034668 36.74145508 257.28193359 35.93212891 257.87792969 C27.03312835 264.43819685 18.18599103 271.06811283 9.375 277.74609375 C8.81353271 278.17043701 8.25206543 278.59478027 7.67358398 279.03198242 C6.16768223 280.17047975 4.66384083 281.31170091 3.16015625 282.453125 C1 284 1 284 0 284 C0 190.28 0 96.56 0 0 Z " fill="#749C3D" transform="translate(150,8)"/>
<path d="M0 0 C10.5074875 2.21706807 20.79781442 4.61128818 31 8 C29.44347945 13.3537465 27.0182491 18.00150947 24.375 22.875 C23.95476562 23.65875 23.53453125 24.4425 23.1015625 25.25 C22.0718978 27.16892057 21.03652433 29.08477603 20 31 C17.31250338 27.72812144 14.88751943 24.41275464 12.6171875 20.83984375 C12.00746094 19.88142578 11.39773437 18.92300781 10.76953125 17.93554688 C10.14433594 16.94619141 9.51914062 15.95683594 8.875 14.9375 C8.24207031 13.94427734 7.60914063 12.95105469 6.95703125 11.92773438 C1.85678351 3.88753492 1.85678351 3.88753492 0 0 Z " fill="#749A3D" transform="translate(51,55)"/>
<path d="M0 0 C0.33 0.66 0.66 1.32 1 2 C0.10717773 3.92016602 0.10717773 3.92016602 -1.31640625 6.25390625 C-1.83396484 7.10919922 -2.35152344 7.96449219 -2.88476562 8.84570312 C-3.43841797 9.74224609 -3.99207031 10.63878906 -4.5625 11.5625 C-5.08908203 12.43197266 -5.61566406 13.30144531 -6.15820312 14.19726562 C-9.63007029 19.89588724 -13.2551257 25.47738362 -17 31 C-20.56177042 26.91679922 -22.89102338 22.63966512 -25.25 17.8125 C-25.61351562 17.08869141 -25.97703125 16.36488281 -26.3515625 15.61914062 C-29 10.2675047 -29 10.2675047 -29 8 C-25.66731218 7.03941238 -22.33373495 6.08194662 -19 5.125 C-18.06542969 4.85558594 -17.13085938 4.58617187 -16.16796875 4.30859375 C-10.80004672 2.76953918 -5.4264638 1.31822116 0 0 Z " fill="#4B612B" transform="translate(247,55)"/>
</svg>
