<?xml version="1.0" standalone="no"?>
<!DOCTYPE svg PUBLIC "-//W3C//DTD SVG 20010904//EN"
 "http://www.w3.org/TR/2001/REC-SVG-20010904/DTD/svg10.dtd">
<svg version="1.0" xmlns="http://www.w3.org/2000/svg"
 width="321.000000pt" height="411.000000pt" viewBox="0 0 321.000000 411.000000"
 preserveAspectRatio="xMidYMid meet">

<g transform="translate(0.000000,411.000000) scale(0.100000,-0.100000)"
fill="#000000" stroke="none">
<path d="M1373 3207 l-222 -142 -3 -151 -3 -150 155 -43 c85 -24 188 -53 228
-64 73 -20 75 -20 140 -2 119 32 110 34 114 -21 l3 -49 128 -36 128 -35 199
36 c110 20 202 38 204 41 2 2 -47 26 -110 54 l-114 50 0 133 0 134 -25 -6
c-14 -4 -50 -16 -80 -27 l-54 -20 -3 -69 -3 -69 -222 96 -223 96 0 193 c0 107
-3 194 -7 193 -5 -1 -108 -65 -230 -142z"/>
<path d="M873 2887 l-113 -72 0 -112 c0 -98 2 -112 18 -117 26 -7 345 -66 373
-68 27 -2 269 62 269 71 0 4 -93 29 -207 56 l-208 50 -3 133 c-1 72 -6 132
-10 132 -4 0 -58 -33 -119 -73z"/>
<path d="M1173 2462 l-413 -107 0 -147 0 -148 425 0 425 0 0 255 c0 198 -3
255 -12 254 -7 0 -199 -49 -425 -107z"/>
<path d="M760 1557 l0 -262 417 -265 c229 -146 420 -266 425 -268 4 -2 8 201
8 452 0 251 -4 456 -9 456 -4 0 -189 34 -410 75 -220 41 -408 75 -416 75 -13
0 -15 -36 -15 -263z"/>
</g>
</svg>
