<?xml version="1.0" encoding="UTF-8"?>
<svg version="1.1" xmlns="http://www.w3.org/2000/svg" width="519" height="589">
<path d="M0 0 C171.27 0 342.54 0 519 0 C519 194.37 519 388.74 519 589 C347.73 589 176.46 589 0 589 C0 394.63 0 200.26 0 0 Z " fill="#749B3D" transform="translate(0,0)"/>
<path d="M0 0 C110.88 0 221.76 0 336 0 C336 194.37 336 388.74 336 589 C164.73 589 -6.54 589 -183 589 C-183 528.28 -183 467.56 -183 405 C-171.74893375 408.37531987 -171.74893375 408.37531987 -167.57421875 409.84667969 C-166.62768433 410.17905136 -165.6811499 410.51142303 -164.70593262 410.85386658 C-163.70984985 411.20630936 -162.71376709 411.55875214 -161.6875 411.921875 C-160.08364441 412.48637108 -160.08364441 412.48637108 -158.4473877 413.06227112 C-154.96407092 414.28910608 -151.48199944 415.51943164 -148 416.75 C-145.54756046 417.61492507 -143.09508608 418.47975135 -140.64257812 419.34448242 C-124.93338316 424.88706925 -109.23800387 430.46766125 -93.5546875 436.08300781 C-78.39184038 441.51095662 -63.21411537 446.89669859 -48.0348587 452.27853394 C-30.5537913 458.47650576 -13.0739114 464.67747454 4.38977051 470.92431641 C6.84750723 471.8026745 9.30595264 472.67901799 11.76464844 473.5546875 C20.07093177 476.51438931 28.36940657 479.49370467 36.65615845 482.50773621 C41.0992872 484.12113326 45.54642002 485.72330294 49.99420166 487.32382202 C52.14556941 488.10101738 54.29515064 488.88317795 56.44281006 489.67056274 C59.42097134 490.76190315 62.40487974 491.83586529 65.390625 492.90625 C66.27608002 493.23558029 67.16153503 493.56491058 68.07382202 493.90422058 C76.43756575 496.86473911 82.03803431 494.79877145 90.1171875 491.88671875 C91.02226044 491.5650322 91.92733337 491.24334564 92.85983276 490.91191101 C95.86660911 489.84186832 98.87077661 488.76468735 101.875 487.6875 C103.99365719 486.93201143 106.11247561 486.17697489 108.23144531 485.42236328 C113.94947105 483.38457656 119.66523437 481.34051514 125.38049316 479.29498291 C132.81335461 476.63566246 140.24837449 473.98238131 147.68295288 471.3278656 C153.70972226 469.17578594 159.73606678 467.02253822 165.76123047 464.8659668 C177.36568983 460.71388097 188.97997732 456.59349401 200.61669922 452.53271484 C206.65069442 450.42591349 212.67025662 448.27911529 218.6875 446.125 C219.8827832 445.69775635 221.07806641 445.2705127 222.30957031 444.83032227 C227.76243912 442.87992859 233.21365605 440.92514326 238.66015625 438.95703125 C253.08566419 433.74446344 267.53976854 428.61532169 282 423.5 C301.69929944 416.53313674 301.69929944 416.53313674 321.375 409.5 C322.365 409.14486328 323.355 408.78972656 324.375 408.42382812 C325.24898438 408.10865234 326.12296875 407.79347656 327.0234375 407.46875 C327.75481934 407.20513672 328.48620117 406.94152344 329.23974609 406.66992188 C331.06754146 406.00782308 331.06754146 406.00782308 333 405 C325.70845494 403.8964932 318.41677297 402.79389436 311.125 401.69189453 C308.65003429 401.31774932 306.17509875 400.94340453 303.70019531 400.56884766 C300.120524 400.02712984 296.54075431 399.48606789 292.9609375 398.9453125 C291.23505402 398.68430756 291.23505402 398.68430756 289.4743042 398.41802979 C282.45347902 397.35948263 275.43003703 396.33619975 268.39306641 395.39013672 C266 395 266 395 263 394 C263 368.26 263 342.52 263 316 C244.19 316 225.38 316 206 316 C205.67 238.45 205.34 160.9 205 81 C192.13 76.05 179.26 71.1 166 66 C158.92151127 63.21305878 151.8446624 60.42624711 144.77890015 57.60794067 C129.45150582 51.49694614 114.09860917 45.45916349 98.6875 39.5625 C75.9966456 30.87963954 53.39010118 21.98281585 30.77978516 13.09277344 C26.69734274 11.48790674 22.61433298 9.88448613 18.53125 8.28125 C12.3536644 5.85544389 6.17653372 3.42848324 0 1 C0 0.67 0 0.34 0 0 Z " fill="#759B3D" transform="translate(183,0)"/>
<path d="M0 0 C110.88 0 221.76 0 336 0 C336 133.65 336 267.3 336 405 C325.11 403.515 325.11 403.515 314 402 C311.91510254 401.71632568 309.83020508 401.43265137 307.68212891 401.14038086 C303.25687658 400.53802143 298.83239667 399.93015371 294.40820312 399.32006836 C292.52789184 399.06160803 290.64735083 398.80481427 288.76660156 398.54956055 C285.9818333 398.17131446 283.19789684 397.78739568 280.4140625 397.40234375 C279.58379547 397.29083481 278.75352844 397.17932587 277.89810181 397.06443787 C277.10882294 396.95414749 276.31954407 396.84385712 275.50634766 396.73022461 C274.82657867 396.63712509 274.14680969 396.54402557 273.44644165 396.44810486 C269.92848078 395.80373414 266.46970245 394.86742561 263 394 C263 368.26 263 342.52 263 316 C244.19 316 225.38 316 206 316 C205.67 238.45 205.34 160.9 205 81 C192.13 76.05 179.26 71.1 166 66 C158.92151127 63.21305878 151.8446624 60.42624711 144.77890015 57.60794067 C129.45150582 51.49694614 114.09860917 45.45916349 98.6875 39.5625 C75.9966456 30.87963954 53.39010118 21.98281585 30.77978516 13.09277344 C26.69734274 11.48790674 22.61433298 9.88448613 18.53125 8.28125 C12.3536644 5.85544389 6.17653372 3.42848324 0 1 C0 0.67 0 0.34 0 0 Z " fill="#FEFEFE" transform="translate(183,0)"/>
<path d="M0 0 C0 144.87 0 289.74 0 439 C-4.68797106 438.33028985 -8.36709808 437.71868649 -12.75170898 436.32592773 C-14.37259682 435.81551186 -14.37259682 435.81551186 -16.02622986 435.29478455 C-17.17128494 434.92809158 -18.31634003 434.56139862 -19.49609375 434.18359375 C-20.68477554 433.80767593 -21.87345734 433.43175812 -23.09815979 433.04444885 C-26.2377099 432.05049564 -29.37570359 431.05181841 -32.51300049 430.05078125 C-35.72288876 429.0278845 -38.93477072 428.0112883 -42.14648438 426.99414062 C-48.43283544 425.00186078 -54.71697861 423.00275461 -61 421 C-61 417.04 -61 413.08 -61 409 C-62.41152344 409.30035156 -63.82304688 409.60070312 -65.27734375 409.91015625 C-67.16391801 410.29497986 -69.05064513 410.67905464 -70.9375 411.0625 C-71.86369141 411.26166016 -72.78988281 411.46082031 -73.74414062 411.66601562 C-85.91164859 414.09951722 -95.5936592 410.79890482 -107.125 407.0625 C-109.27451072 406.37478236 -111.42476389 405.68942979 -113.57516479 405.00450134 C-115.52153947 404.38317698 -117.46614872 403.75633009 -119.41064453 403.12915039 C-122.92168252 402.02463735 -126.46094698 401.01115801 -130 400 C-130 305.29 -130 210.58 -130 113 C-122.53223137 109.26611568 -115.0694482 106.10032087 -107.30957031 103.08911133 C-105.76680474 102.48684565 -104.22706452 101.8767734 -102.69042969 101.2590332 C-100.44592157 100.35697428 -98.19327671 99.47890481 -95.9375 98.60546875 C-95.26017822 98.32849655 -94.58285645 98.05152435 -93.88500977 97.76615906 C-93.23072998 97.51872452 -92.5764502 97.27128998 -91.90234375 97.01635742 C-91.34023193 96.79525803 -90.77812012 96.57415863 -90.19897461 96.34635925 C-81.88349778 95.03659318 -67.40018383 99.65259288 -61 101 C-61 77.24 -61 53.48 -61 29 C-51.491875 24.215 -41.98375 19.43 -32.1875 14.5 C-29.1868042 12.98599609 -26.1861084 11.47199219 -23.09448242 9.91210938 C-20.72338327 8.72218042 -18.35206072 7.53269646 -15.98046875 6.34375 C-15.36448318 6.03183716 -14.74849762 5.71992432 -14.11384583 5.39855957 C-12.30030907 4.48082836 -10.48262599 3.57130483 -8.66479492 2.66210938 C-7.64109299 2.14692749 -6.61739105 1.63174561 -5.56266785 1.10095215 C-3 0 -3 0 0 0 Z " fill="#4B612B" transform="translate(182,1)"/>
<path d="M0 0 C22.01003709 10.42580704 22.01003709 10.42580704 32.55761719 15.70933533 C33.32182983 16.0918791 34.08604248 16.47442287 34.87341309 16.86855888 C35.65768677 17.26127039 36.44196045 17.6539819 37.25 18.05859375 C38.92604896 18.89627963 40.60215715 19.733847 42.27832031 20.57130432 C45.75781057 22.31032065 49.23659082 24.05074659 52.71484375 25.79223633 C57.11323005 27.99427659 61.51340274 30.19271963 65.91412354 32.39008999 C69.36581288 34.11410458 72.81652441 35.84006926 76.26696777 37.566576 C77.88654465 38.37669164 79.50640455 39.18624178 81.12658691 39.9951458 C89.32917849 44.09174626 97.49542782 48.24210672 105.59423828 52.54052734 C119.86112132 60.09866773 134.31695915 67.29334412 148.7421875 74.54296875 C149.51016741 74.92893164 150.27814733 75.31489453 151.06939936 75.71255326 C158.32659346 79.35928963 165.58477325 83.00405908 172.84493828 86.64487743 C182.07475936 91.27365379 191.29975363 95.91178237 200.51877487 100.56203288 C207.04085074 103.85091073 213.56821729 107.12912479 220.09961426 110.39945203 C223.98806907 112.34680657 227.8740091 114.29883157 231.75426865 116.26247215 C235.38783967 118.1010177 239.02775579 119.92631528 242.67303085 121.741539 C244.00861113 122.40949388 245.34179873 123.0822576 246.67237091 123.76013374 C248.48697277 124.68370013 250.31113056 125.58841957 252.13571167 126.49211121 C253.15358198 127.00362323 254.17145229 127.51513525 255.22016716 128.04214764 C259.77114474 129.61028676 262.18820906 128.36274011 266.49823189 126.43685246 C267.87208759 125.7568556 269.24267702 125.07023536 270.61062622 124.37843323 C271.36920044 124.00078054 272.12777466 123.62312785 272.90933597 123.23403114 C275.45041843 121.96713092 277.98712003 120.69169932 280.52392578 119.41625977 C282.34577399 118.50573113 284.16788348 117.59572513 285.99023438 116.686203 C290.94421202 114.21178425 295.89441625 111.72990163 300.8439393 109.24658704 C306.03803982 106.64201003 311.2353888 104.04393095 316.43234253 101.4450531 C325.17549542 97.07162877 333.91638074 92.69370062 342.65576172 88.31274414 C353.82170714 82.71540531 364.99129297 77.1253727 376.16209602 71.53773594 C385.80927171 66.71214465 395.4547451 61.88315413 405.09995413 57.05363345 C408.17551566 55.51381777 411.25130295 53.9744538 414.32712173 52.43515205 C419.19870468 49.99688106 424.06921139 47.55647227 428.93894958 45.11451912 C430.71090497 44.22631315 432.48317466 43.33873383 434.25580978 42.45188522 C444.86341796 37.14419623 455.4029574 31.72426796 465.88412094 26.17080021 C471.3231896 23.29208319 476.81378296 20.5208279 482.3203125 17.7734375 C483.35646698 17.2548819 484.39262146 16.73632629 485.46017456 16.20205688 C487.60170345 15.13095791 489.74371913 14.06083165 491.88623047 12.99169922 C495.18479258 11.34515329 498.48113787 9.69422572 501.77734375 8.04296875 C503.87487144 6.99453442 505.97252281 5.94634749 508.0703125 4.8984375 C509.05548859 4.40483734 510.04066467 3.91123718 511.05569458 3.40267944 C512.40508621 2.73034775 512.40508621 2.73034775 513.78173828 2.04443359 C514.57492462 1.64823822 515.36811096 1.25204285 516.18533325 0.84384155 C518 0 518 0 519 0 C519 43.23 519 86.46 519 131 C347.73 131 176.46 131 0 131 C0 87.77 0 44.54 0 0 Z " fill="#FEFEFE" transform="translate(0,458)"/>
<path d="M0 0 C59.73 0 119.46 0 181 0 C177.82611688 2.38041234 175.12074249 4.06607462 171.62060547 5.8190918 C170.54624237 6.35942551 169.47187927 6.89975922 168.36495972 7.45646667 C166.63356247 8.31912895 166.63356247 8.31912895 164.8671875 9.19921875 C163.66688528 9.80004387 162.46670188 10.40110641 161.26663208 11.00239563 C158.75798541 12.25818976 156.24792145 13.51109217 153.73681641 14.76196289 C150.51482764 16.36724308 147.29650189 17.97971641 144.07919121 19.59434795 C141.6048597 20.83512131 139.12864136 22.07208928 136.65182877 23.30790138 C134.88585335 24.18989632 133.12149065 25.0751179 131.35714722 25.96037292 C130.28908844 26.49125015 129.22102966 27.02212738 128.12060547 27.5690918 C127.17780731 28.03969528 126.23500916 28.51029877 125.26364136 28.99516296 C123 30 123 30 121 30 C121 53.76 121 77.52 121 102 C113.92217146 101.29221715 108.54166709 100.48711823 101.95703125 98.5234375 C86.8472736 95.84879084 58.60128794 111.84565849 53 114 C52.67 207.39 52.34 300.78 52 397 C35.16706282 401.80941062 17.28077872 402.83990266 0 405 C0 271.35 0 137.7 0 0 Z " fill="#FEFEFE" transform="translate(0,0)"/>
<path d="M0 0 C0 29.7 0 59.4 0 90 C-28.69086953 99.18107825 -28.69086953 99.18107825 -38.12109375 102 C-39.74012352 102.48726562 -39.74012352 102.48726562 -41.39186096 102.984375 C-44.73979333 103.99164061 -48.08857689 104.99603388 -51.4375 106 C-55.8740487 107.33216798 -60.31021192 108.66561317 -64.74609375 110 C-65.8541185 110.33330826 -66.96214325 110.66661652 -68.10374451 111.01002502 C-75.44134641 113.22057997 -82.77047358 115.45731288 -90.09375 117.71484375 C-91.1346579 118.03557358 -92.1755658 118.35630341 -93.24801636 118.68675232 C-95.53285024 119.3908284 -97.81768078 120.09491531 -100.10250854 120.79901123 C-100.72528057 120.99090782 -101.3480526 121.18280441 -101.9896965 121.38051605 C-103.39225792 121.81272158 -104.79479563 122.24500402 -106.19731522 122.67734528 C-116.44520448 125.83579136 -126.69741741 128.97948447 -136.95826817 132.09559059 C-141.49825697 133.47485383 -146.03599754 134.86079572 -150.56958008 136.26098633 C-155.03655956 137.64033974 -159.50834427 139.00291334 -163.98394585 140.35401726 C-165.66694673 140.86520162 -167.34817679 141.38225789 -169.02745247 141.90555 C-171.36280604 142.63219699 -173.70374672 143.3370707 -176.04711914 144.03735352 C-176.72197357 144.25279816 -177.396828 144.4682428 -178.09213257 144.69021606 C-197.18098115 150.25850774 -232.43268053 132.92877127 -242 130 C-242 91.06 -242 52.12 -242 12 C-235.65667609 12 -229.81412046 12.095885 -223.59765625 12.875 C-222.0306315 13.05757122 -220.46357304 13.23985323 -218.89648438 13.421875 C-216.49449719 13.70740385 -214.09301084 13.9962541 -211.69213867 14.29101562 C-209.32836583 14.57880907 -206.96323167 14.85247048 -204.59765625 15.125 C-203.91776138 15.21249512 -203.23786652 15.29999023 -202.53736877 15.39013672 C-186.00200964 17.26297513 -169.45882668 15.6021621 -152.99609375 13.86328125 C-150.77699462 13.63638023 -148.55778863 13.41052225 -146.33848572 13.18562317 C-141.64293297 12.70890232 -136.94787701 12.2276477 -132.25311279 11.7432251 C-120.08025979 10.4910032 -107.90105805 9.30226051 -95.72265625 8.10546875 C-93.26085074 7.86324401 -90.79904858 7.62098528 -88.33724976 7.37869263 C-84.63770909 7.01459737 -80.93815453 6.6506468 -77.23855019 6.28719902 C-70.95291143 5.66958585 -64.6675238 5.04958004 -58.38256836 4.42504883 C-52.13861699 3.80469695 -45.89412819 3.1900439 -39.64922905 2.57930946 C-37.3116401 2.34970803 -34.9742471 2.1181014 -32.63707161 1.88432884 C-29.40056459 1.56091701 -26.16341627 1.24484369 -22.92602539 0.93041992 C-21.99265854 0.83541702 -21.05929169 0.74041412 -20.09764099 0.64253235 C-13.30543588 -0.0060612 -6.9049171 0 0 0 Z " fill="#749B3D" transform="translate(446,317)"/>
<path d="M0 0 C7.18942722 2.08224681 14.25716792 4.42549524 21.3125 6.921875 C22.91635559 7.48637108 22.91635559 7.48637108 24.5526123 8.06227112 C28.03592908 9.28910608 31.51800056 10.51943164 35 11.75 C37.45243954 12.61492507 39.90491392 13.47975135 42.35742188 14.34448242 C58.06661684 19.88706925 73.76199613 25.46766125 89.4453125 31.08300781 C103.9309286 36.26852357 118.430025 41.41575616 132.93127441 46.55734253 C175.32927383 61.59007634 217.67942531 76.75040745 260 92 C259.67 121.7 259.34 151.4 259 182 C254.5048501 181.10097002 251.64096906 180.00687117 247.60421753 177.9858551 C246.97631699 177.67353925 246.34841645 177.3612234 245.70148861 177.03944343 C243.60262669 175.99364737 241.50815833 174.93934431 239.41357422 173.88500977 C237.90699286 173.13211466 236.40015015 172.37974235 234.89306641 171.62785339 C230.79856344 169.58317032 226.70783855 167.53103159 222.61779165 165.47745252 C218.32056548 163.3213046 214.02008453 161.1716674 209.72000122 159.02122498 C202.48335743 155.40105549 195.24898285 151.77638545 188.01611328 148.14868164 C178.78725468 143.51990105 169.55476923 138.89840489 160.32105827 134.27931309 C152.3347114 130.28413264 144.35006596 126.28555576 136.36568308 122.28645205 C133.82615102 121.01465517 131.28639565 119.74330512 128.74660873 118.47201729 C97.93870044 103.04831855 97.93870044 103.04831855 85.25259399 96.30235481 C77.75918558 92.32088548 70.17356472 88.52947978 62.5764122 84.7506237 C60.03643434 83.48717511 57.4978264 82.22100816 54.95950317 80.95423889 C49.59915152 78.27968377 44.23718862 75.60836985 38.875 72.9375 C32.5907452 69.80720237 26.30716985 66.67555509 20.02524185 63.54059029 C17.52373379 62.29307604 15.02103617 61.04797128 12.51828003 59.80296326 C11.00285117 59.04706282 9.48747734 58.29105205 7.97216797 57.53491211 C6.92829926 57.01685249 6.92829926 57.01685249 5.86334229 56.48832703 C1.11384304 54.11384304 1.11384304 54.11384304 0 53 C-0.09346915 51.34261557 -0.11744977 49.68125356 -0.11352539 48.02124023 C-0.11344986 46.96021591 -0.11337433 45.89919159 -0.11329651 44.80601501 C-0.10813522 43.651866 -0.10297394 42.49771698 -0.09765625 41.30859375 C-0.0962413 40.13361832 -0.09482635 38.95864288 -0.09336853 37.74806213 C-0.08774992 33.97784936 -0.07519426 30.20769496 -0.0625 26.4375 C-0.0574874 23.88867273 -0.05292408 21.33984453 -0.04882812 18.79101562 C-0.03777444 12.52732367 -0.02101821 6.26366601 0 0 Z " fill="#4A602B" transform="translate(0,405)"/>
<path d="M0 0 C14.9391456 1.90841311 29.86013976 3.91695448 44.76074219 6.10717773 C46.87573759 6.41640213 48.9913246 6.72160155 51.10742188 7.02319336 C54.21617081 7.46645873 57.32302472 7.92127791 60.4296875 8.37890625 C61.38044159 8.51228897 62.33119568 8.64567169 63.3107605 8.78309631 C64.1774234 8.91340744 65.0440863 9.04371857 65.93701172 9.17797852 C66.70036835 9.28884293 67.46372498 9.39970734 68.25021362 9.51393127 C68.82764313 9.67433395 69.40507263 9.83473663 70 10 C70.33 10.66 70.66 11.32 71 12 C69.15160522 12.65633423 69.15160522 12.65633423 67.26586914 13.32592773 C61.53117533 15.36245036 55.79678436 17.39982477 50.0625 19.4375 C49.0296991 19.80447998 47.99689819 20.17145996 46.93280029 20.54956055 C35.3215596 24.67600954 23.71322872 28.80929138 12.125 33 C3.78396633 36.01473881 -4.58041297 38.95489381 -12.96118164 41.85717773 C-33.88881002 49.11239407 -54.7306369 56.61552375 -75.58706665 64.07229614 C-86.01273826 67.79917047 -96.44207942 71.51540676 -106.87890625 75.2109375 C-107.87566376 75.56400467 -108.87242126 75.91707184 -109.89938354 76.28083801 C-114.94035101 78.06566347 -119.98268192 79.8464917 -125.02734375 81.62084961 C-134.06915297 84.80549326 -143.09736412 88.01554944 -152.07846069 91.36825562 C-155.9432455 92.81062894 -159.81370888 94.23742812 -163.68432617 95.6640625 C-165.49904019 96.33864627 -167.31067873 97.02157056 -169.11889648 97.71337891 C-171.61237946 98.66709338 -174.11492557 99.59195953 -176.62109375 100.51171875 C-177.3408287 100.79613327 -178.06056366 101.08054779 -178.80210876 101.37358093 C-184.43073656 103.39076057 -188.3728592 102.80016002 -194 101 C-195.29726768 100.58579552 -195.29726768 100.58579552 -196.6207428 100.16322327 C-199.56990461 99.18100904 -202.49806507 98.14982874 -205.42578125 97.10546875 C-206.51270264 96.72229996 -207.59962402 96.33913116 -208.71948242 95.9443512 C-212.25235032 94.69726376 -215.78245573 93.44255547 -219.3125 92.1875 C-221.78723831 91.31184883 -224.26209287 90.43652613 -226.73706055 89.56152344 C-240.28558716 84.76603637 -253.81753475 79.92605916 -267.3258667 75.01855469 C-283.49569664 69.14575132 -299.71766803 63.42030964 -315.9375 57.6875 C-317.3700994 57.18108836 -318.80269624 56.6746695 -320.23529053 56.16824341 C-325.88760479 54.17017426 -331.53997309 52.17225802 -337.19241333 50.17454529 C-372.84030618 37.57505199 -408.43557891 24.83319285 -444 12 C-444 11.34 -444 10.68 -444 10 C-415.12888755 5.84749204 -415.12888755 5.84749204 -403.98046875 4.39453125 C-400.65004762 3.95367603 -397.32501733 3.47977038 -394 3 C-394 4.32 -394 5.64 -394 7 C-393.46375 7.08419189 -392.9275 7.16838379 -392.375 7.25512695 C-386.89325799 8.22603994 -381.65601007 9.67144816 -376.375 11.41796875 C-375.35865479 11.75152878 -375.35865479 11.75152878 -374.32177734 12.09182739 C-371.50268959 13.02027169 -368.68561498 13.95325873 -365.87695312 14.9128418 C-357.63204152 17.71676005 -350.74048994 19.79059972 -342 18 C-340.43646289 17.80836465 -338.87125968 17.62984076 -337.3046875 17.46484375 C-335.82801667 17.28997484 -334.35145247 17.11420309 -332.875 16.9375 C-332.10929687 16.84662109 -331.34359375 16.75574219 -330.5546875 16.66210938 C-328.70302762 16.44222476 -326.85149905 16.2212348 -325 16 C-325 19.96 -325 23.92 -325 28 C-323.74316406 28.2582959 -322.48632812 28.5165918 -321.19140625 28.78271484 C-315.65959142 30.0142099 -310.32213528 31.72199655 -304.9375 33.4765625 C-302.82048407 34.15418207 -300.70329109 34.83124873 -298.5859375 35.5078125 C-295.28615066 36.56645725 -291.98779198 37.62897202 -288.69238281 38.70117188 C-285.4860718 39.74224396 -282.27485128 40.76680529 -279.0625 41.7890625 C-277.59961548 42.27181137 -277.59961548 42.27181137 -276.10717773 42.76431274 C-267.92573012 45.3459208 -261.05679669 45.89875412 -252.75 43.5 C-248.79110056 42.36888587 -246.23907107 42 -242 42 C-242 45.63 -242 49.26 -242 53 C-240.55834473 53.26659424 -239.11668945 53.53318848 -237.63134766 53.80786133 C-232.25827439 54.88439953 -227.11163808 56.40154463 -221.8984375 58.07421875 C-220.00801144 58.66535014 -218.11738019 59.25582563 -216.2265625 59.84570312 C-213.29065659 60.76717209 -210.35654664 61.69340416 -207.42578125 62.63110352 C-204.56678714 63.54314745 -201.70211654 64.4350543 -198.8359375 65.32421875 C-197.96802582 65.60746506 -197.10011414 65.89071136 -196.2059021 66.18254089 C-186.07547717 69.28879465 -178.02373594 66.3018949 -168.18359375 63.28125 C-166.2893185 62.70871345 -164.39504261 62.13617904 -162.50073624 61.5637455 C-160.50744854 60.96009244 -158.51513773 60.35331476 -156.52310181 59.74554443 C-150.37326261 57.86931918 -144.21792566 56.01125775 -138.06321526 54.15108871 C-136.04657227 53.54133317 -134.03017456 52.93077182 -132.0138092 52.32009888 C-121.42755665 49.11615448 -110.82075638 45.99266839 -100.17553711 42.99023438 C-92.85740431 40.90384014 -85.61782961 38.61036892 -78.375 36.27734375 C-65.99963059 32.29223192 -53.57722768 28.47656149 -41.12915039 24.7253418 C-37.64292877 23.67405939 -34.15835172 22.61744211 -30.67382812 21.56054688 C-28.41155449 20.87728572 -26.14918811 20.19433153 -23.88671875 19.51171875 C-22.86777023 19.20231857 -21.84882172 18.8929184 -20.79899597 18.57414246 C-13.91117888 16.50474864 -6.98788912 14.70210739 0 13 C0 8.71 0 4.42 0 0 Z " fill="#B6C99C" transform="translate(446,394)"/>
<path d="M0 0 C0 104.61 0 209.22 0 317 C-13.49283909 313.62679023 -13.49283909 313.62679023 -18.39453125 312.02734375 C-19.45220703 311.68509766 -20.50988281 311.34285156 -21.59960938 310.99023438 C-22.65986328 310.64283203 -23.72011719 310.29542969 -24.8125 309.9375 C-26.96452148 309.23729002 -29.11685692 308.53804407 -31.26953125 307.83984375 C-32.20385986 307.53425537 -33.13818848 307.22866699 -34.10083008 306.91381836 C-37.3814244 305.87977503 -40.69264487 304.94495861 -44 304 C-44 209.29 -44 114.58 -44 17 C-38.62194421 14.3109721 -33.43844041 11.88205154 -27.8515625 9.765625 C-26.7436586 9.34129181 -26.7436586 9.34129181 -25.6133728 8.90838623 C-24.06966927 8.3182783 -22.52519557 7.73018139 -20.97998047 7.14404297 C-18.60815434 6.24360473 -16.23951457 5.33513366 -13.87109375 4.42578125 C-12.36476484 3.85108652 -10.85826068 3.27685089 -9.3515625 2.703125 C-8.64327301 2.43131409 -7.93498352 2.15950317 -7.20523071 1.87945557 C-2.23051185 0 -2.23051185 0 0 0 Z " fill="#4A602A" transform="translate(96,97)"/>
<path d="M0 0 C0.33 0 0.66 0 1 0 C1 129.36 1 258.72 1 392 C0.67 392 0.34 392 0 392 C0 388.04 0 384.08 0 380 C-2.20429687 380.433125 -2.20429687 380.433125 -4.453125 380.875 C-6.38537883 381.25019492 -8.31767259 381.6251842 -10.25 382 C-11.70212891 382.28617187 -11.70212891 382.28617187 -13.18359375 382.578125 C-14.58544922 382.84882812 -14.58544922 382.84882812 -16.015625 383.125 C-16.87446289 383.29257812 -17.73330078 383.46015625 -18.61816406 383.6328125 C-21 384 -21 384 -25 384 C-25 279.39 -25 174.78 -25 67 C-16.61726356 68.39712274 -8.28073287 70.08906165 0 72 C0 48.24 0 24.48 0 0 Z " fill="#749B3E" transform="translate(121,30)"/>
<path d="M0 0 C11.25221525 0 11.25221525 0 15.15844727 0.44311523 C16.03537735 0.5399913 16.91230743 0.63686737 17.81581116 0.73667908 C19.17735573 0.89602684 19.17735573 0.89602684 20.56640625 1.05859375 C21.52651108 1.1672023 22.48661591 1.27581085 23.47581482 1.38771057 C25.48361793 1.61618969 27.49111015 1.84741637 29.49829102 2.08129883 C32.58462836 2.44007233 35.6720591 2.78799431 38.75976562 3.13476562 C40.71621897 3.35873708 42.67260199 3.58332386 44.62890625 3.80859375 C45.55482071 3.91280136 46.48073517 4.01700897 47.43470764 4.12437439 C48.7075486 4.27441673 48.7075486 4.27441673 50.00610352 4.42749023 C50.75537613 4.51409409 51.50464874 4.60069794 52.27662659 4.68992615 C54 5 54 5 55 6 C55.09611419 7.6575762 55.12187755 9.31926986 55.12025452 10.97962952 C55.12162918 12.0580159 55.12300385 13.13640228 55.12442017 14.24746704 C55.11902725 16.03741592 55.11902725 16.03741592 55.11352539 17.86352539 C55.11367142 19.11212845 55.11381744 20.36073151 55.1139679 21.64717102 C55.11338891 25.08090994 55.10835955 28.51458938 55.10139394 31.94831777 C55.09515998 35.53312459 55.09455657 39.11793213 55.09336853 42.70274353 C55.09025534 49.49550045 55.08204212 56.28824135 55.07201904 63.08099121 C55.06085753 70.81242494 55.05534736 78.54385942 55.05032361 86.27529919 C55.03985949 102.18354234 55.02205982 118.09176848 55 134 C36.47674135 129.36918534 18.24901166 123.61508051 0 118 C0 79.06 0 40.12 0 0 Z " fill="#4B612B" transform="translate(204,329)"/>
<path d="M0 0 C0 0.33 0 0.66 0 1 C-0.89580764 1.08585373 -0.89580764 1.08585373 -1.80971241 1.17344189 C-16.623705 2.5932463 -31.43763665 4.01368506 -46.25150776 5.43475628 C-54.11327397 6.18890763 -61.97506836 6.9427637 -69.83690941 7.69613445 C-75.38132952 8.22747369 -80.92568746 8.75945952 -86.47002876 9.29162037 C-90.61062316 9.68893614 -94.75132118 10.08515186 -98.89209306 10.48061335 C-112.5381566 11.78436412 -126.18120598 13.11078365 -139.81787109 14.51025391 C-143.266438 14.86084506 -146.71505879 15.21090212 -150.16368675 15.56089211 C-153.28953592 15.88136392 -156.41417719 16.21208864 -159.53889465 16.54338074 C-175.32449305 18.17374063 -190.90600032 18.85522136 -206.69921875 16.90625 C-207.67115677 16.79526978 -208.64309479 16.68428955 -209.64448547 16.56994629 C-212.66009498 16.22333676 -215.67371027 15.86205327 -218.6875 15.5 C-220.76876539 15.25812453 -222.85014546 15.01723382 -224.93164062 14.77734375 C-229.95581615 14.19619245 -234.97827013 13.60190323 -240 13 C-240 12.67 -240 12.34 -240 12 C-239.06397949 11.93530518 -238.12795898 11.87061035 -237.16357422 11.80395508 C-232.40064888 11.47443766 -227.63781857 11.14355655 -222.875 10.8125 C-221.48615097 10.71604691 -221.48615097 10.71604691 -220.06924438 10.61764526 C-206.24503229 9.65663175 -192.42250789 8.67344329 -178.60106468 7.67350388 C-170.43002306 7.08242452 -162.25875584 6.49493866 -154.08666992 5.91845703 C-152.95487415 5.83859904 -152.95487415 5.83859904 -151.80021381 5.75712776 C-148.74935958 5.54196565 -145.69849672 5.32692914 -142.64759254 5.11247635 C-134.7089634 4.5542553 -126.77116312 3.98867176 -118.8359375 3.38378906 C-79.12780388 0.35960223 -39.7956622 -0.52240358 0 0 Z " fill="#B6C99C" transform="translate(446,316)"/>
</svg>
