<?xml version="1.0" standalone="no"?>
<!DOCTYPE svg PUBLIC "-//W3C//DTD SVG 20010904//EN"
 "http://www.w3.org/TR/2001/REC-SVG-20010904/DTD/svg10.dtd">
<svg version="1.0" xmlns="http://www.w3.org/2000/svg"
 width="2400.000000pt" height="2925.000000pt" viewBox="0 0 2400.000000 2925.000000"
 preserveAspectRatio="xMidYMid meet">

<g transform="translate(0.000000,2925.000000) scale(0.100000,-0.100000)"
fill="#000000" stroke="none">
<path d="M5987 26218 l-5988 -3022 7 -8556 c4 -4705 8 -8557 10 -8559 4 -4
11965 -6041 11970 -6041 2 0 4 6570 4 14600 0 8030 -3 14600 -7 14600 -5 0
-2703 -1360 -5996 -3022z m2493 -12432 l0 -6823 -3412 1024 c-1877 563 -3437
1031 -3465 1039 l-53 15 -2 5600 c-3 5502 -3 5600 16 5595 11 -3 760 -109
1665 -236 l1646 -231 1795 420 c987 231 1798 420 1803 420 4 1 7 -3070 7
-6823z"/>
<path d="M15520 21465 l0 -855 23 -5 c12 -3 805 -188 1762 -411 957 -222 1757
-409 1778 -415 l37 -10 0 -5127 0 -5128 193 -27 c105 -14 851 -119 1656 -232
806 -113 1471 -203 1478 -201 11 4 13 980 11 5593 l-3 5588 -65 23 c-59 21
-6854 2062 -6865 2062 -3 0 -5 -385 -5 -855z"/>
</g>
</svg>
