<?xml version="1.0" encoding="UTF-8"?>
<svg version="1.1" xmlns="http://www.w3.org/2000/svg" width="300" height="300">
<path d="M0 0 C0.59309967 0.2657785 1.18619934 0.53155701 1.79727173 0.8053894 C3.88117299 1.74467076 5.94034665 2.72746815 8 3.71875 C8.7755423 4.08847427 9.55108459 4.45819855 10.35012817 4.83912659 C12.90159873 6.05627631 15.45075689 7.27819287 18 8.5 C19.79912725 9.35903886 21.59844673 10.21767521 23.39794922 11.07592773 C27.11190492 12.84742791 30.82519298 14.62031657 34.53808594 16.39404297 C41.95146352 19.93345622 49.3759942 23.4492344 56.80160522 26.96289062 C59.12365429 28.0618631 61.44530961 29.16166311 63.7668457 30.26171875 C71.17977324 33.77393074 78.59467495 37.28188065 86.01385498 40.78086853 C89.5528382 42.45018557 93.09100142 44.12123636 96.62908936 45.79244995 C98.32223948 46.59160372 100.01579665 47.38989572 101.70977783 48.18728638 C104.0510168 49.28940115 106.39087973 50.394388 108.73046875 51.5 C109.42543961 51.82620834 110.12041046 52.15241669 110.83644104 52.48851013 C113.70982756 53.84939265 116.34838301 55.23225534 119 57 C119.36914349 59.83857918 119.36914349 59.83857918 119.36076355 63.54251099 C119.36332682 64.22208953 119.3658901 64.90166807 119.36853105 65.6018399 C119.37349136 67.88990836 119.35693989 70.17732389 119.34057617 72.46533203 C119.33973038 74.10107406 119.3402041 75.73681723 119.34190369 77.37255859 C119.34276694 81.82281051 119.32508793 86.27282147 119.30418181 90.72301722 C119.2854699 95.37017258 119.28366891 100.01733304 119.28010559 104.66452026 C119.27076895 113.4689166 119.24613334 122.27320162 119.21605712 131.07754886 C119.18256339 141.09915431 119.16603977 151.12076497 119.15097082 161.14241242 C119.11958515 181.76167049 119.06679329 202.38082824 119 223 C116.63786049 224.26991793 114.27459088 225.53765247 111.91064453 226.80419922 C111.25026688 227.15951218 110.58988922 227.51482513 109.90950012 227.88090515 C103.67808599 231.21570126 97.30859095 234.20098391 90.875 237.125 C88.42358491 238.25071735 85.97284156 239.37774093 83.5234375 240.5078125 C82.90237122 240.79416565 82.28130493 241.0805188 81.64141846 241.37554932 C74.88667655 244.49926469 68.19294786 247.74655276 61.5 251 C50.76842897 256.21277157 39.99064244 261.30860845 29.14599609 266.28344727 C23.49893516 268.88009767 17.89409313 271.52993661 12.34375 274.328125 C11.29364746 274.85188721 10.24354492 275.37564941 9.16162109 275.9152832 C7.19255911 276.90234716 5.23130526 277.90520587 3.27978516 278.92651367 C2.40628418 279.3619751 1.5327832 279.79743652 0.6328125 280.24609375 C-0.12112793 280.63466553 -0.87506836 281.0232373 -1.65185547 281.42358398 C-7.3778489 282.82918499 -13.94783121 278.23826589 -19.0546875 275.7890625 C-20.34525558 275.1749501 -20.34525558 275.1749501 -21.66189575 274.5484314 C-24.4011577 273.24386577 -27.13805326 271.93441472 -29.875 270.625 C-31.70688752 269.75230239 -33.53891741 268.87990358 -35.37109375 268.0078125 C-37.1407506 267.16432596 -38.91028584 266.32058422 -40.6796875 265.4765625 C-41.49452606 265.08787994 -42.30936462 264.69919739 -43.14889526 264.29873657 C-44.32018478 263.7382814 -44.32018478 263.7382814 -45.51513672 263.16650391 C-46.1898703 262.8438858 -46.86460388 262.5212677 -47.55978394 262.18887329 C-51.05340452 260.48678131 -54.52408263 258.73795868 -58 257 C-58 244.46 -58 231.92 -58 219 C-65.78251156 220.92413015 -65.78251156 220.92413015 -73.53125 222.9765625 C-84.9475444 225.47012154 -93.3417728 221.23409026 -104 217 C-104.495 204.625 -104.495 204.625 -105 192 C-107.64 192.33 -110.28 192.66 -113 193 C-115.08151901 193.10706378 -117.16577401 193.17385978 -119.25 193.1875 C-120.24515625 193.20167969 -121.2403125 193.21585938 -122.265625 193.23046875 C-125 193 -125 193 -129 191 C-129 179.78 -129 168.56 -129 157 C-111.74493243 155.84966216 -111.74493243 155.84966216 -103.0625 155.9375 C-102.17626953 155.94201172 -101.29003906 155.94652344 -100.37695312 155.95117188 C-98.25127083 155.96266205 -96.12562463 155.98057805 -94 156 C-93.67 156.99 -93.34 157.98 -93 159 C-92.40058594 158.9278125 -91.80117187 158.855625 -91.18359375 158.78125 C-80.13496282 157.64966902 -69.09710682 157.93548194 -58 158 C-58 146.45 -58 134.9 -58 123 C-67.27371153 123.03943821 -67.27371153 123.03943821 -76.54736328 123.09008789 C-77.70993652 123.09258545 -78.87250977 123.09508301 -80.0703125 123.09765625 C-81.84559326 123.10551147 -81.84559326 123.10551147 -83.65673828 123.11352539 C-86.86153532 123.00470177 -89.85476612 122.60517483 -93 122 C-93.495 123.485 -93.495 123.485 -94 125 C-98.33331896 125.0292427 -102.66661221 125.04688017 -107 125.0625 C-108.22074219 125.07087891 -109.44148438 125.07925781 -110.69921875 125.08789062 C-111.89160156 125.09111328 -113.08398438 125.09433594 -114.3125 125.09765625 C-115.94638672 125.10551147 -115.94638672 125.10551147 -117.61328125 125.11352539 C-121.42481909 124.98575974 -125.21577106 124.47302862 -129 124 C-129 112.78 -129 101.56 -129 90 C-120.01883629 86.40753452 -113.8265149 88.21336093 -104 90 C-104 81.42 -104 72.84 -104 64 C-101.36 63.01 -98.72 62.02 -96 61 C-95.03545898 60.5884668 -94.07091797 60.17693359 -93.07714844 59.75292969 C-84.83345259 56.47381675 -78.73564438 57.2277305 -70.25 59.25 C-66.2075 60.1575 -62.165 61.065 -58 62 C-58 49.13 -58 36.26 -58 23 C-34.42566568 11.21283284 -34.42566568 11.21283284 -25.74169922 7.0234375 C-24.142359 6.24735989 -22.54671928 5.46361668 -20.95458984 4.67285156 C-18.61120989 3.51041364 -16.25674915 2.37396124 -13.8984375 1.2421875 C-13.19214203 0.88510712 -12.48584656 0.52802673 -11.75814819 0.16012573 C-7.02129072 -2.06914734 -4.7029674 -2.24492792 0 0 Z " fill="#749B3D" transform="translate(155,10)"/>
<path d="M0 0 C0 93.72 0 187.44 0 284 C-11.91241531 278.63941311 -23.76465011 273.27911654 -35.5 267.5625 C-36.77201344 266.94571192 -38.04414907 266.32917578 -39.31640625 265.71289062 C-43.88833047 263.49625343 -48.45539485 261.27230258 -53 259 C-53 246.46 -53 233.92 -53 221 C-60.78251156 222.92413015 -60.78251156 222.92413015 -68.53125 224.9765625 C-79.9475444 227.47012154 -88.3417728 223.23409026 -99 219 C-99.495 206.625 -99.495 206.625 -100 194 C-102.64 194.33 -105.28 194.66 -108 195 C-110.08151901 195.10706378 -112.16577401 195.17385978 -114.25 195.1875 C-115.24515625 195.20167969 -116.2403125 195.21585938 -117.265625 195.23046875 C-120 195 -120 195 -124 193 C-124 181.78 -124 170.56 -124 159 C-106.74493243 157.84966216 -106.74493243 157.84966216 -98.0625 157.9375 C-97.17626953 157.94201172 -96.29003906 157.94652344 -95.37695312 157.95117188 C-93.25127083 157.96266205 -91.12562463 157.98057805 -89 158 C-88.67 158.99 -88.34 159.98 -88 161 C-87.40058594 160.9278125 -86.80117187 160.855625 -86.18359375 160.78125 C-75.13496282 159.64966902 -64.09710682 159.93548194 -53 160 C-53 148.45 -53 136.9 -53 125 C-62.27371153 125.03943821 -62.27371153 125.03943821 -71.54736328 125.09008789 C-72.70993652 125.09258545 -73.87250977 125.09508301 -75.0703125 125.09765625 C-76.84559326 125.10551147 -76.84559326 125.10551147 -78.65673828 125.11352539 C-81.86153532 125.00470177 -84.85476612 124.60517483 -88 124 C-88.495 125.485 -88.495 125.485 -89 127 C-93.33331896 127.0292427 -97.66661221 127.04688017 -102 127.0625 C-103.22074219 127.07087891 -104.44148438 127.07925781 -105.69921875 127.08789062 C-106.89160156 127.09111328 -108.08398438 127.09433594 -109.3125 127.09765625 C-110.94638672 127.10551147 -110.94638672 127.10551147 -112.61328125 127.11352539 C-116.42481909 126.98575974 -120.21577106 126.47302862 -124 126 C-124 114.78 -124 103.56 -124 92 C-115.01883629 88.40753452 -108.8265149 90.21336093 -99 92 C-99 83.42 -99 74.84 -99 66 C-96.36 65.01 -93.72 64.02 -91 63 C-90.03545898 62.5884668 -89.07091797 62.17693359 -88.07714844 61.75292969 C-79.83345259 58.47381675 -73.73564438 59.2277305 -65.25 61.25 C-61.2075 62.1575 -57.165 63.065 -53 64 C-53 51.13 -53 38.26 -53 25 C-34.5500465 15.77502325 -34.5500465 15.77502325 -27.59765625 12.5 C-26.82360947 12.13398682 -26.04956268 11.76797363 -25.25205994 11.39086914 C-23.65747467 10.63745458 -22.06247299 9.88492069 -20.46704102 9.13330078 C-18.01118461 7.97581419 -15.55729957 6.81421638 -13.10351562 5.65234375 C-11.53917637 4.91382126 -9.97472763 4.17553061 -8.41015625 3.4375 C-7.67805435 3.09074219 -6.94595245 2.74398438 -6.19166565 2.38671875 C-1.11495928 0 -1.11495928 0 0 0 Z " fill="#4B612B" transform="translate(150,8)"/>
<path d="M0 0 C0.88623047 0.00451172 1.77246094 0.00902344 2.68554688 0.01367188 C4.81122917 0.02516205 6.93687537 0.04307805 9.0625 0.0625 C9.5575 1.5475 9.5575 1.5475 10.0625 3.0625 C10.94421875 2.95421875 10.94421875 2.95421875 11.84375 2.84375 C23.36373736 1.65202717 34.26003124 2.0625 46.0625 2.0625 C46.0625 22.1925 46.0625 42.3225 46.0625 63.0625 C23.98078015 67.6628583 17.64330201 67.91755317 -0.9375 61.0625 C-1.4325 48.6875 -1.4325 48.6875 -1.9375 36.0625 C-4.5775 36.3925 -7.2175 36.7225 -9.9375 37.0625 C-12.01901901 37.16956378 -14.10327401 37.23635978 -16.1875 37.25 C-17.68023437 37.27126953 -17.68023437 37.27126953 -19.203125 37.29296875 C-21.9375 37.0625 -21.9375 37.0625 -25.9375 35.0625 C-25.9375 23.8425 -25.9375 12.6225 -25.9375 1.0625 C-8.68243243 -0.08783784 -8.68243243 -0.08783784 0 0 Z " fill="#749B3E" transform="translate(51.9375,165.9375)"/>
<path d="M0 0 C1.17755859 0.24814453 2.35511719 0.49628906 3.56835938 0.75195312 C12.08772667 2.58772667 12.08772667 2.58772667 13.3125 3.8125 C13.40620624 5.59241924 13.42994271 7.37606739 13.42602539 9.15844727 C13.42591209 10.87010826 13.42591209 10.87010826 13.42579651 12.61634827 C13.42063522 13.8579924 13.41547394 15.09963654 13.41015625 16.37890625 C13.4087413 17.64266586 13.40732635 18.90642548 13.40586853 20.20848083 C13.40120582 23.57374889 13.3922148 26.9389499 13.38116455 30.30419922 C13.37094846 33.73599659 13.36631578 37.16780108 13.36132812 40.59960938 C13.35112263 47.33727754 13.33155091 54.07482771 13.3125 60.8125 C1.4325 60.8125 -10.4475 60.8125 -22.6875 60.8125 C-23.0175 62.4625 -23.3475 64.1125 -23.6875 65.8125 C-28.02081896 65.8417427 -32.35411221 65.85938017 -36.6875 65.875 C-37.90824219 65.88337891 -39.12898438 65.89175781 -40.38671875 65.90039062 C-41.57910156 65.90361328 -42.77148438 65.90683594 -44 65.91015625 C-45.63388672 65.91801147 -45.63388672 65.91801147 -47.30078125 65.92602539 C-51.11231909 65.79825974 -54.90327106 65.28552862 -58.6875 64.8125 C-58.6875 53.5925 -58.6875 42.3725 -58.6875 30.8125 C-49.70633629 27.22003452 -43.5140149 29.02586093 -33.6875 30.8125 C-33.6875 22.2325 -33.6875 13.6525 -33.6875 4.8125 C-31.0475 3.8225 -28.4075 2.8325 -25.6875 1.8125 C-24.72223389 1.40169189 -23.75696777 0.99088379 -22.76245117 0.56762695 C-14.54765681 -2.69277397 -8.47474582 -1.99717179 0 0 Z " fill="#4B612C" transform="translate(84.6875,69.1875)"/>
<path d="M0 0 C25 5 25 5 26 6 C26.09370624 7.77991924 26.11744271 9.56356739 26.11352539 11.34594727 C26.11344986 12.4870546 26.11337433 13.62816193 26.11329651 14.80384827 C26.10813522 16.0454924 26.10297394 17.28713654 26.09765625 18.56640625 C26.0962413 19.83016586 26.09482635 21.09392548 26.09336853 22.39598083 C26.08870582 25.76124889 26.0797148 29.1264499 26.06866455 32.49169922 C26.05844846 35.9234967 26.05387049 39.35530109 26.04882812 42.78710938 C26.0377738 49.52475824 26.0210171 56.26237525 26 63 C23.16660035 63.02724423 20.33346883 63.04695589 17.5 63.0625 C16.70851563 63.07087891 15.91703125 63.07925781 15.1015625 63.08789062 C14.31523438 63.09111328 13.52890625 63.09433594 12.71875 63.09765625 C12.00654297 63.10289307 11.29433594 63.10812988 10.56054688 63.11352539 C7.02432384 62.95674205 3.51236295 62.43904537 0 62 C0 41.54 0 21.08 0 0 Z " fill="#749B3D" transform="translate(72,67)"/>
<path d="M0 0 C16 1 16 1 21 2 C21 22.46 21 42.92 21 64 C14.07 61.69 7.14 59.38 0 57 C0 38.19 0 19.38 0 0 Z " fill="#4B612C" transform="translate(51,170)"/>
<path d="M0 0 C0.88623047 0.00451172 1.77246094 0.00902344 2.68554688 0.01367188 C4.81122917 0.02516205 6.93687537 0.04307805 9.0625 0.0625 C9.5575 1.5475 9.5575 1.5475 10.0625 3.0625 C10.94421875 2.95421875 10.94421875 2.95421875 11.84375 2.84375 C23.21768539 1.66713599 34.6427764 1.97246094 46.0625 2.0625 C46.0625 3.0525 46.0625 4.0425 46.0625 5.0625 C41.88597937 5.23286774 37.70921598 5.3930635 33.53198242 5.54467773 C32.11716758 5.59736297 30.70244544 5.65261336 29.2878418 5.71069336 C6.76541746 6.63013915 6.76541746 6.63013915 -0.9375 4.0625 C-0.92964478 5.46326782 -0.92964478 5.46326782 -0.92163086 6.89233398 C-0.9046238 10.34562796 -0.89206698 13.79887767 -0.88256836 17.25219727 C-0.87752879 18.74894918 -0.87069713 20.24569616 -0.86206055 21.74243164 C-0.84997841 23.88949807 -0.84426809 26.03649962 -0.83984375 28.18359375 C-0.83198853 30.12383423 -0.83198853 30.12383423 -0.82397461 32.10327148 C-0.9375 35.0625 -0.9375 35.0625 -1.9375 36.0625 C-9.82615895 37.40208359 -18.65759524 38.70245238 -25.9375 35.0625 C-25.9375 23.8425 -25.9375 12.6225 -25.9375 1.0625 C-8.68243243 -0.08783784 -8.68243243 -0.08783784 0 0 Z " fill="#789E43" transform="translate(51.9375,165.9375)"/>
<path d="M0 0 C0 10.56 0 21.12 0 32 C3.63 32 7.26 32 11 32 C10.67 32.99 10.34 33.98 10 35 C5.66668104 35.0292427 1.33338779 35.04688017 -3 35.0625 C-4.22074219 35.07087891 -5.44148438 35.07925781 -6.69921875 35.08789062 C-7.89160156 35.09111328 -9.08398438 35.09433594 -10.3125 35.09765625 C-11.94638672 35.10551147 -11.94638672 35.10551147 -13.61328125 35.11352539 C-17.42481909 34.98575974 -21.21577106 34.47302862 -25 34 C-25 22.78 -25 11.56 -25 0 C-16.01883629 -3.59246548 -9.8265149 -1.78663907 0 0 Z " fill="#749B3D" transform="translate(51,100)"/>
<path d="M0 0 C0 11.55 0 23.1 0 35 C13.365 35.495 13.365 35.495 27 36 C27 36.33 27 36.66 27 37 C22.66668104 37.0292427 18.33338779 37.04688017 14 37.0625 C12.77925781 37.07087891 11.55851562 37.07925781 10.30078125 37.08789062 C9.10839844 37.09111328 7.91601562 37.09433594 6.6875 37.09765625 C5.05361328 37.10551147 5.05361328 37.10551147 3.38671875 37.11352539 C-0.42481909 36.98575974 -4.21577106 36.47302862 -8 36 C-8 24.78 -8 13.56 -8 2 C-3 0 -3 0 0 0 Z " fill="#495E2B" transform="translate(34,98)"/>
<path d="M0 0 C2.64 0 5.28 0 8 0 C8 11.55 8 23.1 8 35 C1 34 1 34 0 33 C-0.08843793 30.55169574 -0.11528752 28.13179401 -0.09765625 25.68359375 C-0.0962413 24.95253922 -0.09482635 24.22148468 -0.09336853 23.46827698 C-0.08775408 21.12464368 -0.07519922 18.78110461 -0.0625 16.4375 C-0.05748686 14.85221492 -0.05292363 13.26692834 -0.04882812 11.68164062 C-0.03777997 7.7877239 -0.02050572 3.89387795 0 0 Z " fill="#4B612C" transform="translate(26,168)"/>
<path d="M0 0 C0 0.99 0 1.98 0 3 C-4.26811816 3.169023 -8.53645194 3.32941546 -12.80517578 3.48217773 C-14.25415544 3.53520491 -15.70305419 3.59049773 -17.15185547 3.64819336 C-31.97156783 4.23546659 -31.97156783 4.23546659 -39 3 C-29.41084579 -3.39276947 -11.08568175 -0.0874053 0 0 Z " fill="#B2C697" transform="translate(98,168)"/>
<path d="M0 0 C4.32331963 -0.02480062 8.64660106 -0.04290758 12.9699707 -0.05493164 C14.43937909 -0.05994669 15.90878252 -0.06676033 17.37817383 -0.07543945 C19.49561795 -0.08762928 21.61299583 -0.09325669 23.73046875 -0.09765625 C25.63928833 -0.10551147 25.63928833 -0.10551147 27.58666992 -0.11352539 C30.5370919 -0.01539606 33.13946675 0.30936165 36 1 C36 1.66 36 2.32 36 3 C31.83740639 3.0248456 27.67485287 3.04292862 23.51220703 3.05493164 C22.09813687 3.0599392 20.68407184 3.06674718 19.27001953 3.07543945 C17.22947927 3.08766256 15.18900788 3.0932642 13.1484375 3.09765625 C11.31031494 3.10551147 11.31031494 3.10551147 9.43505859 3.11352539 C6.19567151 3.00646676 3.17816803 2.61478618 0 2 C0 1.34 0 0.68 0 0 Z " fill="#3C4928" transform="translate(62,130)"/>
<path d="M0 0 C5.61 0 11.22 0 17 0 C17 0.99 17 1.98 17 3 C15.02 3.33 13.04 3.66 11 4 C11.66 3.34 12.32 2.68 13 2 C8.71 1.67 4.42 1.34 0 1 C0 0.67 0 0.34 0 0 Z " fill="#8BAA5F" transform="translate(45,167)"/>
</svg>
