<?xml version="1.0" standalone="no"?>
<!DOCTYPE svg PUBLIC "-//W3C//DTD SVG 20010904//EN"
 "http://www.w3.org/TR/2001/REC-SVG-20010904/DTD/svg10.dtd">
<svg version="1.0" xmlns="http://www.w3.org/2000/svg"
 width="447.000000pt" height="447.000000pt" viewBox="0 0 447.000000 447.000000"
 preserveAspectRatio="xMidYMid meet">

<g transform="translate(0.000000,447.000000) scale(0.100000,-0.100000)"
fill="#000000" stroke="none">
<path d="M1261 4041 l-395 -198 -208 -244 -208 -244 2 -210 c3 -178 5 -210 18
-212 8 -1 37 -5 63 -8 l48 -6 -3 -52 -3 -52 -62 -33 -63 -33 0 -209 0 -209 63
-3 62 -3 0 -90 0 -90 -63 -3 -62 -3 0 -209 0 -209 63 -33 62 -33 3 -52 c3 -52
3 -52 -30 -57 -18 -3 -46 -7 -63 -8 l-30 -3 -3 -210 -2 -210 207 -243 208
-244 397 -199 398 -199 575 0 575 0 0 378 0 378 158 48 c198 61 603 187 619
193 10 4 13 -62 15 -295 l3 -301 60 71 c33 39 126 148 207 242 l147 171 1 206
c0 225 2 219 -58 219 -64 0 -73 8 -70 63 l3 50 63 35 62 34 0 208 0 209 -62 3
-63 3 0 90 0 90 63 3 62 3 0 209 0 209 -62 33 -63 33 -3 52 -3 52 48 6 c26 3
55 7 63 8 13 2 15 34 18 210 l2 208 -27 33 c-16 18 -109 128 -208 245 l-180
211 -5 -298 -5 -299 -392 120 -393 121 0 378 0 378 -577 -1 -578 0 -394 -198z
m1978 -986 l356 -82 3 -301 2 -302 -26 0 c-33 0 -473 18 -641 26 l-123 6 0
374 0 375 36 -7 c20 -4 197 -44 393 -89z m359 -1257 l-3 -302 -355 -81 c-195
-45 -372 -85 -392 -89 l-38 -7 0 375 0 374 113 6 c155 9 495 23 595 24 l82 2
-2 -302z"/>
</g>
</svg>
