<?xml version="1.0" encoding="UTF-8"?>
<svg version="1.1" xmlns="http://www.w3.org/2000/svg" width="1067" height="2042">
<path d="M0 0 C1.36973528 0.67516409 2.73516329 1.3591106 4.09703559 2.04999781 C5.23649279 2.61604018 5.23649279 2.61604018 6.39896932 3.19351774 C8.95079253 4.46362099 11.49673838 5.74508183 14.04287738 7.02653742 C15.88666345 7.94720055 17.73080013 8.86716181 19.57525718 9.78647995 C24.64849357 12.31764648 29.71667594 14.85878998 34.78410274 17.40156293 C40.2474417 20.14082867 45.71538414 22.87087632 51.18276995 25.60205317 C60.65696216 30.33639297 70.12821021 35.07657409 79.59739131 39.82092524 C89.52974066 44.79732184 99.46365025 49.77058071 109.39969462 54.73959589 C110.01744772 55.04853736 110.63520082 55.35747883 111.27167372 55.67578216 C113.77919989 56.92979521 116.28673806 58.18378428 118.79429179 59.43774224 C141.64809521 70.86629559 164.49807924 82.30246366 187.34565753 93.74345636 C208.9275722 104.55065659 230.51172928 115.35335986 252.09858721 126.15068293 C252.76386393 126.48344281 253.42914065 126.81620268 254.11457726 127.1590462 C257.46532294 128.83503005 260.81607237 130.51100641 264.16682316 132.18698004 C265.15858082 132.68303607 265.15858082 132.68303607 266.170374 133.18911344 C267.50356417 133.85594561 268.83675515 134.52277618 270.16994694 135.18960514 C291.37845875 145.79759436 312.58530749 156.40890749 333.79172057 167.02109155 C340.00505951 170.13038582 346.21845961 173.23955774 352.43201488 176.34841967 C365.49950811 182.8866017 378.56641715 189.42594563 391.63149933 195.96894491 C397.03661174 198.67581121 402.44203187 201.38205796 407.84830493 204.08660555 C412.78900078 206.55828088 417.72877198 209.0317936 422.6677806 211.50683862 C424.46268297 212.40590093 426.25792745 213.30428062 428.05353222 214.20193928 C430.47813018 215.41417625 432.90150353 216.6288258 435.32455939 217.84414148 C436.39135334 218.37642574 436.39135334 218.37642574 437.47969869 218.91946322 C442.28203057 221.33290558 442.28203057 221.33290558 443.39619464 222.44706964 C443.50526354 224.49701753 443.54310719 226.5507628 443.55441302 228.60357904 C443.559351 229.25371829 443.56428898 229.90385754 443.56937659 230.57369798 C443.58482271 232.76789533 443.59313131 234.96206328 443.6015169 237.15629816 C443.61108985 238.72293087 443.62109958 240.28956097 443.63151568 241.8561883 C443.65863407 246.12250527 443.67960596 250.38883339 443.69951767 254.65518928 C443.7213346 259.10886241 443.74874422 263.56250093 443.77557391 268.01614618 C443.82555903 276.45571898 443.87047619 284.89531094 443.91359627 293.3349213 C443.96291903 302.94058866 444.0178555 312.5462213 444.07327586 322.15185511 C444.1871852 341.9168943 444.29400465 361.68196662 444.39619464 381.44706964 C445.24651263 381.78675272 446.09683062 382.12643579 446.97291583 382.4764123 C455.03397908 385.69680996 463.0946998 388.91806319 471.15504855 392.14024878 C475.2977458 393.79628934 479.44056914 395.45201285 483.58369464 397.10698175 C487.5910814 398.70774401 491.59811867 400.30937831 495.60492724 401.91158724 C497.12440146 402.51901084 498.64399586 403.12613387 500.16371936 403.73293352 C502.31218015 404.59084021 504.46018871 405.44987055 506.6081087 406.30913019 C508.43345141 407.03860109 508.43345141 407.03860109 510.29566973 407.78280878 C515.67769472 409.96718609 521.0345798 412.21306346 526.39619464 414.44706964 C526.39619464 514.43706964 526.39619464 614.42706964 526.39619464 717.44706964 C498.80952314 721.38802272 471.08701059 724.3206872 443.39619464 727.44706964 C443.39619464 771.33706964 443.39619464 815.22706964 443.39619464 860.44706964 C396.90440561 863.45636287 396.90440561 863.45636287 377.41181964 864.71269464 C363.9562939 865.57995751 350.50081334 866.44788431 337.0456087 867.32011652 C327.24597416 867.95537372 317.44619666 868.58837075 307.6462422 869.21867418 C302.45909735 869.55237437 297.27203019 869.88719231 292.08513278 870.22471857 C287.19837858 870.54267776 282.31143813 870.85760374 277.42434138 871.17025232 C275.63530548 871.28523263 273.84633904 871.40129992 272.05745143 871.5185647 C269.60447658 871.67919412 267.15127569 871.8358147 264.69798297 871.99150324 C263.99950405 872.03819462 263.30102513 872.084886 262.58138019 872.13299227 C257.15404686 872.47094064 251.86710883 872.44706964 246.39619464 872.44706964 C246.39619464 920.62706964 246.39619464 968.80706964 246.39619464 1018.44706964 C311.40619464 1018.44706964 376.41619464 1018.44706964 443.39619464 1018.44706964 C443.41681964 1045.48644464 443.43744464 1072.52581964 443.45869464 1100.38456964 C443.46779864 1108.93741877 443.47690264 1117.49026789 443.48628253 1126.30229425 C443.49079913 1136.7079339 443.49079913 1136.7079339 443.49163836 1141.57184076 C443.4925739 1144.9851367 443.49633676 1148.39841724 443.5017702 1151.81170893 C443.50859654 1156.15715574 443.5106919 1160.50257996 443.50926691 1164.84803164 C443.50956517 1166.44806915 443.51156735 1168.04810739 443.51540977 1169.64814031 C443.52033767 1171.79903636 443.51920161 1173.94984308 443.51644915 1176.10074091 C443.51737095 1177.30921151 443.51829274 1178.51768211 443.51924247 1179.76277304 C443.39619464 1182.44706964 443.39619464 1182.44706964 442.39619464 1183.44706964 C439.57175405 1183.7820281 436.762325 1184.05685258 433.92915362 1184.29497004 C433.02702419 1184.37438806 432.12489476 1184.45380608 431.19542807 1184.5356307 C428.26139893 1184.79288398 425.3268738 1185.04390624 422.39228839 1185.29472589 C420.58630377 1185.45215356 418.78035451 1185.60998734 416.97444171 1185.76823664 C410.26128756 1186.35361266 403.547448 1186.93110659 396.83369464 1187.50956964 C381.83931964 1188.80894464 366.84494464 1190.10831964 351.39619464 1191.44706964 C351.39619464 1245.89706964 351.39619464 1300.34706964 351.39619464 1356.44706964 C295.3396374 1367.79832811 295.3396374 1367.79832811 277.89228839 1371.31425714 C276.09193039 1371.67706089 276.09193039 1371.67706089 274.25520152 1372.047194 C246.04161651 1377.73082063 217.81744679 1383.36064922 189.58780307 1388.96393824 C185.89607326 1389.69709375 182.20456202 1390.43134057 178.51310748 1391.16588068 C172.69342666 1392.32371299 166.87316699 1393.478589 161.05242747 1394.63108683 C158.91222266 1395.05524988 156.77219911 1395.4803287 154.63237208 1395.90639353 C151.70325756 1396.4893609 148.77346147 1397.06877303 145.84346026 1397.64726496 C144.99745226 1397.81643993 144.15144425 1397.98561491 143.27979964 1398.1599164 C142.48535476 1398.31600815 141.69090989 1398.4720999 140.87239093 1398.6329217 C140.19629023 1398.76696028 139.52018954 1398.90099886 138.82360095 1399.03909922 C135.3647672 1399.62042006 131.8764549 1400.01203711 128.39619464 1400.44706964 C128.39619464 1423.87706964 128.39619464 1447.30706964 128.39619464 1471.44706964 C131.36619464 1471.77706964 134.33619464 1472.10706964 137.39619464 1472.44706964 C139.04921765 1472.75357835 140.69719854 1473.09175067 142.3324129 1473.48227167 C143.6383794 1473.78996752 143.6383794 1473.78996752 144.97072905 1474.10387945 C146.35840971 1474.43944341 146.35840971 1474.43944341 147.77412432 1474.78178644 C148.77875625 1475.02011603 149.78338818 1475.25844563 150.8184635 1475.50399733 C154.15289649 1476.29635406 157.48545207 1477.09633353 160.81806964 1477.89628839 C163.1990924 1478.46359014 165.58023438 1479.03039171 167.961487 1479.59672785 C173.04466375 1480.80671278 178.12707443 1482.01985853 183.20878619 1483.23597956 C191.17082181 1485.14135227 199.13454747 1487.03959569 207.09858721 1488.9365716 C209.78757608 1489.57714458 212.47655412 1490.21776296 215.16552752 1490.85840082 C215.83308324 1491.01743763 216.50063896 1491.17647444 217.18842363 1491.34033054 C221.94036476 1492.47252271 226.69204863 1493.60579053 231.44363421 1494.73947382 C248.8905226 1498.90173095 266.34204064 1503.04401775 283.79853839 1507.16581964 C284.89344466 1507.42440067 285.98835093 1507.6829817 287.11643618 1507.94939852 C296.4619875 1510.15641991 305.80783631 1512.36217877 315.15412921 1514.56605768 C319.87219311 1515.67864733 324.58995849 1516.79249445 329.30751246 1517.90724421 C331.02079239 1518.31180858 332.73419267 1518.71586371 334.44772166 1519.11937189 C336.762464 1519.66446239 339.07681072 1520.211202 341.39106768 1520.75834894 C342.06478789 1520.91654454 342.7385081 1521.07474014 343.43264407 1521.23772955 C346.13584171 1521.8784024 348.758376 1522.56779677 351.39619464 1523.44706964 C351.39619464 1579.54706964 351.39619464 1635.64706964 351.39619464 1693.44706964 C345.02923558 1696.34114194 338.79506974 1699.17450803 332.28681964 1701.66191339 C330.7413984 1702.25986653 329.19598885 1702.85784986 327.65058917 1703.45585871 C326.83995013 1703.76817438 326.02931109 1704.08049006 325.19410723 1704.40226984 C307.57982135 1711.19312664 290.04058101 1718.16559847 272.52119464 1725.19706964 C253.07621326 1732.99879899 233.59847007 1740.71089488 214.08601397 1748.34224176 C201.79755085 1753.14837281 189.51618316 1757.96863164 177.27119464 1762.88456964 C167.32303733 1766.87688026 157.37075618 1770.85820853 147.40357989 1774.80281305 C145.91102376 1775.39408482 144.41894908 1775.98657351 142.9273836 1776.58033991 C140.87138471 1777.39854831 138.81372455 1778.21242775 136.75556964 1779.02519464 C135.57446612 1779.4934466 134.39336261 1779.96169855 133.17646807 1780.44413996 C130.39619464 1781.44706964 130.39619464 1781.44706964 128.39619464 1781.44706964 C128.39619464 1844.47706964 128.39619464 1907.50706964 128.39619464 1972.44706964 C106.47209651 1983.98606866 106.47209651 1983.98606866 96.88545245 1988.83061457 C95.78201495 1989.38963465 94.67857745 1989.94865473 93.54170245 1990.52461481 C83.57186837 1995.57156186 73.59143557 2000.59759458 63.60712069 2005.61582708 C56.25771196 2009.31010508 48.91452923 2013.01623632 41.57866043 2016.73733109 C36.37598933 2019.37508008 31.16650866 2021.99904493 25.95183462 2024.61298305 C22.85251467 2026.16706084 19.75653786 2027.72706826 16.66790026 2029.30228472 C13.23980549 2031.05026765 9.7978417 2032.76969071 6.35420245 2034.48686457 C4.83775134 2035.26817995 4.83775134 2035.26817995 3.29066485 2036.06527948 C-2.1135434 2038.7277233 -5.63117346 2040.41449189 -11.60380536 2038.44706964 C-15.92793164 2036.59394595 -20.12222784 2034.5093452 -24.31620771 2032.38261652 C-25.59596331 2031.74285217 -26.87615731 2031.10396412 -28.15675336 2030.46588373 C-31.61954331 2028.7373333 -35.07601674 2026.99648883 -38.53141338 2025.25321627 C-42.14961128 2023.43031749 -45.77334098 2021.61848121 -49.39643842 2019.80534601 C-55.47392898 2016.76200512 -61.54770746 2013.71136637 -67.61894208 2010.65556574 C-76.19070428 2006.3412152 -84.76938324 2002.04076143 -93.34933525 1997.7427268 C-99.28724743 1994.76755098 -105.2235073 1991.78908021 -111.15945083 1988.80997896 C-112.60030485 1988.08686899 -114.04120495 1987.36385084 -115.48215038 1986.64092302 C-119.58487372 1984.58242447 -123.68655976 1982.52188777 -127.78656369 1980.45797777 C-129.03069948 1979.83203983 -130.27517442 1979.20677549 -131.52000409 1978.58221865 C-133.21272575 1977.7327632 -134.90408016 1976.88058481 -136.59535199 1976.0282464 C-137.54400317 1975.55113466 -138.49265435 1975.07402292 -139.47005254 1974.58245325 C-141.60380536 1973.44706964 -141.60380536 1973.44706964 -142.60380536 1972.44706964 C-142.70151231 1969.98075693 -142.73376634 1967.54247967 -142.72405988 1965.0757165 C-142.72534152 1963.90449711 -142.72534152 1963.90449711 -142.72664905 1962.70961672 C-142.72830622 1960.07316874 -142.72277862 1957.43678332 -142.71733075 1954.80034113 C-142.71704891 1952.91844417 -142.71720657 1951.0365471 -142.71777326 1949.15465021 C-142.71806133 1944.0288303 -142.71216303 1938.90303356 -142.7051993 1933.77721906 C-142.69896738 1928.426697 -142.69836209 1923.07617448 -142.69717389 1917.72564936 C-142.6940601 1907.58608607 -142.68584606 1897.4465335 -142.6758244 1887.30697495 C-142.66466476 1875.76666491 -142.65915319 1864.22635437 -142.65412897 1852.68604028 C-142.64366349 1828.93971078 -142.62606312 1805.19339081 -142.60380536 1781.44706964 C-143.33253354 1781.31794152 -144.06126172 1781.1888134 -144.81207258 1781.0557723 C-147.45320119 1780.47990701 -149.76524675 1779.7085753 -152.27152997 1778.70782709 C-153.17990613 1778.34753412 -154.08828229 1777.98724115 -155.024185 1777.61603022 C-156.00823316 1777.22068583 -156.99228132 1776.82534143 -158.00614911 1776.41801691 C-159.57527555 1775.79351145 -159.57527555 1775.79351145 -161.17610151 1775.15638971 C-164.63279996 1773.7794688 -168.08704562 1772.39650211 -171.54130536 1771.01347589 C-173.94341934 1770.05525367 -176.34568384 1769.0974087 -178.74809247 1768.13992548 C-184.42749663 1765.87533216 -190.10536679 1763.6069332 -195.78251153 1761.33668274 C-202.22669656 1758.75994447 -208.67282195 1756.18807806 -215.11911565 1753.61662066 C-230.28355183 1747.5672924 -245.44503373 1741.5105783 -260.60380536 1735.44706964 C-260.60380536 1450.65706964 -260.60380536 1165.86706964 -260.60380536 872.44706964 C-269.18380536 872.11706964 -277.76380536 871.78706964 -286.60380536 871.44706964 C-292.82309933 871.09929063 -299.03775575 870.7338126 -305.25273114 870.32377863 C-306.94125525 870.21496936 -308.62979864 870.10645921 -310.3183592 869.99821711 C-314.80241148 869.7099583 -319.28618998 869.41763985 -323.76992255 869.12445569 C-328.49286397 868.81636907 -333.21605817 868.51220516 -337.93922406 868.20758295 C-346.83856742 867.63303984 -355.73768595 867.05509012 -364.63672417 866.47584206 C-376.6935322 865.69125583 -388.75069005 864.91208281 -400.80782682 864.13256788 C-419.74010403 862.9084231 -438.67191241 861.67717658 -457.60380536 860.44706964 C-457.60380536 816.55706964 -457.60380536 772.66706964 -457.60380536 727.44706964 C-480.42909228 724.90078015 -480.42909228 724.90078015 -503.25517255 722.36162043 C-507.70780927 721.86284113 -507.70780927 721.86284113 -509.80381757 721.62721491 C-511.24232415 721.46611306 -512.68097166 721.30626616 -514.11973554 721.14747858 C-516.32148638 720.90422251 -518.52273159 720.6567607 -520.72392255 720.40849543 C-521.95858258 720.27081751 -523.19324262 720.13313959 -524.46531659 719.99128962 C-529.86476592 719.28125068 -535.23196814 718.34237585 -540.60380536 717.44706964 C-540.60380536 617.45706964 -540.60380536 517.46706964 -540.60380536 414.44706964 C-513.3788272 403.18156144 -485.99568575 392.30045621 -458.60380536 381.44706964 C-458.27380536 328.64706964 -457.94380536 275.84706964 -457.60380536 221.44706964 C-371.9738415 178.49961089 -371.9738415 178.49961089 -329.7250517 157.33832026 C-329.09431762 157.02240099 -328.46358355 156.70648172 -327.81373632 156.38098914 C-314.10703105 149.5156656 -300.39996937 142.65105394 -286.69254025 135.78717577 C-279.97067557 132.42125397 -273.24888969 129.05517483 -266.52714521 125.689013 C-265.85824023 125.35403748 -265.18933526 125.01906196 -264.50016044 124.67393566 C-242.80891191 113.8112581 -221.12288914 102.93819559 -199.4395446 92.05975038 C-177.16189439 80.883213 -154.87902857 69.71714368 -132.58952233 58.56426817 C-129.44316534 56.98993701 -126.29686836 55.41548597 -123.15060788 53.84096193 C-122.53136101 53.5310688 -121.91211413 53.22117567 -121.2741022 52.90189184 C-111.29564171 47.90792994 -101.3227601 42.90292405 -91.35190759 37.89379262 C-81.33403187 32.8613321 -71.31027277 27.84074925 -61.28074716 22.83153503 C-55.8441161 20.11579018 -50.41026121 17.39482761 -44.98322278 14.65995646 C-40.01945314 12.15868444 -35.0485979 9.67214497 -30.07157315 7.19735796 C-28.26786224 6.29720022 -26.46687276 5.39156536 -24.66886602 4.48006725 C-22.23254947 3.24595903 -19.78727931 2.03180983 -17.33867437 0.82231283 C-16.28419735 0.27931224 -16.28419735 0.27931224 -15.20841777 -0.27465805 C-9.1847015 -3.20392968 -5.99732418 -2.58433124 0 0 Z M-11.45365888 304.73784113 C-12.28145856 305.02395761 -13.10925824 305.3100741 -13.96214277 305.60486078 C-14.87643049 305.92275064 -15.7907182 306.24064051 -16.73271161 306.56816339 C-17.68897443 306.89946756 -18.64523725 307.23077173 -19.63047773 307.57211542 C-22.80972446 308.67443908 -25.98806157 309.77935789 -29.16630536 310.88456964 C-30.79673276 311.45071985 -30.79673276 311.45071985 -32.46009809 312.02830744 C-51.08554461 318.49675195 -69.68152302 325.04679749 -88.2602995 331.64799738 C-89.19615384 331.98046976 -90.13200818 332.31294214 -91.09622175 332.65548944 C-92.92299802 333.30466395 -94.74963177 333.9542397 -96.57611066 334.60425043 C-101.17634591 336.23930499 -105.78119647 337.85948515 -110.39433271 339.45781183 C-111.32404386 339.78047022 -112.25375501 340.1031286 -113.21163923 340.43556452 C-114.98509642 341.05004476 -116.75940499 341.66207483 -118.53466779 342.27131891 C-122.36145434 343.34458289 -122.36145434 343.34458289 -125.60380536 345.44706964 C-125.70071208 346.9848488 -125.72752224 348.52709083 -125.72685319 350.06792021 C-125.72884424 351.07312918 -125.73083529 352.07833816 -125.73288667 353.11400801 C-125.72997383 354.23168828 -125.72706099 355.34936854 -125.72405988 356.50091791 C-125.7249143 357.67783542 -125.72576873 358.85475292 -125.72664905 360.06733459 C-125.72801722 363.3487505 -125.72486979 366.63010749 -125.71987098 369.91151631 C-125.71556977 373.44459242 -125.71701267 376.97766658 -125.71777326 380.51074457 C-125.7182987 386.6369093 -125.71514977 392.76306342 -125.70953542 398.88922548 C-125.70142318 407.74672798 -125.69880548 416.60422532 -125.69754743 425.46173113 C-125.69535647 439.8309517 -125.68869521 454.2001666 -125.67924482 468.5693841 C-125.67007182 482.53129787 -125.66299044 496.49321011 -125.658737 510.45512629 C-125.65847428 511.31511829 -125.65821156 512.17511029 -125.65794087 513.06116266 C-125.65663588 517.37530454 -125.65537216 521.68944642 -125.65412897 526.00358832 C-125.643755 561.81808609 -125.6261355 597.63257743 -125.60380536 633.44706964 C-121.33518926 632.66224486 -117.06698427 631.87520524 -112.7988432 631.08780146 C-111.60424828 630.86819175 -110.40965335 630.64858205 -109.17885858 630.4223175 C-99.24979564 628.58880749 -89.36063365 626.59474355 -79.47880918 624.52376223 C-74.61285885 623.50736712 -69.74277718 622.5110368 -64.87333661 621.51152277 C-58.76411585 620.25721992 -52.65640363 618.99674971 -46.55351239 617.71196222 C-41.53364336 616.65573812 -36.5096578 615.62161018 -31.48225003 614.60189867 C-29.59339439 614.21472065 -27.7061203 613.81973102 -25.82066709 613.41630983 C-15.08224766 611.12316592 -6.44297298 609.89841822 4.39619464 612.44706964 C6.11020016 612.78983768 7.82571359 613.12510764 9.54225177 613.45495844 C15.89078575 614.67681235 22.22710489 615.95630173 28.56416339 617.23613214 C30.89485574 617.70440879 33.22561141 618.17237035 35.55642718 618.64003229 C41.65353284 619.86398427 47.75000043 621.09108159 53.84626788 622.31920099 C63.64138802 624.29233368 73.43711258 626.26244423 83.23353022 628.22912455 C86.65407808 628.91658076 90.07412352 629.60649725 93.4941408 630.29658747 C95.5749974 630.71484935 97.65587302 631.13301666 99.73677081 631.55107355 C100.69098422 631.74429697 101.64519763 631.93752039 102.62832659 632.13659906 C103.49577502 632.31040598 104.36322345 632.48421289 105.25695819 632.66328669 C106.01253607 632.81555027 106.76811394 632.96781385 107.54658812 633.12469149 C109.41166219 633.50430528 109.41166219 633.50430528 111.39619464 633.44706964 C111.39619464 538.40706964 111.39619464 443.36706964 111.39619464 345.44706964 C103.4900348 342.26523584 103.4900348 342.26523584 95.51484698 339.3350091 C94.46764987 338.96916712 93.42045275 338.60332514 92.3415224 338.22639704 C91.23292361 337.84160181 90.12432482 337.45680658 88.98213214 337.06035089 C87.79308779 336.64542383 86.60404345 336.23049677 85.37896746 335.80299616 C82.83064261 334.91390326 80.28207036 334.02556548 77.73301715 333.13856745 C71.01611109 330.80115555 64.30190202 328.4560139 57.58760089 326.11113214 C56.90993104 325.87454826 56.23226119 325.63796438 55.53405589 325.39421129 C39.50477492 319.797407 23.50328281 314.12279326 7.50898761 308.42680597 C6.55456271 308.08755091 5.60013781 307.74829584 4.61679095 307.39876032 C2.8425743 306.76810167 1.06881412 306.13615679 -0.70440656 305.50270319 C-6.14626913 303.5148294 -6.14626913 303.5148294 -11.45365888 304.73784113 Z " fill="#4B612C" transform="translate(540.6038053631783,2.5529303550720215)"/>
<path d="M0 0 C5.09828344 0.55627758 9.18141199 2.31019067 13.70084095 4.60292816 C14.84029815 5.16897053 14.84029815 5.16897053 16.00277469 5.7464481 C18.5545979 7.01655135 21.10054374 8.29801218 23.64668274 9.57946777 C25.49046881 10.5001309 27.33460549 11.42009216 29.17906255 12.33941031 C34.25229894 14.87057683 39.32048131 17.41172033 44.3879081 19.95449328 C49.85124706 22.69375903 55.31918951 25.42380668 60.78657532 28.15498352 C70.26076752 32.88932332 79.73201557 37.62950444 89.20119667 42.37385559 C99.13354602 47.35025219 109.06745561 52.32351106 119.00349998 57.29252625 C119.62125309 57.60146771 120.23900619 57.91040918 120.87547908 58.22871251 C123.38300526 59.48272556 125.89054343 60.73671463 128.39809716 61.99067259 C151.25190057 73.41922595 174.1018846 84.85539401 196.94946289 96.29638672 C218.53137756 107.10358695 240.11553464 117.90629021 261.70239258 128.70361328 C262.36766929 129.03637316 263.03294601 129.36913304 263.71838263 129.71197655 C267.0691283 131.38796041 270.41987773 133.06393677 273.77062852 134.73991039 C274.76238619 135.23596643 274.76238619 135.23596643 275.77417936 135.7420438 C277.10736954 136.40887597 278.44056052 137.07570654 279.7737523 137.7425355 C300.98226411 148.35052472 322.18911285 158.96183785 343.39552594 169.57402191 C349.60886487 172.68331617 355.82226497 175.7924881 362.03582025 178.90135002 C375.10331347 185.43953206 388.17022251 191.97887599 401.23530469 198.52187526 C406.64041711 201.22874156 412.04583724 203.93498831 417.45211029 206.6395359 C422.39280614 209.11121123 427.33257734 211.58472396 432.27158596 214.05976897 C434.06648834 214.95883129 435.86173281 215.85721098 437.65733758 216.75486964 C440.08193555 217.9671066 442.50530889 219.18175616 444.92836475 220.39707184 C445.99515871 220.9293561 445.99515871 220.9293561 447.08350405 221.47239357 C451.88583593 223.88583593 451.88583593 223.88583593 453 225 C453.1090689 227.04994788 453.14691255 229.10369316 453.15821838 231.1565094 C453.16315636 231.80664865 453.16809434 232.4567879 453.17318195 233.12662834 C453.18862807 235.32082569 453.19693667 237.51499363 453.20532227 239.70922852 C453.21489521 241.27586123 453.22490494 242.84249132 453.23532104 244.40911865 C453.26243944 248.67543563 453.28341132 252.94176375 453.30332303 257.20811963 C453.32513997 261.66179276 453.35254958 266.11543129 453.37937927 270.56907654 C453.42936439 279.00864934 453.47428155 287.44824129 453.51740164 295.88785166 C453.56672439 305.49351901 453.62166086 315.09915166 453.67708123 324.70478547 C453.79099057 344.46982466 453.89781001 364.23489697 454 384 C454.85031799 384.33968307 455.70063599 384.67936615 456.57672119 385.02934265 C464.63778444 388.24974031 472.69850516 391.47099354 480.75885391 394.69317913 C484.90155116 396.3492197 489.0443745 398.00494321 493.1875 399.65991211 C497.19488677 401.26067437 501.20192403 402.86230866 505.2087326 404.46451759 C506.72820682 405.07194119 508.24780123 405.67906422 509.76752472 406.28586388 C511.91598551 407.14377056 514.06399408 408.00280091 516.21191406 408.86206055 C517.4288092 409.34837448 518.64570435 409.83468842 519.8994751 410.33573914 C525.28150009 412.52011645 530.63838517 414.76599382 536 417 C536 516.99 536 616.98 536 720 C508.4133285 723.94095307 480.69081596 726.87361755 453 730 C453 773.89 453 817.78 453 863 C406.50821097 866.00929322 406.50821097 866.00929322 387.015625 867.265625 C373.56009927 868.13288786 360.10461871 869.00081467 346.64941406 869.87304688 C336.84977952 870.50830407 327.05000202 871.14130111 317.25004756 871.77160454 C312.06290271 872.10530472 306.87583555 872.44012266 301.68893814 872.77764893 C296.80218394 873.09560811 291.91524349 873.41053409 287.02814674 873.72318268 C285.23911084 873.83816298 283.4501444 873.95423027 281.66125679 874.07149506 C279.20828194 874.23212447 276.75508105 874.38874506 274.30178833 874.54443359 C273.60330941 874.59112497 272.9048305 874.63781635 272.18518555 874.68592262 C266.75785222 875.023871 261.47091419 875 256 875 C256 923.18 256 971.36 256 1021 C321.01 1021 386.02 1021 453 1021 C453.020625 1048.039375 453.04125 1075.07875 453.0625 1102.9375 C453.071604 1111.49034912 453.08070801 1120.04319824 453.09008789 1128.85522461 C453.09460449 1139.26086426 453.09460449 1139.26086426 453.09544373 1144.12477112 C453.09637927 1147.53806705 453.10014212 1150.9513476 453.10557556 1154.36463928 C453.11240191 1158.71008609 453.11449726 1163.05551032 453.11307228 1167.400962 C453.11337053 1169.0009995 453.11537272 1170.60103775 453.11921513 1172.20107067 C453.12414303 1174.35196671 453.12300697 1176.50277344 453.12025452 1178.65367126 C453.12163721 1180.46637717 453.12163721 1180.46637717 453.12304783 1182.31570339 C453 1185 453 1185 452 1186 C449.17555941 1186.33495846 446.36613036 1186.60978294 443.53295898 1186.84790039 C442.63082955 1186.92731841 441.72870012 1187.00673643 440.79923344 1187.08856106 C437.8652043 1187.34581434 434.93067916 1187.5968366 431.99609375 1187.84765625 C430.19010914 1188.00508391 428.38415987 1188.16291769 426.57824707 1188.32116699 C419.86509292 1188.90654302 413.15125336 1189.48403694 406.4375 1190.0625 C391.443125 1191.361875 376.44875 1192.66125 361 1194 C361 1248.45 361 1302.9 361 1359 C304.94344276 1370.35125847 304.94344276 1370.35125847 287.49609375 1373.8671875 C286.29585508 1374.10905666 285.09561642 1374.35092583 283.85900688 1374.60012436 C255.64542187 1380.28375098 227.42125215 1385.91357957 199.19160843 1391.51686859 C195.49987863 1392.2500241 191.80836738 1392.98427093 188.11691284 1393.71881104 C182.29723202 1394.87664335 176.47697235 1396.03151935 170.65623283 1397.18401718 C168.51602802 1397.60818024 166.37600447 1398.03325905 164.23617744 1398.45932388 C161.30706292 1399.04229125 158.37726683 1399.62170339 155.44726562 1400.20019531 C154.60125762 1400.36937029 153.75524961 1400.53854527 152.883605 1400.71284676 C152.08916013 1400.8689385 151.29471525 1401.02503025 150.47619629 1401.18585205 C149.8000956 1401.31989063 149.1239949 1401.45392921 148.42740631 1401.59202957 C144.96857257 1402.17335042 141.48026026 1402.56496747 138 1403 C138 1426.43 138 1449.86 138 1474 C140.97 1474.33 143.94 1474.66 147 1475 C148.65302301 1475.30650871 150.3010039 1475.64468103 151.93621826 1476.03520203 C153.24218476 1476.34289788 153.24218476 1476.34289788 154.57453442 1476.65680981 C155.96221508 1476.99237377 155.96221508 1476.99237377 157.37792969 1477.3347168 C158.88487758 1477.69221118 158.88487758 1477.69221118 160.42226887 1478.05692768 C163.75670186 1478.84928441 167.08925743 1479.64926388 170.421875 1480.44921875 C172.80289776 1481.01652049 175.18403974 1481.58332207 177.56529236 1482.1496582 C182.64846911 1483.35964314 187.73087979 1484.57278889 192.81259155 1485.78890991 C200.77462718 1487.69428263 208.73835283 1489.59252604 216.70239258 1491.48950195 C219.39138144 1492.13007493 222.08035948 1492.77069331 224.76933289 1493.41133118 C225.4368886 1493.57036798 226.10444432 1493.72940479 226.792229 1493.8932609 C231.54417013 1495.02545307 236.29585399 1496.15872089 241.04743958 1497.29240417 C258.49432796 1501.45466131 275.945846 1505.5969481 293.40234375 1509.71875 C294.49725002 1509.97733103 295.5921563 1510.23591206 296.72024155 1510.50232887 C306.06579287 1512.70935026 315.41164168 1514.91510912 324.75793457 1517.11898804 C329.47599848 1518.23157768 334.19376385 1519.3454248 338.91131783 1520.46017456 C340.62459776 1520.86473894 342.33799803 1521.26879407 344.05152702 1521.67230225 C346.36626936 1522.21739274 348.68061608 1522.76413236 350.99487305 1523.3112793 C351.66859325 1523.4694749 352.34231346 1523.6276705 353.03644943 1523.7906599 C355.73964707 1524.43133276 358.36218136 1525.12072712 361 1526 C361 1582.1 361 1638.2 361 1696 C354.63304095 1698.8940723 348.3988751 1701.72743838 341.890625 1704.21484375 C340.34520376 1704.81279688 338.79979421 1705.41078021 337.25439453 1706.00878906 C336.44375549 1706.32110474 335.63311646 1706.63342041 334.7979126 1706.9552002 C317.18362671 1713.74605699 299.64438637 1720.71852883 282.125 1727.75 C262.68001862 1735.55172934 243.20227544 1743.26382524 223.68981934 1750.89517212 C211.40135622 1755.70130316 199.11998852 1760.521562 186.875 1765.4375 C176.9268427 1769.42981061 166.97456154 1773.41113888 157.00738525 1777.35574341 C155.51482912 1777.94701517 154.02275444 1778.53950387 152.53118896 1779.13327026 C150.47519007 1779.95147866 148.41752992 1780.7653581 146.359375 1781.578125 C145.17827148 1782.04637695 143.99716797 1782.51462891 142.78027344 1782.99707031 C140 1784 140 1784 138 1784 C138 1847.03 138 1910.06 138 1975 C116.12606098 1986.51259948 116.12606098 1986.51259948 106.45751953 1991.36767578 C105.35086945 1991.92508957 104.24421936 1992.48250336 103.10403442 1993.05680847 C99.53144184 1994.85526711 95.9574012 1996.65082617 92.3828125 1998.4453125 C91.46228852 1998.90756108 91.46228852 1998.90756108 90.52316809 1999.37914801 C84.71890505 2002.29379299 78.91402044 2005.2071953 73.10730171 2008.11694527 C65.74259403 2011.80746978 58.38141978 2015.50485417 51.02476799 2019.21141255 C45.80916228 2021.83854191 40.58976232 2024.45802708 35.36746299 2027.07182491 C32.26254101 2028.62610842 29.15936852 2030.18366624 26.06024551 2031.74948502 C22.62262182 2033.48608827 19.17721576 2035.20686061 15.73095703 2036.92626953 C14.71279907 2037.44355118 13.69464111 2037.96083282 12.64562988 2038.49378967 C11.23768661 2039.19152245 11.23768661 2039.19152245 9.80130005 2039.90335083 C8.98991137 2040.31070024 8.17852268 2040.71804966 7.34254646 2041.137743 C4.74821718 2042.09267756 2.74269416 2042.16337159 0 2042 C0.66 2041.67 1.32 2041.34 2 2041 C1.67 1569.43 1.34 1097.86 1 612 C9.08681941 613.24412606 17.07542334 614.52701257 25.08276367 616.13891602 C26.10557434 616.34242676 27.12838501 616.5459375 28.18218994 616.75561523 C31.5113633 617.41884135 34.83968925 618.08621016 38.16796875 618.75390625 C40.4986897 619.21964573 42.82944488 619.68521401 45.16023254 620.15061951 C50.0177618 621.12124525 54.87487174 622.09393554 59.73168945 623.06811523 C65.96646437 624.31850885 72.20227176 625.5636661 78.4383955 626.80731297 C83.23846404 627.76516437 88.03798234 628.72574927 92.83733559 629.68717766 C95.13815676 630.14774269 97.43915025 630.60744776 99.74031639 631.06628609 C102.94096845 631.70490014 106.14086216 632.34718341 109.34057617 632.99047852 C110.29478958 633.18010666 111.24900299 633.3697348 112.23213196 633.56510925 C113.09958038 633.74029083 113.96702881 633.91547241 114.86076355 634.09596252 C115.99413037 634.32297521 115.99413037 634.32297521 117.15039349 634.55457401 C119 635 119 635 121 636 C120.67 540.63 120.34 445.26 120 347 C120.66 347 121.32 347 122 347 C122 442.7 122 538.4 122 637 C123.65 637 125.3 637 127 637 C129.00285726 637.65803285 131.00218118 638.32682512 133 639 C136.86494662 639.89413307 140.75706725 640.64833397 144.64916992 641.41430664 C145.81565567 641.64707809 146.98214142 641.87984955 148.18397522 642.11967468 C151.36913676 642.75456131 154.5549486 643.38605578 157.74106002 644.01615453 C161.07946062 644.67732363 164.41692348 645.34319136 167.75447083 646.00865173 C174.07186765 647.26758721 180.38997342 648.52292281 186.70840007 649.7766785 C198.03237528 652.02371013 209.35548479 654.27508989 220.67780191 656.53046125 C223.99915895 657.19192108 227.3207083 657.85238556 230.64269066 658.51069832 C234.34178877 659.24387578 238.04043812 659.97927964 241.73901367 660.71508789 C242.8408902 660.93276825 243.94276672 661.15044861 245.07803345 661.37472534 C246.08318497 661.57514938 247.08833649 661.77557343 248.12394714 661.98207092 C248.99831012 662.15553575 249.87267309 662.32900057 250.77353191 662.5077219 C253 663 253 663 256 664 C256 545.53 256 427.06 256 305 C254.02 304.67 252.04 304.34 250 304 C247.99302197 303.37059307 247.99302197 303.37059307 246.19145203 302.64762878 C245.49674301 302.37224777 244.802034 302.09686676 244.08627319 301.81314087 C243.34325958 301.51153046 242.60024597 301.20992004 241.8347168 300.89916992 C240.63473305 300.42044685 240.63473305 300.42044685 239.4105072 299.93205261 C236.75437724 298.87066646 234.10181565 297.80065088 231.44921875 296.73046875 C229.55755109 295.97219926 227.66568589 295.21442244 225.77363586 294.45710754 C220.75475047 292.44647106 215.73890974 290.42834023 210.72357178 288.40887451 C206.7875552 286.82546322 202.84938734 285.24745003 198.91106987 283.66977215 C178.94483214 275.67071006 159.00664928 267.60572802 139.10178566 259.45515823 C120.31504979 251.76311717 101.49016267 244.17351718 82.625 236.67578125 C81.44498224 236.20678595 80.26496449 235.73779064 79.04918861 235.25458336 C70.0829135 231.69201158 61.11475888 228.1341819 52.14622498 224.57730103 C44.23734465 221.44066131 36.32922774 218.30211318 28.42254639 215.15993309 C25.05676701 213.8233244 21.68978888 212.48976821 18.32275391 211.15632629 C16.29844036 210.35217693 14.27418558 209.54787962 12.25 208.7434082 C11.32069672 208.37634262 10.39139343 208.00927704 9.43392944 207.63108826 C8.59463898 207.29680817 7.75534851 206.96252808 6.890625 206.61811829 C5.79282715 206.18282035 5.79282715 206.18282035 4.67285156 205.73872852 C3 205 3 205 2 204 C1.90219958 201.38237266 1.87005489 198.79114693 1.87974548 196.17308044 C1.87889106 195.34326489 1.87803663 194.51344934 1.87715632 193.65848786 C1.87549897 190.85620681 1.88102703 188.05398459 1.88647461 185.25170898 C1.88675645 183.25158693 1.8865988 181.25146477 1.8860321 179.25134277 C1.88574402 173.80321965 1.89164255 168.35511834 1.89860606 162.9070003 C1.90483774 157.22015158 1.90544325 151.53330242 1.90663147 145.84645081 C1.90974534 135.06940041 1.91795947 124.2923601 1.92798096 113.51531416 C1.93914038 101.24950393 1.94465211 88.98369322 1.94967639 76.71787918 C1.96014204 51.47858051 1.97774255 26.23929082 2 1 C1.34 0.67 0.68 0.34 0 0 Z " fill="#759C3E" transform="translate(531,0)"/>
<path d="M0 0 C6.35380331 1.73285545 12.65430587 3.45202067 18.92602539 5.42919922 C19.6411838 5.65282135 20.3563422 5.87644348 21.09317207 6.10684204 C23.4285905 6.83758721 25.76311771 7.57113671 28.09765625 8.3046875 C29.76306711 8.82629399 31.42853993 9.34770269 33.09407043 9.868927 C36.60690734 10.96863316 40.11937544 12.06950574 43.63153076 13.17138672 C51.78825381 15.73041632 59.9465967 18.28427304 68.10492706 20.83817291 C69.8962472 21.3989611 71.6875426 21.95982835 73.47881317 22.52077484 C89.6225026 27.57611619 105.77769674 32.59321683 121.94946289 37.55810547 C122.71586594 37.7940744 123.48226898 38.03004333 124.27189636 38.27316284 C126.24318433 38.88007971 128.21506738 39.4850629 130.18701172 40.08984375 C133 41 133 41 135 42 C135.33 137.37 135.66 232.74 136 331 C118.84 334.3 101.68 337.6 84 341 C70.52282768 343.66774807 57.04733179 346.34059757 43.57763672 349.04534912 C40.02753008 349.7576065 36.47696697 350.46757466 32.92640686 351.17756748 C29.46053667 351.87079561 25.99486664 352.56501978 22.52926636 353.25959587 C20.9026236 353.58555556 19.27593595 353.9112913 17.64920044 354.2367878 C15.42349004 354.68236194 13.19803651 355.12919634 10.97265625 355.57641602 C9.08945679 355.95419945 9.08945679 355.95419945 7.16821289 356.33961487 C4.76715203 356.84009414 2.37943597 357.40514101 0 358 C0 239.86 0 121.72 0 0 Z " fill="#759C3E" transform="translate(280,306)"/>
<path d="M0 0 C1.19752569 0.44429556 1.19752569 0.44429556 2.41924381 0.8975668 C4.93483053 1.859371 7.4309691 2.86141309 9.92602539 3.87524414 C11.33904717 4.44315989 11.33904717 4.44315989 12.78061485 5.02254868 C15.88797739 6.27261981 18.99279726 7.52888133 22.09765625 8.78515625 C24.30493709 9.67445001 26.51238398 10.56333173 28.71998596 11.451828 C33.40436272 13.33806735 38.08765628 15.22696107 42.77008057 17.11804199 C50.10264741 20.07939496 57.43754344 23.03494517 64.77294922 25.98925781 C67.22290476 26.97603286 69.67285594 27.96281873 72.12280273 28.94961548 C73.33027161 29.43596088 74.53774048 29.92230629 75.78179932 30.42338943 C79.42999352 31.89308088 83.07794797 33.36336587 86.72583008 34.83383179 C104.71049958 42.0829262 122.70805518 49.299095 140.7168045 56.48812485 C161.09619667 64.62489729 181.46348173 72.79144762 201.81578827 80.99571228 C203.64966376 81.73475224 205.48379529 82.47315675 207.31793213 83.21154785 C219.2640865 88.02198202 231.20378911 92.83029301 243 98 C240.20194152 100.79805848 236.87206294 101.5573046 233.1875 102.75 C232.38707275 103.01312988 231.58664551 103.27625977 230.76196289 103.54736328 C223.98029934 105.74699877 217.1375955 107.69784923 210.27368164 109.62158203 C202.64681044 111.77567907 195.11120293 114.17050992 187.57299805 116.61450195 C176.64599635 120.14420618 165.66566063 123.4953884 154.68255615 126.84567261 C144.20399348 130.04369507 133.73645939 133.24980554 123.45019531 137.03344727 C113.74719237 140.45590102 105.51359669 140.57868702 95.89453125 136.9765625 C94.95232727 136.64379807 94.01012329 136.31103363 93.03936768 135.96818542 C89.95612793 134.8739172 86.88476532 133.74967041 83.8125 132.625 C81.65039996 131.85168276 79.48754394 131.0804762 77.32397461 130.3112793 C72.8205581 128.70660936 68.32170529 127.09000053 63.82617188 125.46337891 C53.94944101 121.89239544 44.04426236 118.40197845 34.14193726 114.902771 C30.19913692 113.50682736 26.25933416 112.10259048 22.32087708 110.69444275 C20.4800384 110.04194905 18.6359631 109.39850794 16.78862 108.7646637 C12.57257457 107.31465503 8.47373367 105.80117118 4.42382812 103.93286133 C-6.77331088 99.004772 -14.27292251 100.37960055 -25.56958008 104.65478516 C-27.588335 105.45664815 -29.60680139 106.25923787 -31.625 107.0625 C-33.75530874 107.86286263 -35.88776812 108.65752167 -38.0222168 109.44677734 C-42.45650817 111.09309386 -46.87913065 112.76643343 -51.29541016 114.46044922 C-61.04271049 118.17997945 -70.89468515 121.60132815 -80.7411499 125.04733276 C-84.66228158 126.42316913 -88.5780409 127.81378622 -92.49255371 129.20832825 C-94.32436536 129.85938474 -96.15743439 130.5069157 -97.99182129 131.15068054 C-102.51417616 132.73991109 -107.00668965 134.3780512 -111.47412109 136.11621094 C-112.36322678 136.45240448 -113.25233246 136.78859802 -114.16838074 137.13497925 C-115.83339377 137.76559105 -117.49145439 138.41506 -119.1398468 139.08792114 C-125.3661404 141.40853736 -129.70144271 140.85174682 -136 139 C-137.10943466 138.67664673 -138.21886932 138.35329346 -139.36192322 138.0201416 C-143.34048035 136.8194503 -147.29950076 135.56613462 -151.2578125 134.30078125 C-152.75063503 133.82795594 -154.24361482 133.35562689 -155.73674011 132.88375854 C-159.71432412 131.625413 -163.68991287 130.36087462 -167.66513443 129.09508896 C-171.77974777 127.78605362 -175.89611056 126.48254681 -180.01245117 125.17895508 C-181.66618466 124.6552009 -183.31991696 124.13144296 -184.97364807 123.60768127 C-186.19969851 123.21939242 -186.19969851 123.21939242 -187.45051765 122.82325935 C-189.92522544 122.03923859 -192.39970165 121.25449063 -194.87413025 120.46958923 C-204.69287488 117.35608956 -214.51871944 114.2671094 -224.35546875 111.2109375 C-225.48758789 110.85897812 -226.61970703 110.50701874 -227.78613281 110.14439392 C-231.973416 108.84336681 -236.1609444 107.5431836 -240.35040283 106.24917603 C-243.12641571 105.39160356 -245.90118962 104.53012605 -248.67578125 103.66796875 C-249.87209419 103.30081253 -249.87209419 103.30081253 -251.09257507 102.92623901 C-254.54124058 101.85165812 -257.84381764 100.77727279 -261 99 C-259.27304644 95.54609288 -255.12419111 94.85687692 -251.67041016 93.50805664 C-250.78653405 93.15653943 -249.90265795 92.80502222 -248.99199772 92.44285297 C-246.01020613 91.25881957 -243.02462906 90.08463513 -240.0390625 88.91015625 C-237.91101817 88.06703708 -235.78324198 87.22324086 -233.65571594 86.3788147 C-229.06353266 84.55748344 -224.46976161 82.74023826 -219.87472534 80.92611694 C-208.83940096 76.56893365 -197.81243607 72.19065657 -186.78473473 67.81422615 C-184.23525074 66.8024927 -181.68562407 65.79112006 -179.13587379 64.78005791 C-150.7007293 53.50446009 -122.31466696 42.10824253 -93.9375 30.6875 C-90.59626457 29.34301276 -87.25500471 27.99858629 -83.91371155 26.65424252 C-81.75295646 25.78473904 -79.5923005 24.9149892 -77.43174744 24.04498386 C-72.28701195 21.97361999 -67.14085535 19.90597987 -61.99090576 17.84761047 C-53.65497065 14.51216513 -45.3295059 11.16505397 -37.07091808 7.6415472 C-33.82698416 6.25901013 -30.57461028 4.89703563 -27.32138252 3.53653908 C-25.84477371 2.91150604 -24.37268955 2.27564741 -22.90592766 1.62784386 C-20.91854256 0.75015226 -18.91871158 -0.08940912 -16.91235352 -0.92260742 C-15.80988785 -1.39953537 -14.70742218 -1.87646332 -13.57154846 -2.36784363 C-8.45620567 -3.27324827 -4.78241674 -1.80442662 0 0 Z " fill="#3C4929" transform="translate(542,207)"/>
<path d="M0 0 C0.33 0 0.66 0 1 0 C1 23.43 1 46.86 1 71 C3.97 71.33 6.94 71.66 10 72 C11.65302301 72.30650871 13.3010039 72.64468103 14.93621826 73.03520203 C15.80686259 73.24033259 16.67750692 73.44546316 17.57453442 73.65680981 C18.49965486 73.88051911 19.4247753 74.10422842 20.37792969 74.3347168 C21.38256162 74.57304639 22.38719355 74.81137598 23.42226887 75.05692768 C26.75670186 75.84928441 30.08925743 76.64926388 33.421875 77.44921875 C35.80289776 78.01652049 38.18403974 78.58332207 40.56529236 79.1496582 C45.64846911 80.35964314 50.73087979 81.57278889 55.81259155 82.78890991 C63.77462718 84.69428263 71.73835283 86.59252604 79.70239258 88.48950195 C82.39138144 89.13007493 85.08035948 89.77069331 87.76933289 90.41133118 C88.4368886 90.57036798 89.10444432 90.72940479 89.792229 90.8932609 C94.54417013 92.02545307 99.29585399 93.15872089 104.04743958 94.29240417 C121.49432796 98.45466131 138.945846 102.5969481 156.40234375 106.71875 C158.04470316 107.10662154 158.04470316 107.10662154 159.72024155 107.50232887 C169.06579287 109.70935026 178.41164168 111.91510912 187.75793457 114.11898804 C192.47599848 115.23157768 197.19376385 116.3454248 201.91131783 117.46017456 C203.62459776 117.86473894 205.33799803 118.26879407 207.05152702 118.67230225 C209.36626936 119.21739274 211.68061608 119.76413236 213.99487305 120.3112793 C214.66859325 120.4694749 215.34231346 120.6276705 216.03644943 120.7906599 C218.73964707 121.43133276 221.36218136 122.12072712 224 123 C224 166.23 224 209.46 224 254 C223.67 254 223.34 254 223 254 C222.67 211.43 222.34 168.86 222 125 C214.41 127.31 206.82 129.62 199 132 C194.01107959 133.47559618 189.02237931 134.94951434 184.02832031 136.40722656 C181.23122263 137.22467398 178.43564926 138.04726777 175.64013672 138.87011719 C174.21218058 139.29039175 172.78412042 139.71031306 171.35595703 140.12988281 C167.91288351 141.14148723 164.4708475 142.1563221 161.03125 143.1796875 C154.63164428 145.07919228 148.22535125 146.9444011 141.79296875 148.73046875 C140.70177734 149.03355957 139.61058594 149.33665039 138.48632812 149.64892578 C136.35172327 150.24008115 134.21635284 150.82848201 132.08007812 151.41357422 C126.99779871 152.81978047 121.9749272 154.31419132 116.98046875 156.0078125 C111.08522244 158.00616042 105.13079106 159.6823842 99.125 161.3125 C89.87896329 163.85665094 80.73541855 166.62417505 71.61450195 169.58300781 C65.37019072 171.59733855 59.11284831 173.34241044 52.7578125 174.9765625 C47.54575307 176.39606309 42.42044784 178.05819169 37.27905273 179.71240234 C30.92803472 181.74190401 24.53390156 183.55828547 18.10009766 185.30517578 C14.21039463 186.36648033 10.37525941 187.49435701 6.5625 188.8125 C3 190 3 190 0 190 C0 127.3 0 64.6 0 0 Z " fill="#B7CA9D" transform="translate(668,1403)"/>
<path d="M0 0 C10.12501215 0 10.12501215 0 14.82435608 0.46661377 C16.42220695 0.62201881 16.42220695 0.62201881 18.05233765 0.78056335 C19.19143585 0.89583878 20.33053406 1.0111142 21.50415039 1.12988281 C22.72868423 1.25025406 23.95321808 1.37062531 25.21485901 1.49464417 C28.5602126 1.82436556 31.9051344 2.15797708 35.24992299 2.49335194 C38.79963853 2.84832305 42.34985142 3.19825124 45.90000916 3.54876709 C52.65936101 4.21690191 59.41825625 4.88954587 66.17699951 5.5638063 C73.71107919 6.31519335 81.24565776 7.06151354 88.78028417 7.80739498 C101.69658579 9.08612943 114.61235611 10.37011535 127.52770162 11.6584692 C135.33590872 12.4373003 143.14442085 13.21282159 150.95372486 13.98057938 C154.75885917 14.35473007 158.56382683 14.73055726 162.36877251 15.10662079 C164.05268295 15.27256431 165.73667756 15.43765638 167.42076302 15.60181427 C169.66411611 15.82054029 171.90715729 16.04222677 174.15014648 16.26464844 C175.36733871 16.38402771 176.58453094 16.50340698 177.83860779 16.62640381 C180.60531275 16.953358 183.28030393 17.40399552 186 18 C185.67 18.66 185.34 19.32 185 20 C181.81393748 21.06202084 179.19678158 21.28259364 175.84713745 21.49989319 C174.55812027 21.58540939 173.26910309 21.6709256 171.94102478 21.7590332 C170.50870303 21.84994048 169.07637556 21.94075774 167.64404297 22.03149414 C166.13736394 22.12983968 164.63070649 22.22851627 163.12406921 22.32749939 C159.02170853 22.59584864 154.91902679 22.85894263 150.81623983 23.12068486 C147.37617316 23.34049101 143.93625053 23.56250968 140.49631894 23.78441805 C132.35423848 24.30948613 124.21187261 24.82995977 116.06933594 25.34790039 C107.728797 25.87854019 99.38886055 26.41798381 91.04916847 26.96175677 C83.85593589 27.43038155 76.66231442 27.89269088 69.46837533 28.35034078 C65.18777327 28.62275388 60.90735546 28.89748768 56.62731552 29.17860603 C37.70212032 30.41908531 18.97876087 31.25011474 0 31 C0 20.77 0 10.54 0 0 Z " fill="#404D2D" transform="translate(787,843)"/>
<path d="M0 0 C0 10.23 0 20.46 0 31 C-20.03617536 31.24702821 -39.79653815 30.3608872 -59.77493358 29.04657221 C-64.04277779 28.7672811 -68.31117106 28.49660948 -72.57948303 28.22457886 C-79.72256336 27.76800802 -86.86518891 27.30480168 -94.00756836 26.83740234 C-102.23478561 26.29909094 -110.46263384 25.77141324 -118.69089311 25.24928963 C-126.67043913 24.74271337 -134.64949777 24.22881886 -142.62835884 23.71157455 C-145.99912755 23.49317478 -149.37004137 23.27726097 -152.74110222 23.06341934 C-156.7054088 22.81160405 -160.6692449 22.55332682 -164.63281822 22.2902298 C-166.07776448 22.19531769 -167.52285284 22.10253862 -168.96809006 22.01216507 C-177.10792969 21.50162923 -185.01573028 20.6930217 -193 19 C-193 18.67 -193 18.34 -193 18 C-192.04514206 17.91679504 -191.09028412 17.83359009 -190.10649109 17.74786377 C-165.61628862 15.60381514 -141.1492415 13.24634449 -116.68986368 10.77846336 C-114.39109686 10.54652849 -112.09230794 10.31481362 -109.79351425 10.08314514 C-95.55396039 8.64781412 -81.31493132 7.20731502 -67.07641602 5.76171875 C-59.95858078 5.0391005 -52.84042624 4.31971318 -45.72191542 3.60378003 C-41.26993784 3.15583852 -36.81838404 2.70396324 -32.36712039 2.24898481 C-28.97012472 1.90294091 -25.57254546 1.56276905 -22.17504883 1.22167969 C-20.96742889 1.09705353 -19.75980896 0.97242737 -18.51559448 0.84402466 C-17.38882797 0.73200714 -16.26206146 0.61998962 -15.10115051 0.50457764 C-14.13418653 0.4065321 -13.16722254 0.30848656 -12.17095661 0.20746994 C-8.12203883 -0.05744341 -4.05757493 0 0 0 Z " fill="#404C2D" transform="translate(280,843)"/>
<path d="M0 0 C4.56906939 0 6.8310828 0.52881534 11 2 C12.99722477 2.46604516 15.00290796 2.89689082 17.0144043 3.296875 C18.76233528 3.64733887 18.76233528 3.64733887 20.545578 4.00488281 C22.41600517 4.37371582 22.41600517 4.37371582 24.32421875 4.75 C25.63456807 5.01108305 26.9448545 5.27248189 28.25508118 5.53417969 C30.99731577 6.08110262 33.74002583 6.62554713 36.4831543 7.16796875 C39.9688705 7.85723524 43.45375935 8.55057272 46.93834209 9.24554443 C50.29586812 9.91503583 53.65376516 10.58265693 57.01171875 11.25 C58.86696419 11.61883301 58.86696419 11.61883301 60.75968933 11.99511719 C67.82897311 13.39360862 74.90522672 14.73696784 82 16 C79.30590771 18.69409229 77.48871826 18.51709182 73.72119141 18.96142578 C73.07693207 19.0397464 72.43267273 19.11806702 71.76889038 19.19876099 C69.63071486 19.45629447 67.49129705 19.7010971 65.3515625 19.9453125 C63.85852568 20.12125649 62.36555569 20.29776851 60.87265015 20.474823 C57.73424227 20.84505822 54.59519925 21.20915201 51.45556641 21.56884766 C47.46248734 22.02669274 43.47118028 22.49824683 39.4802494 22.97441292 C36.39044839 23.34168333 33.29987221 23.70206002 30.20902634 24.06042099 C28.73943835 24.23150257 27.27007187 24.40449955 25.80095291 24.57956314 C23.72561364 24.82568186 21.64940398 25.0625934 19.57275391 25.29736328 C18.39742096 25.43345001 17.22208801 25.56953674 16.01113892 25.70974731 C10.68713632 26.095001 5.33792319 26 0 26 C0 17.42 0 8.84 0 0 Z " fill="#424F2F" transform="translate(983,703)"/>
<path d="M0 0 C0 8.58 0 17.16 0 26 C-11.25329815 26 -11.25329815 26 -16.63964844 25.38916016 C-17.84079285 25.25547028 -19.04193726 25.1217804 -20.27947998 24.98403931 C-21.54334534 24.83719696 -22.80721069 24.69035461 -24.109375 24.5390625 C-25.44830919 24.3866068 -26.78727884 24.2344622 -28.12628174 24.08261108 C-30.91356838 23.76517299 -33.70034156 23.44362483 -36.48681641 23.11914062 C-40.04532229 22.70514719 -43.60497739 22.30217708 -47.16509628 21.90232277 C-49.92294926 21.59123858 -52.68007206 21.27403073 -55.43701935 20.95502853 C-57.38303683 20.73103295 -59.32966787 20.51238857 -61.27630615 20.29385376 C-62.46484192 20.15385956 -63.65337769 20.01386536 -64.87792969 19.86962891 C-66.43818878 19.68975937 -66.43818878 19.68975937 -68.02996826 19.5062561 C-71.16673686 18.97157891 -74.01109512 18.07988242 -77 17 C-76.67 16.34 -76.34 15.68 -76 15 C-73.69915051 14.36092798 -71.46436004 13.85025694 -69.12524414 13.39599609 C-68.40654648 13.24940048 -67.68784882 13.10280487 -66.94737244 12.95176697 C-64.56156308 12.46733956 -62.17347891 11.99530434 -59.78515625 11.5234375 C-58.1321381 11.19068871 -56.47926179 10.85723455 -54.82652283 10.52310181 C-51.35810445 9.8236811 -47.8886344 9.12984151 -44.41821289 8.44042969 C-39.96322004 7.55541056 -35.51011514 6.66131891 -31.05765629 5.76364708 C-26.82156633 4.90986537 -22.58468523 4.06004509 -18.34765625 3.2109375 C-17.12883601 2.96634356 -17.12883601 2.96634356 -15.88539314 2.71680832 C-13.59206945 2.25745121 -11.29821668 1.800847 -9.00415039 1.34521484 C-7.97936081 1.13953636 -7.97936081 1.13953636 -6.93386841 0.92970276 C-2.23000748 0 -2.23000748 0 0 0 Z " fill="#414D2E" transform="translate(83,703)"/>
</svg>
