<?xml version="1.0" encoding="UTF-8"?>
<svg version="1.1" xmlns="http://www.w3.org/2000/svg" width="2400" height="2906">
<path d="M0 0 C0.8553409 0.42463604 1.71068181 0.84927209 2.59194213 1.28677589 C5.46427039 2.71580687 8.32923073 4.15902071 11.19445229 5.60224152 C13.270005 6.63856993 15.34599613 7.67402067 17.42238772 8.70866728 C22.53385465 11.25851906 27.6405974 13.81765117 32.7454543 16.3807073 C38.86049006 19.45029703 44.98132596 22.50824169 51.10239301 25.56578179 C62.39876986 31.20886192 73.69044224 36.86129497 84.97943687 42.51912689 C96.15811594 48.12164702 107.33876628 53.72020057 118.52210808 59.3134079 C119.21742786 59.66116708 119.91274764 60.00892625 120.62913772 60.36722359 C124.16034081 62.13330704 127.69157715 63.89932401 131.22282489 65.66531819 C156.23671347 78.1750697 181.24580159 90.69439056 206.25222206 103.21906281 C230.54297691 115.38527503 254.83639303 127.5461497 279.13308144 139.70050812 C279.88189376 140.07510156 280.63070608 140.44969501 281.40220968 140.83563977 C287.42598434 143.84903111 293.44976837 146.86240372 299.47356972 149.8757417 C325.43759833 162.86396733 351.39951064 175.85642214 377.36096827 188.84978584 C382.26134244 191.30234432 387.16178958 193.75475695 392.0622611 196.2071209 C406.76987528 203.56739699 421.47683818 210.92896997 436.18186466 218.29441488 C442.26544674 221.34152856 448.34931968 224.38805741 454.43408394 227.43280983 C459.99463532 230.21534868 465.55425905 232.99973154 471.11311491 235.78565603 C473.1334239 236.79777148 475.15407448 237.80920538 477.17508464 238.81992 C479.90368668 240.18463879 482.63106538 241.55177081 485.35812378 242.91957092 C486.15887724 243.31934877 486.95963071 243.71912661 487.78464943 244.13101894 C493.18736986 246.84561685 493.18736986 246.84561685 494.30153847 247.95978546 C494.39830696 249.30211766 494.4260128 250.64950615 494.42573696 251.99532181 C494.42798426 252.8719536 494.43023155 253.74858538 494.43254694 254.65178177 C494.42991993 255.62780547 494.42729292 256.60382918 494.4245863 257.60942936 C494.42574014 258.64049115 494.42689398 259.67155294 494.42808279 260.73385903 C494.4307579 264.23525469 494.42621999 267.73660558 494.42179298 271.23799896 C494.4222285 273.75499035 494.42310305 276.27198169 494.42438215 278.7889728 C494.42615986 284.28531783 494.4248023 289.78164866 494.42074394 295.27799225 C494.41472595 303.45094015 494.41440655 311.6238812 494.41528593 319.79683091 C494.41660201 333.54289882 494.41325017 347.28896194 494.40726852 361.03502846 C494.40135824 374.65191484 494.39750394 388.26879922 494.39641571 401.88568687 C494.39634697 402.73128967 494.39627823 403.57689247 494.39620741 404.44811959 C494.39586909 408.74223803 494.3955677 413.03635647 494.39528053 417.33047491 C494.39317826 447.77209867 494.38643571 478.21371981 494.37697792 508.6553421 C494.36779849 538.23509456 494.36071243 567.81484631 494.35647011 597.39459991 C494.35633858 598.30584249 494.35620706 599.21708507 494.35607154 600.15594107 C494.35475306 609.30673539 494.35347724 618.45752973 494.35223268 627.60832407 C494.34969624 646.25074137 494.34687499 664.89315863 494.34388161 683.53557587 C494.34374432 684.39278682 494.34360703 685.24999777 494.34346558 686.13318482 C494.33425973 743.40871946 494.31839319 800.68425262 494.30153847 857.95978546 C495.14671634 857.78944611 495.14671634 857.78944611 496.00896852 857.61566556 C498.60427663 857.09311735 501.19984433 856.57186952 503.79541683 856.05063629 C504.68147115 855.87203473 505.56752547 855.69343317 506.48042992 855.50941944 C514.43836167 853.91297537 522.41875601 852.49412322 530.42141151 851.13947296 C531.9322365 850.88148249 533.44301748 850.62323426 534.95375919 850.36475658 C538.19796792 849.81024795 541.4424702 849.25750346 544.68722343 848.70619011 C549.98615157 847.8058252 555.28436428 846.90129441 560.58251381 845.99636078 C568.3158222 844.67589229 576.04943683 843.35723117 583.78325844 842.03977203 C603.74362733 838.63930741 623.70215903 835.22807778 643.66079497 831.81745934 C646.9839549 831.249618 650.30713244 830.68187983 653.63031387 830.11416435 C699.01042869 822.36131379 744.38180714 814.55807043 789.75035954 806.73787212 C804.21778978 804.24425888 818.68591582 801.75471794 833.15444791 799.26750648 C842.86381068 797.59824936 852.57295449 795.92771982 862.28200722 794.25666046 C863.32667381 794.07687377 864.37134039 793.89708708 865.44766355 793.71185231 C891.40232359 789.24447271 917.34931046 784.73739054 943.28169197 780.14238673 C948.56950329 779.2056249 953.85796586 778.2726286 959.14695168 777.34252167 C959.86308547 777.21656268 960.57921927 777.09060369 961.31705409 776.96082777 C964.13010996 776.46611829 966.94318308 775.97150796 969.75634873 775.47742307 C978.17426408 773.9988131 986.58816048 772.49970289 994.998353 770.97764397 C999.57609551 770.1539125 1004.15704102 769.34932363 1008.73916626 768.55036926 C1010.79528017 768.18762785 1012.8499699 767.81669192 1014.9029274 767.43649292 C1033.81128099 763.93997208 1033.81128099 763.93997208 1043.30153847 767.95978546 C1044.94067892 768.52765404 1046.58124407 769.09142604 1048.22316933 769.65119171 C1049.90597244 770.27020089 1051.58698004 770.89410795 1053.26638222 771.52228546 C1054.19651634 771.86570984 1055.12665047 772.20913422 1056.08497047 772.56296539 C1059.137887 773.69107049 1062.18841877 774.82548572 1065.23903847 775.95978546 C1068.52483635 777.17556492 1071.81125098 778.38966747 1075.09768105 779.60373688 C1077.37668912 780.44578751 1079.65549515 781.28838518 1081.93410683 782.13150787 C1089.80866696 785.04420376 1097.69076458 787.93558172 1105.57888222 790.81134796 C1106.6778231 791.21206512 1107.77676399 791.61278229 1108.90900612 792.0256424 C1113.14860369 793.57110626 1117.38837556 795.1160866 1121.62890053 796.65900421 C1143.56414892 804.64211864 1165.42297719 812.81892545 1187.30153847 820.95978546 C1187.30153847 953.94978546 1187.30153847 1086.93978546 1187.30153847 1223.95978546 C1183.14759291 1224.55320626 1179.29459572 1225.09189085 1175.15450007 1225.31481701 C1173.6964686 1225.39559248 1173.6964686 1225.39559248 1172.20898196 1225.47799978 C1171.15703317 1225.5331292 1170.10508438 1225.58825862 1169.02125835 1225.64505863 C1167.31951775 1225.73796158 1167.31951775 1225.73796158 1165.58339855 1225.83274135 C1161.76629666 1226.04036071 1157.94897107 1226.24353358 1154.13163185 1226.4467392 C1151.37334434 1226.5954878 1148.61510767 1226.74517019 1145.85686821 1226.8948068 C1139.8516568 1227.22009197 1133.84632413 1227.54305791 1127.84090614 1227.86450577 C1118.91021383 1228.34253764 1109.97971517 1228.82411511 1101.04925075 1229.3063833 C1084.1699513 1230.21777618 1067.29042748 1231.12496482 1050.41083349 1232.03088362 C1037.37332305 1232.73062563 1024.33587469 1233.43151396 1011.29846954 1234.13321495 C1009.42581902 1234.23400055 1007.55316848 1234.33478592 1005.68051792 1234.43557106 C1002.85860952 1234.58744616 1000.03670115 1234.73932209 997.21479294 1234.89120084 C970.97133926 1236.30363181 944.72781855 1237.71481192 918.48415661 1239.12336826 C917.49450584 1239.17648522 916.50485508 1239.22960217 915.48521489 1239.28432873 C907.44842533 1239.71567549 899.411634 1240.14698946 891.37484253 1240.57830081 C860.04267494 1242.25983554 828.71071957 1243.945275 797.37893105 1245.63385773 C762.17757916 1247.53097667 726.97607586 1249.42525039 691.774342 1251.31526941 C688.01921067 1251.51689561 684.26407983 1251.71853094 680.50894928 1251.92017174 C679.58434273 1251.96981865 678.65973618 1252.01946557 677.70711125 1252.07061694 C663.75815141 1252.81966549 649.8093117 1253.57092385 635.86053085 1254.3232975 C619.98960169 1255.1793435 604.11851362 1256.03237196 588.24720801 1256.88141114 C579.36991378 1257.35639233 570.4927533 1257.8337222 561.61576988 1258.31447781 C555.67849512 1258.63578637 549.74105719 1258.95395174 543.80347954 1259.26961344 C540.4254125 1259.44928964 537.04746809 1259.63074954 533.66965062 1259.81509054 C530.01809659 1260.01415249 526.36629543 1260.2078831 522.71438885 1260.40035343 C521.68351055 1260.45782402 520.65263226 1260.51529461 519.59051523 1260.57450673 C511.12699977 1261.01146136 502.81505016 1260.95978546 494.30153847 1260.95978546 C494.30153847 1716.02978546 494.30153847 2171.09978546 494.30153847 2639.95978546 C-11.69846153 2892.95978546 -11.69846153 2892.95978546 -16.69846153 2891.95978546 C-183.01846153 2808.79978546 -349.33846153 2725.63978546 -520.69846153 2639.95978546 C-520.69846153 2118.55978546 -520.69846153 1597.15978546 -520.69846153 1059.95978546 C-523.66846153 1059.95978546 -526.63846153 1059.95978546 -529.69846153 1059.95978546 C-532.16009727 1059.76662006 -534.61878538 1059.53132769 -537.07240295 1059.25433636 C-537.76083815 1059.17800494 -538.44927335 1059.10167353 -539.15857022 1059.02302904 C-541.44908713 1058.76784018 -543.73873392 1058.50556482 -546.0284481 1058.2432785 C-547.69698306 1058.05588438 -549.36556747 1057.86893019 -551.0341965 1057.68237561 C-555.61513544 1057.16893396 -560.19534892 1056.64925946 -564.77546793 1056.12856135 C-569.73707015 1055.56560808 -574.69932487 1055.00846216 -579.66150093 1054.45059395 C-588.30708161 1053.47781434 -596.95223873 1052.50134046 -605.5971241 1051.52240181 C-618.28346996 1050.08582235 -630.97044727 1048.65488299 -643.65757145 1047.22519552 C-664.61977088 1044.86284533 -685.58145075 1042.49591593 -706.54282188 1040.12622833 C-727.00960572 1037.81246327 -747.47661696 1035.500727 -767.94394493 1033.19178009 C-769.83771221 1032.97813989 -769.83771221 1032.97813989 -771.76973742 1032.76018372 C-778.14334771 1032.04117312 -784.51696215 1031.3221994 -790.89057827 1030.60324049 C-838.36101736 1025.24839313 -885.83079603 1019.88771157 -933.30024529 1014.52409744 C-937.95817096 1013.99779547 -942.6160969 1013.47149576 -947.27402306 1012.94519806 C-948.40620925 1012.81727197 -949.53839544 1012.68934588 -950.70489031 1012.55754325 C-972.32897899 1010.11425568 -993.95323503 1007.67245217 -1015.57758746 1005.2315001 C-1018.13470473 1004.94285303 -1020.69182138 1004.65420033 -1023.24893785 1004.36554611 C-1035.6864421 1002.96157085 -1048.12395453 1001.55766803 -1060.56147146 1000.15380502 C-1061.24789191 1000.07632591 -1061.93431235 999.99884681 -1062.64153342 999.91901986 C-1064.47574661 999.7119847 -1066.30995999 999.50495125 -1068.14417338 999.29791796 C-1116.32969962 993.85861029 -1164.5139888 988.40843837 -1212.69846153 982.95978546 C-1212.69846153 854.58978546 -1212.69846153 726.21978546 -1212.69846153 593.95978546 C-1173.09846153 574.15978546 -1133.49846153 554.35978546 -1092.69846153 533.95978546 C-1078.51708325 526.54533527 -1078.51708325 526.54533527 -1064.53439903 518.82306671 C-1055.98970583 516.22199619 -1045.31991228 520.56136413 -1036.85080528 522.59650421 C-1035.22387193 522.98309884 -1033.59681289 523.36916483 -1031.96964073 523.75475311 C-1028.41869522 524.5971696 -1024.86852969 525.44277517 -1021.31891441 526.29077911 C-1012.35258209 528.4323974 -1003.38198205 530.55605237 -994.41201782 532.68239594 C-991.13045475 533.46048695 -987.84904361 534.23921634 -984.56764793 535.018013 C-959.1998621 541.03649748 -933.81394456 546.97758708 -908.42830133 552.92019159 C-896.11572335 555.80255329 -883.80368188 558.68720636 -871.49160385 561.57170272 C-869.39853777 562.06206222 -867.30546583 562.55239665 -865.21239281 563.04272652 C-844.15935472 567.97476071 -823.10794369 572.91369479 -802.05783653 577.85822296 C-801.36564876 578.02081195 -800.67346098 578.18340094 -799.96029782 578.35091686 C-789.51878012 580.80356542 -779.07736277 583.25664112 -768.63596153 585.70978546 C-757.65034857 588.29078763 -746.66470084 590.87164167 -735.67893028 593.45197296 C-735.00803832 593.60955235 -734.33714635 593.76713175 -733.64592433 593.92948627 C-713.51536593 598.65765561 -693.38311825 603.37856996 -673.24924278 608.09259796 C-672.02026205 608.38036102 -670.79128132 608.66812408 -669.52505875 608.96460724 C-658.10545877 611.63842303 -646.68578963 614.31194193 -635.26543045 616.98251343 C-597.0629319 625.91853249 -558.88247818 634.94411486 -520.69846153 643.95978546 C-520.69846153 513.27978546 -520.69846153 382.59978546 -520.69846153 247.95978546 C-498.87284018 236.47261633 -498.87284018 236.47261633 -491.79006386 232.93149281 C-490.94968838 232.50937996 -490.1093129 232.08726712 -489.2434715 231.65236297 C-486.49996521 230.27489546 -483.75514775 228.90006395 -481.01029015 227.52529144 C-478.99415211 226.51377288 -476.97809253 225.50209794 -474.96210361 224.49028224 C-469.47826224 221.73860245 -463.99322048 218.98932347 -458.50793505 216.2405237 C-453.18294504 213.57161887 -447.85884494 210.90094001 -442.53465169 208.23044624 C-399.22157039 186.506251 -355.89423184 164.81044157 -312.56434343 143.1197921 C-306.04552609 139.85650775 -299.52676805 136.59310493 -293.00803185 133.32965851 C-292.28782845 132.96910984 -291.56762505 132.60856117 -290.82559731 132.23708678 C-267.42421514 120.52176124 -244.02923244 108.79372474 -220.6376783 97.05878981 C-196.55866371 84.97904738 -172.47383116 72.91098848 -148.3813735 60.85807799 C-144.98193565 59.15741258 -141.58256189 57.45661911 -138.18322563 55.75575066 C-137.51426997 55.42104267 -136.8453143 55.08633468 -136.15608725 54.74148403 C-125.38711966 49.35287918 -114.62432459 43.95205633 -103.86375384 38.54670686 C-93.06367626 33.12185748 -82.25709329 27.71015629 -71.44370189 22.31189284 C-65.58496683 19.38664432 -59.72950588 16.45516157 -53.8816433 13.50822258 C-48.53330473 10.81317515 -43.17699956 8.13472639 -37.8137463 5.46948918 C-35.87093749 4.50034219 -33.93118426 3.5250415 -31.9947919 2.54313693 C-29.37007124 1.21330206 -26.73530722 -0.09403174 -24.09676552 -1.39617443 C-23.34087383 -1.78579891 -22.58498214 -2.17542339 -21.80618465 -2.57685468 C-13.58443708 -6.56872077 -7.69432537 -3.90999812 0 0 Z " fill="#9D5025" transform="translate(1212.6984615325928,5.040214538574219)"/>
<path d="M0 0 C6.75000295 2.25000098 6.75000295 2.25000098 9.95005494 3.85025364 C10.67999108 4.2128463 11.40992721 4.57543896 12.16198263 4.94901928 C12.94810742 5.34456577 13.73423221 5.74011225 14.54417896 6.147645 C15.39498927 6.57174651 16.24579959 6.99584802 17.12239203 7.4328011 C19.9824166 8.85965684 22.83954666 10.29221419 25.69673157 11.7247467 C27.76342732 12.75730068 29.83029809 13.78950442 31.89732903 14.82138723 C37.58443581 17.66172825 43.26902865 20.50706873 48.95322955 23.35321963 C54.4513731 26.10572719 59.95178331 28.85370019 65.45194872 31.60216461 C76.70352076 37.22481248 87.95319939 42.85123879 99.2017765 48.47987556 C110.34079426 54.05368945 121.48055046 59.62602267 132.62132835 65.19631767 C133.31394418 65.54262176 134.00656001 65.88892585 134.72016419 66.24572401 C137.53155317 67.65139804 140.34294708 69.0570622 143.15434774 70.46271287 C169.53141791 83.65079484 195.90631491 96.84321744 222.2801255 110.03781659 C245.72900501 121.76907168 269.17936296 133.49736582 292.63110352 145.22290039 C294.13752377 145.97609031 295.64394402 146.72928026 297.15036426 147.48247022 C298.26746674 148.0410062 298.26746674 148.0410062 299.40713694 148.61082573 C303.15576928 150.48509151 306.90439958 152.35936136 310.65302753 154.2336359 C311.39252234 154.60337495 312.13201714 154.97311399 312.89392087 155.35405725 C332.4745308 165.1441798 352.05416065 174.93626198 371.63345593 184.72901338 C372.32953303 185.07716207 373.02561012 185.42531075 373.74278046 185.78400939 C376.54204374 187.18408516 379.34130699 188.58416098 382.14056506 189.98424717 C391.8935659 194.86232957 401.6468982 199.73974863 411.40044356 204.61674216 C423.9639637 210.89880027 436.52680688 217.18220894 449.08847342 223.46797282 C455.14975403 226.50095096 461.21137148 229.53325099 467.27383804 232.56385803 C472.81406284 235.33342586 478.35337088 238.10481793 483.89192476 240.87772565 C485.90485939 241.88510508 487.91813746 242.89179858 489.93177704 243.89776815 C492.65044713 245.25608164 495.36789569 246.61680727 498.08502674 247.97819614 C498.88285736 248.3760838 499.68068798 248.77397145 500.50269529 249.1839163 C505.88584504 251.88584504 505.88584504 251.88584504 507 253 C507.09676849 254.3423322 507.12447433 255.68972069 507.1241985 257.03553635 C507.12756944 258.35048403 507.12756944 258.35048403 507.13100848 259.69199631 C507.12838146 260.66802001 507.12575445 261.64404372 507.12304783 262.6496439 C507.12420167 263.68070569 507.12535552 264.71176748 507.12654433 265.77407357 C507.12921943 269.27546922 507.12468153 272.77682012 507.12025452 276.2782135 C507.12069004 278.79520489 507.12156459 281.31219623 507.12284368 283.82918733 C507.12462139 289.32553237 507.12326383 294.8218632 507.11920547 300.31820679 C507.11318748 308.49115469 507.11286808 316.66409574 507.11374746 324.83704545 C507.11506355 338.58311336 507.1117117 352.32917648 507.10573006 366.075243 C507.09981977 379.69212938 507.09596547 393.30901376 507.09487724 406.92590141 C507.0948085 407.77150421 507.09473976 408.617107 507.09466894 409.48833413 C507.09433062 413.78245257 507.09402923 418.076571 507.09374207 422.37068944 C507.09163979 452.8123132 507.08489724 483.25393435 507.07543945 513.69555664 C507.06626002 543.2753091 507.05917396 572.85506085 507.05493164 602.43481445 C507.05480011 603.34605703 507.05466859 604.25729961 507.05453308 605.1961556 C507.05321459 614.34694993 507.05193877 623.49774427 507.05069422 632.64853861 C507.04815778 651.29095591 507.04533652 669.93337317 507.04234314 688.57579041 C507.04220585 689.43300136 507.04206856 690.29021231 507.04192711 691.17339935 C507.03272127 748.448934 507.01685472 805.72446716 507 863 C507.56345192 862.88644043 508.12690384 862.77288086 508.70743005 862.65588009 C511.30273816 862.13333189 513.89830586 861.61208406 516.49387836 861.09085083 C517.37993268 860.91224927 518.265987 860.73364771 519.17889145 860.54963398 C527.1368232 858.95318991 535.11721754 857.53433776 543.11987305 856.1796875 C544.63069803 855.92169703 546.14147902 855.66344879 547.65222073 855.40497112 C550.89642945 854.85046248 554.14093173 854.297718 557.38568497 853.74640465 C562.6846131 852.84603974 567.98282582 851.94150895 573.28097534 851.03657532 C581.01428373 849.71610683 588.74789836 848.3974457 596.48171997 847.07998657 C616.44208886 843.67952195 636.40062056 840.26829232 656.35925651 836.85767388 C659.68241643 836.28983254 663.00559397 835.72209437 666.32877541 835.15437889 C711.70889023 827.40152833 757.08026867 819.59828497 802.44882107 811.77808666 C816.91625131 809.28447342 831.38437735 806.79493247 845.85290945 804.30772102 C855.56227221 802.6384639 865.27141602 800.96793436 874.98046875 799.296875 C876.02513534 799.11708831 877.06980193 798.93730162 878.14612508 798.75206685 C904.10078512 794.28468725 930.047772 789.77760508 955.9801535 785.18260127 C961.26796482 784.24583944 966.5564274 783.31284314 971.84541321 782.38273621 C972.56154701 782.25677722 973.2776808 782.13081823 974.01551563 782.00104231 C976.8285715 781.50633283 979.64164461 781.0117225 982.45481026 780.51763761 C990.87272561 779.03902764 999.28662201 777.53991743 1007.69681454 776.01785851 C1012.27455704 775.19412704 1016.85550255 774.38953817 1021.43762779 773.5905838 C1023.49374171 773.22784239 1025.54843143 772.85690646 1027.60138893 772.47670746 C1046.50974252 768.98018662 1046.50974252 768.98018662 1056 773 C1057.63914046 773.56786858 1059.2797056 774.13164058 1060.92163086 774.69140625 C1062.60443397 775.31041543 1064.28544157 775.93432249 1065.96484375 776.5625 C1066.89497787 776.90592438 1067.825112 777.24934875 1068.78343201 777.60317993 C1071.83634853 778.73128503 1074.8868803 779.86570026 1077.9375 781 C1081.22329789 782.21577945 1084.50971251 783.429882 1087.79614258 784.64395142 C1090.07515065 785.48600205 1092.35395668 786.32859972 1094.63256836 787.17172241 C1102.50712849 790.0844183 1110.38922612 792.97579626 1118.27734375 795.8515625 C1119.37628464 796.25227966 1120.47522552 796.65299683 1121.60746765 797.06585693 C1125.84706522 798.6113208 1130.0868371 800.15630114 1134.32736206 801.69921875 C1156.26261046 809.68233318 1178.12143872 817.85913999 1200 826 C1200 958.99 1200 1091.98 1200 1229 C1195.84605444 1229.59342079 1191.99305726 1230.13210539 1187.8529616 1230.35503155 C1186.88094062 1230.40888186 1185.90891965 1230.46273217 1184.90744349 1230.51821432 C1183.8554947 1230.57334374 1182.80354591 1230.62847316 1181.71971989 1230.68527317 C1180.01797928 1230.77817612 1180.01797928 1230.77817612 1178.28186008 1230.87295589 C1174.4647582 1231.08057525 1170.6474326 1231.28374811 1166.83009338 1231.48695374 C1164.07180587 1231.63570233 1161.3135692 1231.78538473 1158.55532974 1231.93502134 C1152.55011833 1232.26030651 1146.54478566 1232.58327245 1140.53936768 1232.90472031 C1131.60867536 1233.38275218 1122.6781767 1233.86432965 1113.74771228 1234.34659784 C1096.86841284 1235.25799072 1079.98888902 1236.16517935 1063.10929502 1237.07109816 C1050.07178458 1237.77084017 1037.03433622 1238.4717285 1023.99693108 1239.17342949 C1022.12428055 1239.27421509 1020.25163001 1239.37500046 1018.37897946 1239.47578559 C1015.55707105 1239.6276607 1012.73516269 1239.77953663 1009.91325448 1239.93141538 C983.66980079 1241.34384635 957.42628008 1242.75502646 931.18261814 1244.1635828 C930.19296737 1244.21669976 929.20331661 1244.26981671 928.18367642 1244.32454327 C920.14688686 1244.75589003 912.11009553 1245.18720399 904.07330407 1245.61851535 C872.74113647 1247.30005007 841.4091811 1248.98548953 810.07739258 1250.67407227 C774.87604069 1252.57119121 739.67453739 1254.46546493 704.47280353 1256.35548395 C700.7176722 1256.55711015 696.96254136 1256.75874548 693.20741081 1256.96038628 C692.28280426 1257.01003319 691.35819771 1257.05968011 690.40557278 1257.11083148 C676.45661294 1257.85988003 662.50777324 1258.61113839 648.55899239 1259.36351204 C632.68806323 1260.21955803 616.81697515 1261.0725865 600.94566954 1261.92162568 C592.06837531 1262.39660687 583.19121484 1262.87393674 574.31423141 1263.35469235 C568.37695665 1263.67600091 562.43951872 1263.99416628 556.50194108 1264.30982798 C553.12387404 1264.48950418 549.74592962 1264.67096408 546.36811215 1264.85530508 C542.71655812 1265.05436703 539.06475697 1265.24809763 535.41285038 1265.44056797 C534.38197208 1265.49803856 533.35109379 1265.55550915 532.28897676 1265.61472127 C523.8254613 1266.0516759 515.51351169 1266 507 1266 C507 1721.07 507 2176.14 507 2645 C1 2898 1 2898 0 2898 C0 1941.66 0 985.32 0 0 Z " fill="#F58435" transform="translate(1200,0)"/>
<path d="M0 0 C1.63914046 0.56786858 3.2797056 1.13164058 4.92163086 1.69140625 C6.60443397 2.31041543 8.28544157 2.93432249 9.96484375 3.5625 C10.89497787 3.90592438 11.825112 4.24934875 12.78343201 4.60317993 C15.83634853 5.73128503 18.8868803 6.86570026 21.9375 8 C25.22329789 9.21577945 28.50971251 10.429882 31.79614258 11.64395142 C34.07515065 12.48600205 36.35395668 13.32859972 38.63256836 14.17172241 C46.50712849 17.0844183 54.38922612 19.97579626 62.27734375 22.8515625 C63.37628464 23.25227966 64.47522552 23.65299683 65.60746765 24.06585693 C69.84706522 25.6113208 74.0868371 27.15630114 78.32736206 28.69921875 C100.26261046 36.68233318 122.12143872 44.85913999 144 53 C144 185.99 144 318.98 144 456 C139.85893511 456.5915807 136.01880093 457.13071416 131.8920843 457.35273021 C130.92877498 457.40606808 129.96546566 457.45940594 128.97296515 457.5143601 C127.93073518 457.56891783 126.8885052 457.62347555 125.8146925 457.67968655 C124.69038504 457.74102265 123.56607759 457.80235875 122.40770021 457.86555353 C118.62491489 458.07115481 114.84190613 458.27230828 111.05888367 458.47349548 C108.32482768 458.62081777 105.59082257 458.76907505 102.85681468 458.91728693 C96.90363497 459.23950988 90.95033419 459.55941497 84.99694824 459.8778038 C76.14180731 460.35138542 67.2868602 460.82851789 58.43194767 461.3063487 C42.60549859 462.16025689 26.77885871 463.01058603 10.95213533 463.85939348 C-2.92502377 464.60364898 -16.80212146 465.34903685 -30.67915916 466.09555244 C-31.60027409 466.14510194 -32.52138902 466.19465143 -33.47041652 466.24570243 C-37.21015034 466.44687408 -40.94988395 466.64804944 -44.68961722 466.84923136 C-79.80810046 468.73843183 -114.92678071 470.62394766 -150.04554801 472.50785958 C-181.14975986 474.17643853 -212.25378878 475.84838864 -243.35766602 477.52319336 C-278.34769643 479.40723958 -313.33784793 481.28901318 -348.32818764 483.16730696 C-352.07437967 483.36841026 -355.82057138 483.56951955 -359.56676292 483.77063179 C-360.48907709 483.82014386 -361.41139126 483.86965593 -362.36165435 483.92066837 C-376.18990806 484.66304328 -390.01806985 485.40711368 -403.84618568 486.15205193 C-419.62907335 487.00228831 -435.41209355 487.85001826 -451.19528363 488.69462293 C-459.22775281 489.12452551 -467.26016419 489.55543748 -475.29240799 489.98953247 C-484.0609354 490.46327608 -492.82963251 490.93374706 -501.59858704 491.39952087 C-502.62630281 491.45414654 -502.62630281 491.45414654 -503.67478052 491.50987575 C-524.97207368 492.64012839 -546.27250569 493.611252 -567.58605987 494.38032717 C-580.13340821 494.83796908 -580.13340821 494.83796908 -592.65225297 495.78496212 C-596.67770196 496.15366625 -600.71182438 496.30375856 -604.75 496.46484375 C-606.57625411 496.54237885 -608.40250733 496.61993504 -610.22875977 496.69750977 C-611.64090256 496.75613693 -611.64090256 496.75613693 -613.08157349 496.81594849 C-628.5812723 497.46150589 -644.07440922 498.18073106 -659.5625 499.0625 C-660.30633942 499.10460602 -661.05017883 499.14671204 -661.81655884 499.19009399 C-667.60999198 499.51812946 -673.403176 499.85044261 -679.19628906 500.18408203 C-702.31959365 501.50013827 -725.19140047 501.02115307 -748.2565918 498.8034668 C-765.80636024 497.13345544 -783.41945893 495.97652491 -801.03710938 495.34155273 C-805.76342711 495.16009258 -810.31337195 494.67175002 -815 494 C-818.28907879 493.77042244 -821.58080457 493.63415276 -824.875 493.5 C-826.58084711 493.42989669 -828.28658166 493.35699666 -829.9921875 493.28125 C-830.73839355 493.25095703 -831.48459961 493.22066406 -832.25341797 493.18945312 C-836.17963876 492.91863114 -840.08852081 492.4346088 -844 492 C-850.93 491.67 -857.86 491.34 -865 491 C-865 376.82 -865 262.64 -865 145 C-851.52154195 141.63038549 -851.52154195 141.63038549 -845.31640625 140.67578125 C-844.63539856 140.56876892 -843.95439087 140.46175659 -843.25274658 140.35150146 C-841.78842181 140.12142207 -840.32376169 139.89346813 -838.85879517 139.66751099 C-834.78378253 139.03750737 -830.71208571 138.38688885 -826.640625 137.734375 C-825.77971756 137.59641006 -824.91881012 137.45844513 -824.03181458 137.31629944 C-813.93736163 135.68555275 -803.87589566 133.87336678 -793.8125 132.0625 C-779.01516515 129.4038551 -764.20781441 126.8282562 -749.375 124.375 C-748.50025024 124.2302121 -747.62550049 124.08542419 -746.72424316 123.93624878 C-743.26283768 123.36336655 -739.8014128 122.79060188 -736.3399353 122.21815491 C-728.24333558 120.87778053 -720.15140825 119.51100179 -712.0625 118.125 C-711.37558075 118.00734283 -710.6886615 117.88968567 -709.98092651 117.76846313 C-700.63573957 116.16523452 -691.2971211 114.5259036 -681.9609375 112.87109375 C-680.90517014 112.68396317 -679.84940277 112.49683258 -678.76164246 112.30403137 C-676.58709649 111.91854224 -674.41255121 111.53304923 -672.23800659 111.14755249 C-671.14883942 110.95448517 -670.05967224 110.76141785 -668.9375 110.5625 C-667.84889679 110.36951324 -666.76029358 110.17652649 -665.63870239 109.97769165 C-650.77170816 107.34450303 -635.89566555 104.77834476 -621 102.3125 C-620.13872498 102.16981689 -619.27744995 102.02713379 -618.39007568 101.88012695 C-615.00082901 101.31875377 -611.61152798 100.75770993 -608.22216797 100.19702148 C-582.92228882 96.02349817 -582.92228882 96.02349817 -557.69555664 91.43432617 C-534.02793119 86.91990281 -510.30325941 82.76519123 -486.5546875 78.703125 C-485.29428933 78.48753319 -485.29428933 78.48753319 -484.00842857 78.26758599 C-473.1762743 76.41523794 -462.34322822 74.56813054 -451.50999796 72.72208744 C-434.50548851 69.82404227 -417.50278982 66.9153799 -400.49983406 64.00823593 C-396.27555756 63.28598157 -392.05125589 62.56387471 -387.82693291 61.84189224 C-343.21253654 54.21661148 -298.60670954 46.54185945 -254.0031147 38.8536768 C-239.48793034 36.35190718 -224.97203243 33.85431383 -210.45571733 31.35911429 C-200.71379591 29.68441915 -190.97208932 28.00847543 -181.23046875 26.33203125 C-180.18134827 26.15150294 -179.13222779 25.97097463 -178.05131578 25.78497577 C-152.02195453 21.30537762 -126.00020553 16.78646089 -99.99330586 12.17817783 C-94.70802339 11.24184281 -89.42209081 10.30926666 -84.13563538 9.37957764 C-83.419936 9.25369105 -82.70423662 9.12780447 -81.96684939 8.99810314 C-79.15585799 8.50373983 -76.34484959 8.00947424 -73.53374922 7.51573086 C-65.12021884 6.03782426 -56.71070748 4.53941148 -48.30488491 3.01814175 C-43.72670211 2.19433501 -39.14531594 1.38967316 -34.56274986 0.59064674 C-32.50647559 0.22787945 -30.4516255 -0.14308238 -28.39850807 -0.52330971 C-9.49025664 -4.01981302 -9.49025664 -4.01981302 0 0 Z " fill="#9D5025" transform="translate(2256,773)"/>
<path d="M0 0 C23.10234273 4.62046855 23.10234273 4.62046855 33.61224365 7.1438446 C34.38733025 7.32944128 35.16241684 7.51503796 35.96099091 7.70625877 C36.76405922 7.898584 37.56712753 8.09090923 38.39453125 8.2890625 C40.14259627 8.70472281 41.89074786 9.12001916 43.63897705 9.5349884 C47.38998156 10.42591699 51.14050458 11.31883382 54.89065552 12.21334839 C64.2115261 14.43623241 73.53530597 16.64687005 82.85890007 18.85829735 C85.0580001 19.37992136 87.25707234 19.90166251 89.45611763 20.42351723 C113.84016898 26.20978404 138.23966815 31.92943925 162.64214706 37.63741302 C173.16917839 40.09989009 183.69590608 42.56366512 194.22265625 45.02734375 C195.4154249 45.30647865 196.60819355 45.58561356 197.8371067 45.87320709 C217.39214199 50.44976806 236.94479499 55.03641497 256.49609375 59.62890625 C257.18176304 59.78996487 257.86743233 59.95102349 258.57387948 60.11696267 C268.34871875 62.41303047 278.1234506 64.70955545 287.89816236 67.00616598 C299.73932403 69.78828785 311.58053548 72.57019771 323.421875 75.3515625 C324.10564138 75.51217092 324.78940776 75.67277935 325.49389434 75.83825469 C353.07020264 82.31546718 380.65041404 88.77595681 408.23165894 95.2321167 C441.04014463 102.91193307 473.84771288 110.59546177 506.64250183 118.33359528 C508.89128102 118.86409665 511.14014756 119.39422619 513.38903809 119.92425537 C541.37270061 126.52082194 541.37270061 126.52082194 555 130 C568.60292165 133.46208167 582.21685683 136.75355799 595.9309082 139.74951172 C603.32190835 141.37480212 610.66720193 143.13047392 618 145 C626.19977211 147.08886919 634.4198457 149.01133246 642.6875 150.8125 C654.4731847 153.38241483 666.18538964 156.21087435 677.89837646 159.0894165 C689.10067753 161.83986018 700.32244184 164.44680876 711.59375 166.90234375 C719.76391733 168.69361064 727.86832143 170.69285048 735.97314453 172.75732422 C743.18357301 174.58028478 750.42093921 176.22942783 757.6875 177.8125 C768.66857988 180.20696759 779.58658534 182.8179791 790.5 185.5 C802.47808497 188.44360621 814.46176776 191.2989855 826.5234375 193.88476562 C836.42287678 196.02500584 846.14999246 198.53749812 856 201 C856 310.23 856 419.46 856 532 C824.81444099 528.53493789 824.81444099 528.53493789 814.125 527.125 C812.86365234 526.96064453 811.60230469 526.79628906 810.30273438 526.62695312 C800.03064618 525.2849804 789.76541728 523.89189632 779.5 522.5 C753.58879837 518.98762288 727.65881042 515.70263806 701.69482422 512.60577393 C685.4241363 510.66434385 669.16824901 508.64296716 652.92138672 506.51074219 C648.53323185 505.93920564 644.14377 505.37854114 639.75390625 504.8203125 C624.32704139 502.85699181 608.90608594 500.86505715 593.49865723 498.75408936 C580.88680794 497.02647983 568.27061149 495.39875297 555.625 493.9375 C533.54856605 491.38627374 511.52123912 488.4865693 489.5 485.5 C466.02095918 482.31633486 442.53031929 479.28045917 419 476.5 C398.66429015 474.09703172 378.35104991 471.55761467 358.0625 468.78125 C354.9375357 468.35390498 351.81254115 467.92678268 348.6875 467.5 C347.91044708 467.39382355 347.13339417 467.28764709 346.33279419 467.17825317 C334.40158543 465.55203715 322.45914875 464.07279536 310.49725342 462.69186401 C297.3656444 461.1758353 284.25621218 459.5155517 271.1489563 457.80055237 C266.09143623 457.139696 261.03237347 456.49145772 255.97265625 455.84765625 C238.30765529 453.5985618 220.65030284 451.29934977 203 448.9375 C177.44024935 445.51999619 151.87567549 442.2032289 126.26641846 439.17697144 C103.83474337 436.52452812 81.44410823 433.60936015 59.0625 430.5625 C39.39120784 427.91816236 19.69496009 425.46187001 0 423 C0 283.41 0 143.82 0 0 Z " fill="#F58435" transform="translate(153,523)"/>
<path d="M0 0 C10.12435163 2.24985592 10.12435163 2.24985592 13.69458008 3.57788086 C14.9164225 4.02735832 14.9164225 4.02735832 16.16294861 4.48591614 C17.02312088 4.80896225 17.88329315 5.13200836 18.76953125 5.46484375 C20.16897728 5.98210274 20.16897728 5.98210274 21.59669495 6.5098114 C24.67059499 7.64714826 27.74148424 8.79240055 30.8125 9.9375 C34.111662 11.16022979 37.41157917 12.38090771 40.71148682 13.60162354 C43.00158141 14.44902782 45.29141341 15.29714206 47.58099365 16.14593506 C55.47435807 19.07129483 63.37620964 21.97251585 71.28515625 24.85546875 C72.38360367 25.25593918 73.48205109 25.65640961 74.61378479 26.0690155 C78.851101 27.6133144 83.08864243 29.1569906 87.32681274 30.69894409 C109.26222949 38.68218288 131.12125412 46.8590713 153 55 C153 187.99 153 320.98 153 458 C138.52585083 456.2631021 124.08904981 454.51315242 109.65719604 452.49584961 C94.26644437 450.34785069 78.86744464 448.34611457 63.4375 446.5 C42.26054095 443.90954629 21.13009858 440.94838585 0 438 C0 293.46 0 148.92 0 0 Z " fill="#F58435" transform="translate(2247,771)"/>
<path d="M0 0 C1.01148102 0.1222847 2.02296204 0.2445694 3.06509399 0.37055969 C6.33191348 0.76714118 9.59758924 1.17237276 12.86328125 1.578125 C15.13626496 1.85642162 17.40929595 2.13433237 19.68237305 2.41186523 C26.18137045 3.20778369 32.678854 4.01549788 39.17578125 4.828125 C40.00291626 4.93143127 40.83005127 5.03473755 41.68225098 5.14117432 C58.15570253 7.20135499 74.60735368 9.42077677 91.05841064 11.65115356 C114.6975908 14.85533803 138.35216531 17.8633626 162.04394531 20.65087891 C174.13710689 22.07653069 186.2051949 23.60440237 198.26269531 25.30859375 C212.52282151 27.31876096 226.81108623 29.10880381 241.09698486 30.92456055 C246.09195727 31.56015454 251.0855302 32.20536233 256.078125 32.859375 C270.80800586 34.7868653 285.54722551 36.59331068 300.30078125 38.328125 C314.65947289 40.01688346 328.98392988 41.85085793 343.30078125 43.8671875 C362.89200952 46.62360175 382.52923068 49.00698846 402.17578125 51.328125 C426.50150684 54.20243946 450.78359843 57.35984565 475.05621338 60.65087891 C498.69612809 63.8551373 522.35143241 66.86327637 546.04394531 69.65087891 C558.13710689 71.07653069 570.2051949 72.60440237 582.26269531 74.30859375 C596.53488142 76.32046098 610.83525196 78.11185964 625.13323975 79.92909241 C630.02240043 80.55122716 634.9101896 81.18286164 639.796875 81.82421875 C655.91067257 83.93635904 672.03863416 85.90336076 688.17578125 87.828125 C714.61182834 90.98269247 741.00718681 94.38318169 767.38818359 97.96850586 C778.72618469 99.50767834 790.07079122 100.98763984 801.42016602 102.44042969 C812.3472572 103.84180186 823.26342399 105.31665474 834.17578125 106.828125 C833.84578125 107.488125 833.51578125 108.148125 833.17578125 108.828125 C830.30327274 109.40254988 827.49379756 109.85037634 824.59375 110.23046875 C823.71036453 110.3537001 822.82697906 110.47693146 821.91682434 110.60389709 C819.0667455 110.99968015 816.21515135 111.38298364 813.36328125 111.765625 C810.59203045 112.1457169 807.82114116 112.5283732 805.05024719 112.91105652 C803.19589775 113.16681652 801.34139336 113.42145549 799.48674011 113.67500305 C792.35990098 114.65205746 785.24563294 115.70126869 778.13339233 116.77893066 C771.25793928 117.82032342 764.37481972 118.80032889 757.48828125 119.765625 C748.57520596 121.02417018 739.68327333 122.36989084 730.80078125 123.828125 C720.22985745 125.55908617 709.63263976 127.01394954 699.01000977 128.38964844 C693.44701113 129.11276248 687.89338778 129.84897026 682.35546875 130.74609375 C681.47930908 130.88716553 680.60314941 131.0282373 679.70043945 131.17358398 C678.15816163 131.42698551 676.61730805 131.68940171 675.07885742 131.96508789 C662.15401071 134.08520972 649.06907262 132.63429432 636.15063477 131.22900391 C633.61358105 130.9531576 631.07555234 130.68850533 628.53710938 130.42578125 C620.06962728 129.53753344 611.64241993 128.53453095 603.22631836 127.23974609 C598.75045272 126.63579976 594.26395786 126.38973007 589.75854492 126.1015625 C586.14342434 125.82565551 582.57238805 125.41572643 578.9765625 124.953125 C577.56087655 124.77275387 576.14518624 124.59241691 574.72949219 124.41210938 C573.9881604 124.31696045 573.24682861 124.22181152 572.48303223 124.1237793 C565.93224081 123.28435192 559.37895419 122.46480296 552.82495117 121.65087891 C551.11636967 121.43768922 549.40802933 121.22255676 547.69995117 121.00537109 C538.90275144 119.88823946 530.11800302 118.86038452 521.27158731 118.22365153 C503.76050636 116.95553175 486.33661582 114.92998649 468.89550123 112.94852257 C464.1838256 112.41416234 459.47161295 111.88457515 454.75946999 111.35435486 C446.57018242 110.43223408 438.38123191 109.50716839 430.19250679 108.58006668 C418.16078131 107.2178827 406.12853633 105.86033148 394.09617694 104.50375967 C374.1750645 102.25765355 354.25436849 100.00787537 334.33392334 97.75585938 C314.87258535 95.55575569 295.4110607 93.35731515 275.94927979 91.16113281 C274.14335608 90.95734056 274.14335608 90.95734056 272.30094907 90.74943128 C266.21868693 90.06307872 260.13642122 89.37675787 254.05415392 88.69045115 C213.14529468 84.07436244 172.23680683 79.45499193 131.32861328 74.83300781 C98.80894647 71.15879765 66.28918316 67.48544792 33.76904297 63.81542969 C32.49498594 63.67164714 32.49498594 63.67164714 31.19519038 63.52495989 C21.37833381 62.41709454 11.56146738 61.30931662 1.74459634 60.20157943 C-12.31147979 58.6154853 -26.36753439 57.02920042 -40.42358398 55.44287109 C-41.10944339 55.36546736 -41.79530279 55.28806363 -42.50194581 55.20831433 C-84.94311263 50.41854096 -127.38374857 45.62406675 -169.82421875 40.828125 C-167.40149578 38.40540203 -165.87404494 38.16176376 -162.56640625 37.34765625 C-161.47908203 37.07453613 -160.39175781 36.80141602 -159.27148438 36.52001953 C-158.09263672 36.22981934 -156.91378906 35.93961914 -155.69921875 35.640625 C-146.85171565 33.41009345 -138.06303128 31.07728539 -129.32421875 28.453125 C-117.81221059 25.01437105 -106.19389177 22.03679387 -94.54296875 19.11181641 C-86.62666858 17.11621245 -78.77986081 14.97006951 -70.95741272 12.63278198 C-64.45450368 10.69676867 -57.9028184 8.98813628 -51.32421875 7.328125 C-42.30897562 5.03830985 -33.40592382 2.58358561 -24.5703125 -0.32421875 C-16.44677428 -2.16239163 -8.18290879 -1.02791782 0 0 Z " fill="#6B3A19" transform="translate(169.82421875,947.171875)"/>
<path d="M0 0 C9.44754069 0.5300631 18.73466039 1.55561134 28.09472656 2.92602539 C42.20649098 4.98748635 56.33931046 6.81081553 70.5 8.5 C87.38010244 10.51857178 104.21807887 12.77117182 121.04959106 15.15904236 C127.446668 16.06623227 133.84759651 16.94381883 140.25 17.8125 C141.16160889 17.93641113 142.07321777 18.06032227 143.01245117 18.18798828 C145.00824119 18.4590979 147.00410944 18.72963156 149 19 C146.00259857 20.70656235 143.697941 21.29297491 140.26467979 21.47692871 C139.30811235 21.53251387 138.35154491 21.58809902 137.36599058 21.64536858 C136.31587956 21.69729929 135.26576855 21.74923 134.18383598 21.80273438 C133.06299006 21.86522432 131.94214414 21.92771427 130.78733319 21.99209785 C126.99851515 22.2011268 123.20913999 22.39736121 119.41964722 22.59375 C116.68811748 22.74079601 113.95673632 22.89052509 111.22534573 23.04013062 C105.26872298 23.36495341 99.31177377 23.68313169 93.35456467 23.99700928 C84.49369897 24.46390252 75.63340107 24.94095884 66.77319006 25.42009616 C51.85720108 26.22640971 36.9407732 27.02431498 22.02407455 27.81738281 C7.21766845 28.604595 -7.58854951 29.39520312 -22.39452744 30.19042969 C-23.77650916 30.26465082 -23.77650916 30.26465082 -25.1864097 30.34037137 C-28.92689866 30.54126955 -32.66738631 30.74219189 -36.40787225 30.94314635 C-70.54153256 32.7769362 -104.67565122 34.60204822 -138.81005859 36.421875 C-170.93798036 38.13472973 -203.06559724 39.85315937 -235.19287109 41.578125 C-236.17920928 41.63108183 -237.16554747 41.68403867 -238.1817747 41.73860025 C-241.16594872 41.89882176 -244.15012264 42.05904513 -247.13429654 42.2192688 C-251.0992717 42.43215208 -255.06424704 42.64503217 -259.02922249 42.85791016 C-260.00779784 42.91045086 -260.98637319 42.96299157 -261.99460235 43.01712441 C-292.7449314 44.66808645 -323.4955275 46.31406189 -354.2461706 47.95916295 C-364.42065334 48.50347922 -374.5951204 49.04808495 -384.76953745 49.59362793 C-385.67924274 49.64240479 -386.58894804 49.69118165 -387.52622016 49.7414366 C-388.43376444 49.79009788 -389.34130871 49.83875917 -390.27635433 49.88889503 C-407.89632456 50.8336473 -425.51641069 51.77617839 -443.13674404 52.71413612 C-451.17526394 53.14208867 -459.21372977 53.57099005 -467.25203323 54.00299072 C-476.02729303 54.47445002 -484.8027204 54.94266133 -493.57839966 55.40625 C-494.26405898 55.44249528 -494.94971831 55.47874057 -495.65615519 55.51608419 C-516.96058525 56.64055728 -538.26815317 57.6094019 -559.58849156 58.3795166 C-572.13456391 58.83785252 -572.13456391 58.83785252 -584.65214837 59.78499699 C-588.67763704 60.15362854 -592.7117908 60.30375723 -596.75 60.46484375 C-598.57625411 60.54237885 -600.40250733 60.61993504 -602.22875977 60.69750977 C-603.17018829 60.73659454 -604.11161682 60.77567932 -605.08157349 60.81594849 C-620.5812723 61.46150589 -636.07440922 62.18073106 -651.5625 63.0625 C-652.67825912 63.12565903 -652.67825912 63.12565903 -653.81655884 63.19009399 C-659.60999198 63.51812946 -665.403176 63.85044261 -671.19628906 64.18408203 C-694.31959365 65.50013827 -717.19140047 65.02115307 -740.2565918 62.8034668 C-757.80636024 61.13345544 -775.41945893 59.97652491 -793.03710938 59.34155273 C-797.76276188 59.16011812 -802.31454723 58.67767 -807 58 C-809.97666355 57.79111762 -812.9559991 57.67978037 -815.9375 57.5625 C-827.65288736 57.0459072 -839.32108154 56.0387645 -851 55 C-851 54.67 -851 54.34 -851 54 C-825.32354901 51.97097048 -799.64478039 50.26835184 -773.92675781 48.8659668 C-764.27089225 48.33927154 -754.61589621 47.79693376 -744.9609375 47.25390625 C-744.00230553 47.20007404 -743.04367355 47.14624184 -742.05599213 47.09077835 C-725.36415735 46.15188781 -708.681362 45.11049147 -692 44 C-666.04991532 42.27493338 -640.089194 40.79189432 -614.12269974 39.33900833 C-588.48859628 37.90427479 -562.86426777 36.39058342 -537.24609375 34.69287109 C-515.91209841 33.28172798 -494.57131903 32.05263255 -473.22353363 30.8743515 C-452.16198578 29.71131656 -431.11026013 28.45733172 -410.0625 27.0625 C-384.71659571 25.38325439 -359.36162264 23.91904201 -334 22.5 C-308.99257743 21.10067289 -283.99166481 19.66047462 -259 18 C-233.04984746 16.27584237 -207.08920687 14.79189504 -181.12269974 13.33900833 C-156.72018816 11.97320664 -132.32492725 10.55271659 -107.9375 8.9375 C-85.76725736 7.47005597 -63.59203126 6.13557456 -41.40858841 4.8858223 C-39.0191815 4.75108166 -36.62981164 4.61569962 -34.240448 4.48019409 C-30.50297515 4.26848623 -26.76539343 4.05881819 -23.02770805 3.85089684 C-21.65079374 3.77413865 -20.27390711 3.69688184 -18.89705086 3.61908913 C-17.00307396 3.51231594 -15.10896128 3.40795963 -13.21484375 3.30371094 C-11.62337524 3.21521881 -11.62337524 3.21521881 -9.99975586 3.12493896 C-6.99601609 2.99983407 -4.00596477 2.97815147 -1 3 C-0.67 2.01 -0.34 1.02 0 0 Z " fill="#6B3A19" transform="translate(2248,1209)"/>
</svg>
