<?xml version="1.0" encoding="UTF-8"?>
<svg version="1.1" xmlns="http://www.w3.org/2000/svg" width="300" height="300">
<path d="M0 0 C1.22847656 0.33644531 2.45695313 0.67289063 3.72265625 1.01953125 C37.30954129 11.18540127 66.57024921 36.51822925 83.03515625 67.22265625 C101.35771423 102.18784171 104.50291726 145.05713608 92.75048828 182.75390625 C87.22724274 199.28411412 78.61604634 215.01849126 67 228 C66.18015625 228.96292969 65.3603125 229.92585937 64.515625 230.91796875 C53.6671488 243.46317433 40.56652748 253.1683364 26 261 C25.03054443 261.5256958 25.03054443 261.5256958 24.04150391 262.06201172 C-11.39258991 280.91326251 -53.0922141 281.83978458 -90.9375 270.3125 C-128.20893387 257.04552146 -156.75985129 230.99705127 -173.89257812 195.4375 C-189.03936584 162.09853867 -189.61199845 119.17046368 -177.22998047 84.86669922 C-171.67152221 70.50195271 -164.20940694 56.5719777 -154 45 C-153.30261719 44.18273438 -152.60523438 43.36546875 -151.88671875 42.5234375 C-126.98209374 13.94726031 -93.09060919 -2.35276551 -55.4375 -5.625 C-36.60313192 -6.85820267 -18.17348269 -5.09541101 0 0 Z " fill="#F48536" transform="translate(193,14)"/>
<path d="M0 0 C4.4200083 3.76756134 7.97682972 7.74998526 11.125 12.625 C11.63933594 12.46644531 12.15367187 12.30789062 12.68359375 12.14453125 C22.21214653 10.11685522 32.54007974 10.96737071 41.125 15.625 C47.30281483 19.71528564 51.20447524 24.84386739 54.125 31.625 C54.22167969 32.33785156 54.31835938 33.05070312 54.41796875 33.78515625 C54.65128906 34.39230469 54.88460937 34.99945313 55.125 35.625 C57.53260216 36.7090058 57.53260216 36.7090058 60.5 37.375 C73.24864427 41.24512415 81.5813273 49.77228487 88 61.0625 C92.76598153 70.44873377 92.71413055 80.4725184 89.6875 90.5 C84.74336697 102.01326084 74.26209164 109.89670763 62.875 114.5 C54.85908952 116.90477314 47.0615638 116.78421618 38.74511719 116.80200195 C37.39248992 116.80827624 36.03986435 116.81492388 34.6872406 116.82191467 C30.26546401 116.84283892 25.84368752 116.85330465 21.421875 116.86328125 C19.89321119 116.86733286 18.36454755 116.8714499 16.83588409 116.87563133 C9.65284807 116.89465575 2.46982215 116.9088937 -4.71323419 116.9172433 C-12.97826888 116.92701212 -21.24303552 116.95333377 -29.50797582 116.99374419 C-35.91503212 117.02398598 -42.32201189 117.03871969 -48.72913814 117.04202431 C-52.54744455 117.04436512 -56.36546369 117.05319859 -60.18369293 117.07848549 C-63.77895702 117.10191403 -67.37374763 117.10594096 -70.96906853 117.09572411 C-72.90042581 117.09499963 -74.83175987 117.1139849 -76.76301575 117.13378906 C-89.86393969 117.05633926 -101.18006757 112.60851414 -110.9453125 103.74609375 C-112.76762578 101.79361523 -114.33452473 99.80567278 -115.875 97.625 C-116.38160156 96.93277344 -116.88820312 96.24054688 -117.41015625 95.52734375 C-122.63528958 87.04196009 -122.01830125 76.36298029 -120.3984375 66.81640625 C-119.74154853 64.5964381 -118.93380765 62.68245577 -117.875 60.625 C-117.27171875 59.40103516 -117.27171875 59.40103516 -116.65625 58.15234375 C-112.61591608 50.71139545 -107.05801599 44.1460114 -99 41.0625 C-94.76637061 37.76026907 -94.81003754 34.76389892 -93.99316406 29.61035156 C-91.67329054 15.48021284 -82.70880156 4.59256654 -71.390625 -3.77734375 C-48.52802209 -18.29722666 -21.29405448 -16.73516477 0 0 Z " fill="#F58536" transform="translate(164.875,78.375)"/>
<path d="M0 0 C4.4200083 3.76756134 7.97682972 7.74998526 11.125 12.625 C11.63933594 12.46644531 12.15367187 12.30789062 12.68359375 12.14453125 C22.21214653 10.11685522 32.54007974 10.96737071 41.125 15.625 C47.30281483 19.71528564 51.20447524 24.84386739 54.125 31.625 C54.22167969 32.33785156 54.31835938 33.05070312 54.41796875 33.78515625 C54.65128906 34.39230469 54.88460937 34.99945313 55.125 35.625 C57.53260216 36.7090058 57.53260216 36.7090058 60.5 37.375 C73.24864427 41.24512415 81.5813273 49.77228487 88 61.0625 C92.76598153 70.44873377 92.71413055 80.4725184 89.6875 90.5 C84.74336697 102.01326084 74.26209164 109.89670763 62.875 114.5 C54.85908952 116.90477314 47.0615638 116.78421618 38.74511719 116.80200195 C37.39248992 116.80827624 36.03986435 116.81492388 34.6872406 116.82191467 C30.26546401 116.84283892 25.84368752 116.85330465 21.421875 116.86328125 C19.89321119 116.86733286 18.36454755 116.8714499 16.83588409 116.87563133 C9.65284807 116.89465575 2.46982215 116.9088937 -4.71323419 116.9172433 C-12.97826888 116.92701212 -21.24303552 116.95333377 -29.50797582 116.99374419 C-35.91503212 117.02398598 -42.32201189 117.03871969 -48.72913814 117.04202431 C-52.54744455 117.04436512 -56.36546369 117.05319859 -60.18369293 117.07848549 C-63.77895702 117.10191403 -67.37374763 117.10594096 -70.96906853 117.09572411 C-72.90042581 117.09499963 -74.83175987 117.1139849 -76.76301575 117.13378906 C-89.86393969 117.05633926 -101.18006757 112.60851414 -110.9453125 103.74609375 C-112.76762578 101.79361523 -114.33452473 99.80567278 -115.875 97.625 C-116.38160156 96.93277344 -116.88820312 96.24054688 -117.41015625 95.52734375 C-122.63528958 87.04196009 -122.01830125 76.36298029 -120.3984375 66.81640625 C-119.74154853 64.5964381 -118.93380765 62.68245577 -117.875 60.625 C-117.27171875 59.40103516 -117.27171875 59.40103516 -116.65625 58.15234375 C-112.61591608 50.71139545 -107.05801599 44.1460114 -99 41.0625 C-94.76637061 37.76026907 -94.81003754 34.76389892 -93.99316406 29.61035156 C-91.67329054 15.48021284 -82.70880156 4.59256654 -71.390625 -3.77734375 C-48.52802209 -18.29722666 -21.29405448 -16.73516477 0 0 Z M-72.6875 17 C-78.57513545 24.99133814 -81.05851402 32.52632051 -80.9375 42.375 C-80.93298828 43.07238281 -80.92847656 43.76976562 -80.92382812 44.48828125 C-80.9121002 46.20055803 -80.89416653 47.91279033 -80.875 49.625 C-81.968125 49.625 -83.06125 49.625 -84.1875 49.625 C-90.56274383 50.45163019 -95.29250104 54.33589274 -99.875 58.625 C-105.87886741 66.5754338 -107.96174233 73.69268052 -106.875 83.625 C-104.34252855 90.65438336 -98.1122722 96.51596445 -91.51705742 99.79862881 C-84.0258321 102.70222186 -77.33317418 103.20145139 -69.34814453 103.15844727 C-68.04093445 103.16706284 -66.73372437 103.17567841 -65.38690186 103.18455505 C-61.83293939 103.20687374 -58.27942592 103.20415066 -54.72542048 103.19523358 C-51.74366994 103.19008743 -48.76200112 103.19744556 -45.78025901 103.20470566 C-38.73803478 103.22164967 -31.69602752 103.21819541 -24.65380859 103.20141602 C-17.42193237 103.18450599 -10.19066029 103.20032587 -2.95885003 103.2326389 C3.28105876 103.25944948 9.52078082 103.2665799 15.76074135 103.25812382 C19.47399125 103.25322707 23.18687824 103.25523111 26.90008163 103.27591133 C31.04688173 103.29790514 35.19255864 103.27874123 39.33935547 103.25610352 C40.54703583 103.26779572 41.75471619 103.27948792 42.99899292 103.29153442 C53.33651178 103.17741884 63.03848922 100.92464712 70.75 93.6875 C76.17348991 87.52028258 77.70595176 82.79575966 77.47265625 74.58984375 C76.54381438 66.66859683 71.42774668 60.11448027 65.34765625 55.18359375 C58.18641318 50.27762969 49.76027472 48.04931502 41.125 48.625 C41.17140625 47.9959375 41.2178125 47.366875 41.265625 46.71875 C41.52899391 40.47314448 40.96454537 35.70916864 37.125 30.625 C31.96455925 26.51771043 27.53229109 25.125 21.04296875 25.125 C15.40232249 26.09153644 10.80484664 29.47293834 6.125 32.625 C3.67972811 29.54087329 1.81991744 26.32684385 -0.0625 22.875 C-6.11674476 12.50710585 -12.90595717 7.37573028 -23.875 2.625 C-24.63296875 2.24988281 -25.3909375 1.87476562 -26.171875 1.48828125 C-43.54631791 -4.06049315 -61.53087378 3.43240795 -72.6875 17 Z " fill="#FEFCFA" transform="translate(164.875,78.375)"/>
<path d="M0 0 C0.33 0 0.66 0 1 0 C1.06469482 0.72888428 1.12938965 1.45776855 1.19604492 2.20874023 C2.51843617 16.62110223 3.99400093 30.37137965 9 44 C9.33837891 44.95688721 9.33837891 44.95688721 9.68359375 45.93310547 C20.32643514 75.76462912 41.604203 100.35880102 69 116 C70.69189453 117.00353516 70.69189453 117.00353516 72.41796875 118.02734375 C82.71873533 123.97326842 93.58849118 127.75139085 105 131 C106.1761084 131.3410376 106.1761084 131.3410376 107.37597656 131.68896484 C136.51498937 139.77898953 171.6461652 136.54922231 199 124 C199.98419922 123.55333984 199.98419922 123.55333984 200.98828125 123.09765625 C235.35851985 107.25974516 261.29981489 81.18344296 274.53515625 45.43847656 C275.76308795 41.98144775 276.89496081 38.49792652 278 35 C278.31839844 34.03320312 278.63679688 33.06640625 278.96484375 32.0703125 C281.97941175 21.72179549 282.24243112 10.70117043 283 0 C283.33 0 283.66 0 284 0 C284.82675948 35.87217506 276.44719933 70.67904048 252 98 C251.18015625 98.96292969 250.3603125 99.92585938 249.515625 100.91796875 C238.6671488 113.46317433 225.56652748 123.1683364 211 131 C210.03054443 131.5256958 210.03054443 131.5256958 209.04150391 132.06201172 C173.60741009 150.91326251 131.9077859 151.83978458 94.0625 140.3125 C56.79106613 127.04552146 28.24014871 100.99705127 11.10742188 65.4375 C1.61318076 44.54012274 -0.22432098 22.65641872 0 0 Z " fill="#9E5024" transform="translate(8,144)"/>
</svg>
